<svg width="99" height="107" viewBox="0 0 99 107" fill="none" xmlns="http://www.w3.org/2000/svg">
<path fill-rule="evenodd" clip-rule="evenodd" d="M94.6821 60.7282L58.0546 82.7678L21.4271 104.807C18.7167 106.448 15.6033 106.448 12.8746 104.807C10.1642 103.166 8.60749 100.361 8.60749 97.0983V71.9483C8.24121 66.2047 4.34038 63.4378 0.0183316 61.0717H10.6769C16.5739 61.1861 23.1669 63.1516 27.6904 67.216C29.2654 68.6281 32.3238 71.6621 34.8328 72.8261C37.3417 73.9901 41.0045 75.6502 46.9198 74.5817C52.8169 73.5131 56.3514 72.101 57.2854 71.2996C58.2378 70.5172 58.5308 69.9638 56.5529 69.296C54.575 68.6281 44.2277 65.7658 44.2277 65.7658C44.2277 65.7658 42.7077 65.4223 42.2315 63.724C41.7371 62.0258 41.0961 57.2362 42.9824 51.9887C44.887 46.7411 47.9637 45.3863 47.9637 45.3863C47.9637 45.3863 48.6597 44.8139 51.4067 45.6916C54.1355 46.5694 62.2301 48.7257 62.2301 48.7447C62.4499 48.802 62.633 48.802 62.8528 48.7447C63.4938 48.6112 64.3179 48.1723 63.6953 47.0846C62.7429 45.4054 58.2378 40.3296 53.4212 36.8758C48.1102 33.0785 43.3304 32.3343 38.6237 35.5019C34.265 38.4214 32.2139 40.6731 26.8297 43.0202C24.339 44.1078 22.8556 44.623 18.8082 45.1192C18.1306 45.1955 17.5812 45.2527 16.8853 45.2527H0C4.15722 42.6004 8.22288 39.8144 8.58915 34.1089V8.93988C8.58915 5.67687 10.1458 2.87183 12.8563 1.23078C15.5667 -0.410261 18.68 -0.410261 21.4088 1.23078L58.0363 23.2704L94.6638 45.31C97.3742 46.951 98.9309 49.7561 98.9309 53.0191C98.9309 56.2821 97.3742 59.0871 94.6638 60.7282H94.6821Z" fill="white"/>
</svg>
