<svg width="100" height="90" viewBox="0 0 100 90" fill="none" xmlns="http://www.w3.org/2000/svg">
<path fill-rule="evenodd" clip-rule="evenodd" d="M56.1435 1.27737C80.3528 1.27737 100 20.9246 100 45.1338C100 69.3431 80.3528 88.9903 56.1435 88.9903C40.3285 88.9903 26.4599 80.5961 18.7348 68.0657L26.764 58.6983L31.8735 44.6472C31.8735 44.6472 31.8735 44.9513 31.8735 45.073C31.8735 58.455 42.7007 69.2822 56.0827 69.2822C69.4647 69.2822 80.292 58.455 80.292 45.073C80.292 31.691 69.4647 20.8637 56.0827 20.8637C48.5401 20.8637 41.7275 24.3309 37.3479 29.8054L42.2749 16.3017L41.7275 3.64964C46.2287 2.06813 51.0341 1.21655 56.0827 1.21655L56.1435 1.27737ZM26.6423 0L15.0243 7.23844L0 48.1144L3.83212 62.2263L14.8418 66.2409L23.1752 56.5693L38.1387 15.6934L37.6521 4.0146L26.6423 0ZM11.0097 56.2652C12.2871 56.2652 13.2603 57.2993 13.2603 58.5158C13.2603 59.7324 12.2263 60.7664 11.0097 60.7664C9.79319 60.7664 8.75912 59.7324 8.75912 58.5158C8.75912 57.2993 9.79319 56.2652 11.0097 56.2652ZM4.74453 47.871L7.3601 48.8443L20.9246 11.5572L27.6764 6.75182C27.6764 7.96837 28.7105 8.94161 29.927 8.94161C31.1436 8.94161 32.1776 7.90754 32.1776 6.691C32.1776 5.47445 31.1436 4.44039 29.927 4.44039C28.8321 4.44039 27.8589 5.23114 27.6764 6.32603L26.2774 4.37956L18.8564 9.67153L18.4915 9.91484L18.3698 10.3406L4.74453 47.871ZM56.1435 39.1727C52.7981 39.1727 50.1217 41.8491 50.1217 45.1946C50.1217 48.5401 52.7981 51.2165 56.1435 51.2165C59.489 51.2165 62.1655 48.5401 62.1655 45.1946C62.1655 41.8491 59.489 39.1727 56.1435 39.1727ZM31.9951 61.253C32.5426 61.8005 33.3942 61.8613 33.9416 61.253C34.4891 60.7056 34.5499 59.854 33.9416 59.3066C33.3942 58.7591 32.5426 58.6983 31.9951 59.3066C31.4477 59.854 31.3869 60.7056 31.9951 61.253ZM26.9465 60.9489C27.4939 61.4964 28.3455 61.5572 28.8929 60.9489C29.4404 60.4015 29.5012 59.5499 28.8929 59.0024C28.3455 58.455 27.4939 58.3942 26.9465 59.0024C26.399 59.5499 26.3382 60.4015 26.9465 60.9489ZM43.2482 71.1679C43.9781 71.4112 44.7689 70.9854 44.9513 70.2555C45.1946 69.5255 44.7689 68.7348 44.0389 68.5523C43.309 68.309 42.5182 68.7348 42.3358 69.4647C42.0925 70.1946 42.5182 70.9854 43.2482 71.1679ZM30.4745 77.4939C31.2044 77.7372 31.9951 77.3114 32.1776 76.5815C32.4209 75.8516 31.9951 75.0608 31.2652 74.8783C30.5353 74.635 29.7445 75.0608 29.562 75.7908C29.3187 76.5207 29.7445 77.3114 30.4745 77.4939ZM34.5499 75.6083C35.2798 75.8516 36.0706 75.4258 36.253 74.6959C36.4964 73.9659 36.0706 73.1752 35.3406 72.9927C34.6107 72.7494 33.82 73.1752 33.6375 73.9051C33.3942 74.635 33.82 75.4258 34.5499 75.6083ZM38.747 73.4185C39.4769 73.6618 40.2676 73.236 40.4501 72.5061C40.6934 71.7762 40.2676 70.9854 39.5377 70.8029C38.8078 70.5596 38.017 70.9854 37.8345 71.7153C37.5912 72.4453 38.017 73.236 38.747 73.4185ZM57.9684 74.0876C58.6983 73.9051 59.1849 73.1752 59.0024 72.4453C58.82 71.7153 58.09 71.2287 57.3601 71.4112C56.6302 71.5937 56.1436 72.3236 56.326 73.0535C56.5085 73.7835 57.2384 74.2701 57.9684 74.0876ZM50.0608 85.9489C50.7908 85.7664 51.2774 85.0365 51.0949 84.3066C50.9124 83.5766 50.1825 83.09 49.4526 83.2725C48.7226 83.455 48.236 84.1849 48.4185 84.9148C48.601 85.6448 49.3309 86.1314 50.0608 85.9489ZM52.6156 82.2993C53.3455 82.1168 53.8321 81.3869 53.6496 80.6569C53.4672 79.927 52.7372 79.4404 52.0073 79.6229C51.2774 79.8054 50.7908 80.5353 50.9732 81.2652C51.1557 81.9951 51.8856 82.4818 52.6156 82.2993ZM55.1703 78.3455C55.9002 78.163 56.3869 77.4331 56.2044 76.7032C56.0219 75.9732 55.292 75.4866 54.562 75.6691C53.8321 75.8516 53.3455 76.5815 53.528 77.3114C53.7105 78.0414 54.4404 78.528 55.1703 78.3455ZM72.1411 69.2822C72.6886 68.7348 72.7494 67.8832 72.1411 67.3358C71.5937 66.7883 70.7421 66.7275 70.1946 67.3358C69.6472 67.8832 69.5864 68.7348 70.1946 69.2822C70.7421 69.8297 71.5937 69.8905 72.1411 69.2822ZM71.2287 83.5158C71.7762 82.9684 71.7762 82.1168 71.2287 81.5693C70.6813 81.0219 69.8297 80.9611 69.2822 81.5693C68.7348 82.1168 68.674 82.9684 69.2822 83.5158C69.8905 84.0633 70.6813 84.1241 71.2287 83.5158ZM71.6545 79.0754C72.2019 78.528 72.2019 77.6764 71.6545 77.129C71.1679 76.5815 70.2555 76.5207 69.708 77.129C69.1606 77.6764 69.0998 78.528 69.708 79.0754C70.2555 79.6229 71.1071 79.6837 71.6545 79.0754ZM71.8978 74.3309C72.4453 73.7835 72.5061 72.9319 71.8978 72.3844C71.4112 71.837 70.4988 71.7762 69.9513 72.3844C69.4039 72.9319 69.3431 73.7835 69.9513 74.3309C70.4988 74.8783 71.3504 74.9392 71.8978 74.3309ZM82.1168 58.0292C82.3601 57.2993 81.9343 56.5085 81.2044 56.326C80.4745 56.0827 79.6837 56.5085 79.5012 57.2384C79.2579 57.9684 79.6837 58.7591 80.4136 58.9416C81.1436 59.1849 81.9343 58.7591 82.1168 58.0292ZM88.4428 70.8029C88.6861 70.073 88.2603 69.2822 87.5304 69.0998C86.8005 68.8564 86.0097 69.2822 85.8272 70.0122C85.5839 70.7421 86.0097 71.5328 86.7397 71.7153C87.4696 71.9586 88.2603 71.5328 88.4428 70.8029ZM86.5572 66.7275C86.8005 65.9976 86.3747 65.2068 85.6448 65.0243C84.9148 64.8418 84.1241 65.2068 83.9416 65.9367C83.6983 66.6667 84.1241 67.4574 84.854 67.6399C85.5839 67.8832 86.3747 67.4574 86.5572 66.7275ZM84.3674 62.5304C84.6107 61.8005 84.1849 61.0097 83.455 60.8273C82.7251 60.5839 81.9343 61.0097 81.7518 61.7397C81.5085 62.4696 81.9343 63.2603 82.6642 63.4428C83.3942 63.6861 84.1849 63.2603 84.3674 62.5304ZM85.0365 43.309C84.854 42.5791 84.1241 42.0925 83.3942 42.2749C82.6642 42.4574 82.1776 43.1873 82.3601 43.9173C82.5426 44.6472 83.2725 45.1338 84.0024 44.9513C84.7324 44.7689 85.219 44.0389 85.0365 43.309ZM96.8978 51.2165C96.7153 50.4866 95.9854 50 95.2555 50.1825C94.5255 50.365 94.0389 51.0949 94.2214 51.8248C94.4039 52.5547 95.1338 53.0414 95.8637 52.8589C96.5937 52.6764 97.0803 51.9465 96.8978 51.2165ZM93.2482 48.6618C93.0657 47.9319 92.3358 47.4453 91.6058 47.6277C90.8759 47.8102 90.3893 48.5401 90.5718 49.2701C90.7543 50 91.4842 50.4866 92.2141 50.3041C92.944 50.1217 93.4307 49.3917 93.2482 48.6618ZM89.2944 46.1071C89.1119 45.3771 88.382 44.8905 87.6521 45.073C86.9221 45.2555 86.4355 45.9854 86.618 46.7153C86.8005 47.4453 87.5304 47.9319 88.2603 47.7494C88.9903 47.5669 89.4769 46.837 89.2944 46.1071ZM80.2311 29.1363C79.7445 28.5888 78.8321 28.528 78.2847 29.1363C77.7372 29.6837 77.6764 30.5353 78.2847 31.0827C78.8321 31.6302 79.6837 31.691 80.2311 31.0827C80.7786 30.5353 80.8394 29.6837 80.2311 29.1363ZM94.4647 30.0487C93.9173 29.5012 93.0657 29.4404 92.5182 30.0487C91.9708 30.5961 91.91 31.4477 92.5182 31.9951C93.0049 32.5426 93.9173 32.6034 94.4647 31.9951C95.0122 31.4477 95.073 30.5961 94.4647 30.0487ZM90.0243 29.6229C89.4769 29.0754 88.6253 29.0146 88.0779 29.6229C87.5304 30.1703 87.4696 31.0219 88.0779 31.5693C88.6253 32.1168 89.4769 32.1776 90.0243 31.5693C90.5718 31.0219 90.6326 30.1703 90.0852 29.6229H90.0243ZM85.2798 29.3796C84.7324 28.8321 83.8808 28.7713 83.3333 29.3796C82.7859 29.927 82.7251 30.7786 83.3333 31.326C83.8808 31.8735 84.7324 31.9343 85.2798 31.326C85.8273 30.7786 85.8881 29.927 85.2798 29.3796ZM68.9781 19.1606C68.2482 18.9173 67.4574 19.3431 67.2749 20.073C67.0316 20.8029 67.4574 21.5937 68.1873 21.7762C68.9173 22.0195 69.708 21.5937 69.8905 20.8637C70.1338 20.1338 69.708 19.3431 68.9781 19.1606ZM81.7518 12.8345C81.0219 12.5912 80.2311 13.017 80.0487 13.747C79.8054 14.4769 80.2311 15.2676 80.9611 15.4501C81.691 15.6934 82.4818 15.2676 82.6642 14.5377C82.9075 13.8078 82.4817 13.017 81.7518 12.8345ZM77.6764 14.7202C76.9465 14.4769 76.1557 14.9027 75.9732 15.6326C75.7299 16.3625 76.1557 17.1533 76.8856 17.3358C77.6156 17.5791 78.4063 17.1533 78.5888 16.4234C78.8321 15.6934 78.4063 14.9027 77.6764 14.7202ZM73.4793 16.91C72.7494 16.6667 71.9586 17.0925 71.7762 17.8224C71.5328 18.5523 71.9586 19.3431 72.6886 19.5255C73.4185 19.7689 74.2092 19.3431 74.3917 18.6131C74.635 17.8832 74.2092 17.0925 73.4793 16.91ZM54.2579 16.2409C53.528 16.4234 53.0414 17.1533 53.2238 17.8832C53.4063 18.6131 54.1363 19.0998 54.8662 18.9173C55.5961 18.7348 56.0827 18.0049 55.9002 17.2749C55.7178 16.545 54.9878 16.0584 54.2579 16.2409ZM62.1655 4.37956C61.4355 4.56204 60.9489 5.29197 61.1314 6.0219C61.3139 6.75182 62.0438 7.23844 62.7737 7.05596C63.5036 6.87348 63.9903 6.14355 63.8078 5.41363C63.6253 4.6837 62.8954 4.19708 62.1655 4.37956ZM59.6107 8.0292C58.8808 8.21168 58.3942 8.94161 58.5766 9.67153C58.7591 10.4015 59.489 10.8881 60.219 10.7056C60.9489 10.5231 61.4355 9.79319 61.253 9.06326C61.0706 8.33333 60.3406 7.84672 59.6107 8.0292ZM57.056 11.983C56.326 12.1655 55.8394 12.8954 56.0219 13.6253C56.2044 14.3552 56.9343 14.8418 57.6642 14.6594C58.3942 14.4769 58.8808 13.747 58.6983 13.017C58.5158 12.2871 57.7859 11.8005 57.056 11.983ZM42.8224 41.545C42.0316 42.3358 42.0316 43.5523 42.8224 44.3431C43.6131 45.1338 44.8297 45.1338 45.6204 44.3431C46.4112 43.5523 46.4112 42.3358 45.6204 41.545C44.8297 40.7543 43.6131 40.7543 42.8224 41.545ZM46.4112 54.8662C46.7153 55.9002 47.7494 56.5693 48.8443 56.2652C49.8783 55.9611 50.5474 54.8662 50.2433 53.8321C49.9392 52.7981 48.9051 52.129 47.8102 52.4331C46.7762 52.7372 46.1071 53.8321 46.4112 54.8662ZM59.7324 58.455C60.7664 58.7591 61.8613 58.09 62.1655 57.056C62.4696 56.0219 61.8005 54.927 60.7664 54.6229C59.7324 54.3187 58.6375 54.9878 58.3333 56.0219C58.0292 57.056 58.6983 58.1508 59.7324 58.455ZM69.5255 48.7226C70.3163 47.9319 70.3163 46.7153 69.5255 45.9246C68.7348 45.1338 67.5182 45.1338 66.7275 45.9246C65.9367 46.7153 65.9367 47.9319 66.7275 48.7226C67.5182 49.5134 68.7348 49.5134 69.5255 48.7226ZM65.9367 35.4015C65.6326 34.3674 64.5985 33.6983 63.5036 34.0024C62.4696 34.3066 61.8005 35.4015 62.1046 36.4355C62.4088 37.4696 63.4428 38.1387 64.5377 37.8345C65.5718 37.5304 66.2409 36.4355 65.9367 35.4015ZM52.6156 31.8127C51.5815 31.5085 50.4866 32.1776 50.1825 33.2117C49.8783 34.2457 50.5474 35.3406 51.5815 35.6448C52.6156 35.9489 53.7105 35.2798 54.0146 34.2457C54.3187 33.2117 53.6496 32.1168 52.6156 31.8127ZM56.2044 26.2165C45.7421 26.2165 37.2871 34.6715 37.2871 45.1338C37.2871 55.5961 45.7421 64.0511 56.2044 64.0511C66.6667 64.0511 75.1217 55.5961 75.1217 45.1338C75.1217 34.6715 66.6667 26.2165 56.2044 26.2165Z" fill="white"/>
</svg>
