<svg width="1920" height="2433" viewBox="0 0 1920 2433" fill="none" xmlns="http://www.w3.org/2000/svg">
<path fill-rule="evenodd" clip-rule="evenodd" d="M1920 0H0V2433H1920V0ZM928.434 1279.62L1016.53 1230.15C1019.79 1228.31 1021.66 1225.16 1021.66 1221.5C1021.66 1217.84 1019.79 1214.69 1016.53 1212.85L928.411 1163.38C925.129 1161.54 921.384 1161.54 918.124 1163.38C914.863 1165.22 912.991 1168.37 912.991 1172.03V1200.28C912.551 1206.68 907.66 1209.81 902.659 1212.78H922.97L923.227 1212.78C923.551 1212.78 923.852 1212.76 924.151 1212.74C924.518 1212.71 924.882 1212.68 925.283 1212.63C930.151 1212.08 931.936 1211.5 934.932 1210.28C939.431 1208.45 941.995 1206.67 944.899 1204.66C946.176 1203.77 947.518 1202.84 949.118 1201.84C954.779 1198.29 960.529 1199.12 966.918 1203.38C972.711 1207.26 978.13 1212.96 979.275 1214.84C980.024 1216.06 979.033 1216.55 978.263 1216.7C977.998 1216.77 977.778 1216.77 977.514 1216.7C977.514 1216.7 976.78 1216.51 975.647 1216.22L975.564 1216.2C973.799 1215.75 971.114 1215.07 968.719 1214.44C967.022 1213.99 965.472 1213.57 964.494 1213.28C961.19 1212.29 960.353 1212.93 960.353 1212.93C960.353 1212.93 956.652 1214.45 954.361 1220.34C952.092 1226.23 952.863 1231.61 953.458 1233.51C954.03 1235.42 955.859 1235.8 955.859 1235.8C955.859 1235.8 968.306 1239.02 970.685 1239.77C973.063 1240.52 972.711 1241.14 971.565 1242.02C970.442 1242.91 966.19 1244.5 959.098 1245.7C951.982 1246.9 947.576 1245.03 944.559 1243.73C942.014 1242.63 939 1240.03 936.981 1238.3L936.92 1238.24C936.568 1237.94 936.248 1237.67 935.967 1237.43C930.526 1232.87 922.596 1230.67 915.502 1230.54H902.682C907.88 1233.19 912.572 1236.3 913.013 1242.74V1270.97C913.013 1274.63 914.886 1277.78 918.146 1279.62C921.428 1281.46 925.173 1281.46 928.434 1279.62ZM1093.47 1364.17C1096.67 1365.15 1100.02 1365.64 1103.52 1365.64C1107.62 1365.64 1111.01 1365.04 1113.7 1363.85C1116.38 1362.61 1118.37 1360.99 1119.65 1358.98C1120.97 1356.94 1121.63 1354.72 1121.63 1352.33C1121.63 1349.98 1121.14 1348.04 1120.16 1346.5C1119.88 1346.04 1119.57 1345.61 1119.23 1345.2C1118.96 1344.89 1118.68 1344.6 1118.38 1344.32C1117.79 1343.76 1117.12 1343.27 1116.38 1342.86C1115.6 1342.4 1114.76 1341.98 1113.87 1341.61C1113.02 1341.26 1112.13 1340.95 1111.2 1340.68C1109.32 1340.12 1107.42 1339.63 1105.5 1339.21C1103.58 1338.74 1101.83 1338.27 1100.26 1337.8C1098.72 1337.33 1097.46 1336.69 1096.48 1335.88C1095.54 1335.03 1095.07 1333.92 1095.07 1332.55C1095.07 1331.4 1095.39 1330.38 1096.03 1329.48C1096.71 1328.58 1097.76 1327.86 1099.17 1327.3C1100.62 1326.75 1102.5 1326.47 1104.8 1326.47C1106.76 1326.47 1108.81 1326.77 1110.94 1327.37C1113.08 1327.92 1115.15 1328.8 1117.15 1329.99L1119.78 1323.53C1119.02 1323.04 1118.22 1322.59 1117.37 1322.19C1116 1321.54 1114.5 1321 1112.86 1320.58C1111.59 1320.26 1110.32 1320.01 1109.03 1319.84C1108.26 1319.73 1107.49 1319.66 1106.71 1319.61C1106.1 1319.58 1105.48 1319.56 1104.86 1319.56C1100.77 1319.56 1097.38 1320.18 1094.69 1321.42C1092.04 1322.61 1090.06 1324.23 1088.74 1326.28C1087.46 1328.29 1086.82 1330.5 1086.82 1332.94C1086.82 1335.33 1087.31 1337.29 1088.29 1338.82C1089.27 1340.36 1090.53 1341.6 1092.06 1342.54C1093.64 1343.43 1095.37 1344.18 1097.25 1344.78C1098.32 1345.09 1099.39 1345.38 1100.45 1345.65C1101.28 1345.86 1102.12 1346.06 1102.94 1346.25C1104.86 1346.67 1106.59 1347.14 1108.13 1347.66C1109.71 1348.12 1110.99 1348.79 1111.97 1349.64C1112.95 1350.45 1113.44 1351.54 1113.44 1352.9C1113.44 1354.01 1113.1 1355.02 1112.42 1355.91C1111.73 1356.77 1110.67 1357.45 1109.22 1357.96C1107.77 1358.47 1105.87 1358.73 1103.52 1358.73C1100.75 1358.73 1098.04 1358.26 1095.39 1357.32C1092.75 1356.38 1090.53 1355.21 1088.74 1353.8L1085.86 1360.26C1087.73 1361.84 1090.27 1363.14 1093.47 1364.17ZM606.848 1365V1327.24H592V1320.2H630.016V1327.24H615.168V1365H606.848ZM670.628 1320.2H678.948V1365H670.628V1345.8H647.46V1365H639.14V1320.2H647.46V1338.7H670.628V1320.2ZM702.152 1345.67V1358.02H727.433V1365H693.832V1320.2H726.536V1327.18H702.152V1338.82H723.784V1345.67H702.152ZM768.475 1365V1347.85H790.107V1340.81H768.475V1327.18H792.859V1320.2H760.155V1365H768.475ZM808.585 1360.46C812.084 1363.91 816.905 1365.64 823.049 1365.64C829.15 1365.64 833.929 1363.91 837.385 1360.46C840.884 1357 842.633 1352.01 842.633 1345.48V1320.2H834.441V1345.16C834.441 1349.77 833.46 1353.12 831.497 1355.21C829.534 1357.3 826.739 1358.34 823.113 1358.34C819.486 1358.34 816.67 1357.3 814.665 1355.21C812.702 1353.12 811.721 1349.77 811.721 1345.16V1320.2H803.401V1345.48C803.401 1352.01 805.129 1357 808.585 1360.46ZM865.44 1365V1327.24H850.593V1320.2H888.608V1327.24H873.761V1365H865.44ZM901.72 1360.46C905.219 1363.91 910.04 1365.64 916.184 1365.64C922.285 1365.64 927.064 1363.91 930.52 1360.46C934.019 1357 935.768 1352.01 935.768 1345.48V1320.2H927.576V1345.16C927.576 1349.77 926.595 1353.12 924.632 1355.21C922.669 1357.3 919.875 1358.34 916.248 1358.34C912.621 1358.34 909.806 1357.3 907.8 1355.21C905.837 1353.12 904.856 1349.77 904.856 1345.16V1320.2H896.536V1345.48C896.536 1352.01 898.264 1357 901.72 1360.46ZM950.3 1365V1320.2H968.732C972.7 1320.2 976.092 1320.84 978.908 1322.12C981.767 1323.4 983.964 1325.23 985.5 1327.62C987.036 1330.01 987.804 1332.85 987.804 1336.14C987.804 1339.42 987.036 1342.26 985.5 1344.65C983.964 1346.99 981.767 1348.81 978.908 1350.09C978.708 1350.18 978.506 1350.26 978.3 1350.34L988.572 1365H979.612L970.485 1351.9C970.286 1351.91 970.086 1351.92 969.884 1351.93C969.506 1351.94 969.122 1351.94 968.732 1351.94H958.62V1365H950.3ZM968.348 1345.1H958.62V1327.24H968.348C972.018 1327.24 974.77 1328.01 976.604 1329.54C978.481 1331.08 979.42 1333.28 979.42 1336.14C979.42 1338.95 978.481 1341.15 976.604 1342.73C974.77 1344.31 972.018 1345.1 968.348 1345.1ZM1008.31 1345.67V1358.02H1033.59V1365H999.992V1320.2H1032.7V1327.18H1008.31V1338.82H1029.94V1345.67H1008.31ZM1066.32 1365V1320.2H1074.63V1365H1066.32ZM1153.33 1365V1320.2H1160.18L1184.88 1350.53V1320.2H1193.14V1365H1186.29L1161.59 1334.67V1365H1153.33ZM1219.35 1363.91C1222.29 1365.06 1225.52 1365.64 1229.01 1365.64C1232.47 1365.64 1235.65 1365.06 1238.55 1363.91C1241.49 1362.76 1244.05 1361.16 1246.23 1359.11C1248.41 1357.06 1250.09 1354.63 1251.29 1351.82C1252.48 1349 1253.08 1345.93 1253.08 1342.6C1253.08 1339.27 1252.48 1336.22 1251.29 1333.45C1250.09 1330.63 1248.41 1328.2 1246.23 1326.15C1244.05 1324.06 1241.49 1322.44 1238.55 1321.29C1235.65 1320.14 1232.45 1319.56 1228.95 1319.56C1225.49 1319.56 1222.29 1320.14 1219.35 1321.29C1216.41 1322.44 1213.85 1324.06 1211.67 1326.15C1209.49 1328.2 1207.81 1330.63 1206.61 1333.45C1205.42 1336.22 1204.82 1339.27 1204.82 1342.6C1204.82 1345.93 1205.42 1349 1206.61 1351.82C1207.81 1354.59 1209.49 1357.02 1211.67 1359.11C1213.85 1361.16 1216.41 1362.76 1219.35 1363.91ZM1235.22 1357.19C1233.3 1357.96 1231.21 1358.34 1228.95 1358.34C1226.69 1358.34 1224.6 1357.96 1222.68 1357.19C1220.76 1356.42 1219.09 1355.34 1217.69 1353.93C1216.28 1352.48 1215.17 1350.79 1214.36 1348.87C1214.14 1348.34 1213.96 1347.79 1213.81 1347.23C1213.66 1346.68 1213.53 1346.12 1213.44 1345.54C1213.28 1344.59 1213.21 1343.61 1213.21 1342.6C1213.21 1340.3 1213.59 1338.21 1214.36 1336.33C1215.17 1334.41 1216.28 1332.74 1217.69 1331.34C1219.14 1329.89 1220.8 1328.78 1222.68 1328.01C1224.6 1327.24 1226.69 1326.86 1228.95 1326.86C1231.21 1326.86 1233.3 1327.24 1235.22 1328.01C1237.14 1328.78 1238.81 1329.89 1240.21 1331.34C1241.62 1332.74 1242.71 1334.41 1243.48 1336.33C1244.29 1338.21 1244.69 1340.3 1244.69 1342.6C1244.69 1344.9 1244.29 1347.02 1243.48 1348.94C1242.71 1350.81 1241.62 1352.48 1240.21 1353.93C1238.81 1355.34 1237.14 1356.42 1235.22 1357.19ZM1259.11 1320.2H1267.75L1278.9 1354.28L1290.47 1320.2H1298.15L1309.46 1354.46L1320.94 1320.2H1328.88L1314.03 1365H1305.19L1294.11 1331.87L1282.86 1365H1273.96L1259.11 1320.2Z" fill="black"/>
</svg>
