<svg width="83" height="97" viewBox="0 0 83 97" fill="none" xmlns="http://www.w3.org/2000/svg">
<path d="M55.5993 0H27.9379V9.11002H55.5993V0ZM37.0662 59.9053H46.1944V32.2992H37.0662V59.9053ZM74.1324 29.5385L80.7711 22.9131C78.8348 20.4285 76.6219 18.22 74.1324 16.2876L67.4936 22.9131C60.3017 17.1158 51.4501 13.8031 41.492 13.8031C18.5331 13.8031 0 32.2992 0 55.2122C0 78.1253 18.5331 96.6214 41.492 96.6214C64.4509 96.6214 82.984 78.1253 82.984 55.2122C83.2606 45.5501 79.9412 36.4401 74.1324 29.5385ZM41.7686 87.5114C23.7887 87.5114 9.40485 73.1562 9.40485 55.2122C9.40485 37.2683 23.7887 22.9131 41.7686 22.9131C59.7485 22.9131 74.1324 37.2683 74.1324 55.2122C74.1324 73.1562 59.7485 87.5114 41.7686 87.5114Z" fill="white"/>
</svg>
