<svg width="106" height="106" viewBox="0 0 106 106" fill="none" xmlns="http://www.w3.org/2000/svg">
<g clip-path="url(#clip0_2470_45679)">
<path d="M70.2421 57.64L60.873 67.009L87.3563 93.4923L96.7254 84.1232L70.2421 57.64Z" fill="white"/>
<path d="M77.2921 44.1666C85.8162 44.1666 92.7504 37.2325 92.7504 28.7083C92.7504 26.1466 92.0437 23.7616 90.9396 21.6416L79.0146 33.5666L72.4337 26.9858L84.3587 15.0608C82.2387 13.9566 79.8537 13.25 77.2921 13.25C68.7679 13.25 61.8337 20.1841 61.8337 28.7083C61.8337 30.5191 62.1871 32.2416 62.7612 33.8316L54.5904 42.0025L46.7287 34.1408L49.8646 31.005L43.6371 24.7775L53.0004 15.4141C47.8329 10.2466 39.4412 10.2466 34.2737 15.4141L18.6387 31.0491L24.8662 37.2766H12.4112L9.27539 40.4125L24.9104 56.0475L28.0462 52.9116V40.4125L34.2737 46.64L37.4096 43.5041L45.2712 51.3658L12.5437 84.0933L21.9071 93.4566L72.1687 43.2391C73.7587 43.8133 75.4812 44.1666 77.2921 44.1666Z" fill="white"/>
</g>
<defs>
<clipPath id="clip0_2470_45679">
<rect width="106" height="106" fill="white"/>
</clipPath>
</defs>
</svg>
