<svg width="28" height="28" viewBox="0 0 28 28" fill="none" xmlns="http://www.w3.org/2000/svg">
<path d="M22.1663 6.99967C22.4758 6.99967 22.7725 6.87676 22.9913 6.65797C23.2101 6.43917 23.333 6.14243 23.333 5.83301C23.333 5.52359 23.2101 5.22684 22.9913 5.00805C22.7725 4.78926 22.4758 4.66634 22.1663 4.66634C21.8569 4.66634 21.5602 4.78926 21.3414 5.00805C21.1226 5.22684 20.9997 5.52359 20.9997 5.83301C20.9997 6.14243 21.1226 6.43917 21.3414 6.65797C21.5602 6.87676 21.8569 6.99967 22.1663 6.99967ZM22.1663 2.33301C23.0946 2.33301 23.9848 2.70176 24.6412 3.35813C25.2976 4.01451 25.6663 4.90475 25.6663 5.83301V12.833H20.9997V8.16634H6.99967V12.833H2.33301V5.83301C2.33301 4.90475 2.70176 4.01451 3.35813 3.35813C4.01451 2.70176 4.90475 2.33301 5.83301 2.33301H22.1663ZM20.9997 21.2913C20.9997 21.7347 20.7547 22.1197 20.3813 22.318L14.6647 25.4563C14.4663 25.5963 14.2447 25.6663 13.9997 25.6663C13.7547 25.6663 13.5213 25.5963 13.3347 25.4563L7.61801 22.318C7.43088 22.2198 7.27428 22.0722 7.16526 21.8912C7.05623 21.7101 6.99896 21.5027 6.99967 21.2913V15.1663C6.99967 14.723 7.24468 14.338 7.61801 14.1397L13.3347 11.293C13.5213 11.153 13.7547 11.083 13.9997 11.083C14.2447 11.083 14.4663 11.153 14.6647 11.293L20.3813 14.1397C20.7547 14.338 20.9997 14.723 20.9997 15.1663V21.2913ZM13.9997 13.5913L10.5463 15.1663L13.9997 17.033L17.453 15.1663L13.9997 13.5913ZM9.33301 20.603L12.833 22.5047V19.0513L9.33301 17.1613V20.603ZM18.6663 20.603V17.1613L15.1663 19.0513V22.5047L18.6663 20.603Z" fill="#A4A4A4"/>
</svg>
