<svg width="32" height="32" viewBox="0 0 32 32" fill="none" xmlns="http://www.w3.org/2000/svg">
<path d="M23.2821 9.00972C20.9421 8.88972 18.8621 9.88972 17.5021 11.5397C17.5021 11.5397 15.9721 13.5197 15.9721 13.5097C15.9721 13.5097 14.0421 16.0397 14.0521 16.0397L12.3921 18.2197L12.2621 18.3897C11.3121 19.6597 9.63206 20.3697 7.86206 19.8497C7.19933 19.6499 6.60132 19.2782 6.12884 18.7723C5.65635 18.2665 5.32624 17.6445 5.17206 16.9697C5.0342 16.3854 5.03016 15.7774 5.16025 15.1913C5.29034 14.6051 5.55119 14.056 5.92332 13.5848C6.29545 13.1136 6.76923 12.7326 7.30927 12.4703C7.84932 12.2079 8.44166 12.071 9.04206 12.0697C10.2521 12.0697 11.1521 12.5797 11.7721 13.1197C12.4321 13.6997 13.4421 13.6097 13.9821 12.9097C14.4521 12.2997 14.3921 11.4197 13.8321 10.8997C10.6721 7.99972 4.69206 8.65972 2.78206 12.6897C0.302058 17.9197 4.08206 23.0797 9.04206 23.0797C11.2221 23.0797 13.1721 22.1097 14.4621 20.5497L14.8921 19.9897C14.8921 19.9897 15.9821 18.5597 15.9821 18.5697C15.9821 18.5697 17.9121 16.0397 17.9021 16.0397L19.5921 13.8297L19.7121 13.6797C20.5821 12.4997 22.0821 11.8297 23.7321 12.1497C25.1921 12.4397 26.4021 13.5797 26.7621 15.0297C27.4221 17.6597 25.4421 20.0297 22.9121 20.0297C21.7221 20.0297 20.8221 19.5197 20.2021 18.9697C20.0455 18.8324 19.8624 18.7287 19.6641 18.6651C19.4658 18.6016 19.2565 18.5794 19.0493 18.6C18.8421 18.6206 18.6413 18.6836 18.4594 18.7851C18.2776 18.8865 18.1185 19.0242 17.9921 19.1897C17.5021 19.8297 17.5921 20.7197 18.1921 21.2597C19.1221 22.0897 20.7121 23.0997 22.9121 23.0997C27.1121 23.0997 30.4621 19.4097 29.8921 15.0997C29.4521 11.7797 26.6121 9.17972 23.2821 9.00972Z" fill="#A4A4A4"/>
</svg>
