<svg width="30" height="30" viewBox="0 0 30 30" fill="none" xmlns="http://www.w3.org/2000/svg">
<path d="M4.1416 2.39844C3.172 2.39844 2.38379 3.20604 2.38379 4.19844V8.39961H19.2201V4.19961C19.2201 3.20721 18.4325 2.39961 17.4623 2.39961L4.1416 2.39844ZM5.4002 4.19961C5.732 4.19961 6.0002 4.46841 6.0002 4.79961V6.59961C6.0002 6.93081 5.732 7.19961 5.4002 7.19961C5.0684 7.19961 4.8002 6.93081 4.8002 6.59961V4.79961C4.8002 4.46841 5.0684 4.19961 5.4002 4.19961ZM2.38379 9.59961V24.0008C2.38379 24.9932 3.17257 25.8008 4.14277 25.8008H4.8002V26.9996C4.8002 27.3308 5.0684 27.5996 5.4002 27.5996H7.8002C8.13199 27.5996 8.4002 27.3308 8.4002 26.9996V25.8008L13.2002 25.7996V13.7996C13.2002 12.4742 14.2748 11.3996 15.6002 11.3996H19.2201V9.59961H2.38379ZM5.4002 11.3996C5.732 11.3996 6.0002 11.6684 6.0002 11.9996V14.3996C6.0002 14.7308 5.732 14.9996 5.4002 14.9996C5.0684 14.9996 4.8002 14.7308 4.8002 14.3996V11.9996C4.8002 11.6684 5.0684 11.3996 5.4002 11.3996ZM16.2002 12.5996C15.2078 12.5996 14.4002 13.4072 14.4002 14.3996V25.7996C14.4002 26.792 15.2078 27.5996 16.2002 27.5996H25.8002C26.7926 27.5996 27.6002 26.792 27.6002 25.7996V14.3996C27.6002 13.4072 26.7926 12.5996 25.8002 12.5996H16.2002ZM22.8002 14.3996C23.1314 14.3996 23.4002 14.6684 23.4002 14.9996C23.4002 15.3308 23.1314 15.5996 22.8002 15.5996C22.469 15.5996 22.2002 15.3308 22.2002 14.9996C22.2002 14.6684 22.469 14.3996 22.8002 14.3996ZM25.2002 14.3996C25.5314 14.3996 25.8002 14.6684 25.8002 14.9996C25.8002 15.3308 25.5314 15.5996 25.2002 15.5996C24.869 15.5996 24.6002 15.3308 24.6002 14.9996C24.6002 14.6684 24.869 14.3996 25.2002 14.3996ZM21.0002 17.3996C22.9856 17.3996 24.6002 19.0142 24.6002 20.9996C24.6002 22.985 22.9856 24.5996 21.0002 24.5996C19.0148 24.5996 17.4002 22.985 17.4002 20.9996C17.4002 19.0142 19.0148 17.3996 21.0002 17.3996ZM21.0002 18.5996C20.3637 18.5996 19.7532 18.8525 19.3031 19.3026C18.8531 19.7526 18.6002 20.3631 18.6002 20.9996C18.6002 21.6361 18.8531 22.2466 19.3031 22.6967C19.7532 23.1468 20.3637 23.3996 21.0002 23.3996C21.6367 23.3996 22.2472 23.1468 22.6973 22.6967C23.1473 22.2466 23.4002 21.6361 23.4002 20.9996C23.4002 20.3631 23.1473 19.7526 22.6973 19.3026C22.2472 18.8525 21.6367 18.5996 21.0002 18.5996Z" fill="#A4A4A4"/>
</svg>
