<svg width="26" height="26" viewBox="0 0 26 26" fill="none" xmlns="http://www.w3.org/2000/svg">
<path d="M15.1667 10.8333C14.3047 10.8333 13.4781 11.1757 12.8686 11.7852C12.2591 12.3947 11.9167 13.2214 11.9167 14.0833C11.9167 14.9453 12.2591 15.7719 12.8686 16.3814C13.4781 16.9909 14.3047 17.3333 15.1667 17.3333C16.0286 17.3333 16.8553 16.9909 17.4648 16.3814C18.0743 15.7719 18.4167 14.9453 18.4167 14.0833C18.4167 13.2214 18.0743 12.3947 17.4648 11.7852C16.8553 11.1757 16.0286 10.8333 15.1667 10.8333ZM15.1667 19.5C13.7301 19.5 12.3523 18.9293 11.3365 17.9135C10.3207 16.8977 9.75 15.5199 9.75 14.0833C9.75 12.6467 10.3207 11.269 11.3365 10.2532C12.3523 9.23735 13.7301 8.66667 15.1667 8.66667C16.6033 8.66667 17.981 9.23735 18.9968 10.2532C20.0127 11.269 20.5833 12.6467 20.5833 14.0833C20.5833 15.5199 20.0127 16.8977 18.9968 17.9135C17.981 18.9293 16.6033 19.5 15.1667 19.5ZM15.1667 2.16667C15.7413 2.16667 16.2924 2.39494 16.6987 2.80127C17.1051 3.2076 17.3333 3.7587 17.3333 4.33333C17.3333 4.90797 17.1051 5.45907 16.6987 5.8654C16.2924 6.27173 15.7413 6.5 15.1667 6.5C14.592 6.5 14.0409 6.27173 13.6346 5.8654C13.2283 5.45907 13 4.90797 13 4.33333C13 3.7587 13.2283 3.2076 13.6346 2.80127C14.0409 2.39494 14.592 2.16667 15.1667 2.16667ZM20.5833 0H9.75C9.17536 0 8.62426 0.228273 8.21794 0.634602C7.81161 1.04093 7.58333 1.59203 7.58333 2.16667V19.5C7.58333 20.0746 7.81161 20.6257 8.21794 21.0321C8.62426 21.4384 9.17536 21.6667 9.75 21.6667H20.5833C21.158 21.6667 21.7091 21.4384 22.1154 21.0321C22.5217 20.6257 22.75 20.0746 22.75 19.5V2.16667C22.75 1.59203 22.5217 1.04093 22.1154 0.634602C21.7091 0.228273 21.158 0 20.5833 0ZM5.41667 23.8333H18.4167V26H5.41667C4.84203 26 4.29093 25.7717 3.8846 25.3654C3.47827 24.9591 3.25 24.408 3.25 23.8333V4.33333H5.41667" fill="#A4A4A4"/>
</svg>
