<svg width="20" height="20" viewBox="0 0 20 20" fill="none" xmlns="http://www.w3.org/2000/svg">
<path d="M7.55801 5.83301L4.99967 9.67134V16.6663H14.9997V5.83301H7.55801ZM6.66634 4.16634H15.833C16.054 4.16634 16.266 4.25414 16.4223 4.41042C16.5785 4.5667 16.6663 4.77866 16.6663 4.99967V17.4997C16.6663 17.7207 16.5785 17.9326 16.4223 18.0889C16.266 18.2452 16.054 18.333 15.833 18.333H4.16634C3.94533 18.333 3.73337 18.2452 3.57709 18.0889C3.42081 17.9326 3.33301 17.7207 3.33301 17.4997V9.16634L6.66634 4.16634ZM10.833 0.833008H14.9997C15.2207 0.833008 15.4327 0.920805 15.5889 1.07709C15.7452 1.23337 15.833 1.44533 15.833 1.66634V3.33301H9.99967V1.66634C9.99967 1.44533 10.0875 1.23337 10.2438 1.07709C10.4 0.920805 10.612 0.833008 10.833 0.833008ZM6.66634 9.99967H8.33301V14.9997H6.66634V9.99967Z" fill="white"/>
</svg>
