<svg width="24" height="24" viewBox="0 0 24 24" fill="none" xmlns="http://www.w3.org/2000/svg">
<path fill-rule="evenodd" clip-rule="evenodd" d="M18.9933 23.5001C18.0158 23.5001 16.9183 23.2889 15.7233 22.8814C14.5108 22.4564 13.3458 21.9051 12.2483 21.2364C11.1503 21.9093 9.98367 22.4632 8.76826 22.8889C7.57326 23.2964 6.47701 23.5001 5.50576 23.5001C4.12826 23.5001 2.99576 23.0926 2.20201 22.2976C0.837008 20.9339 0.627008 18.5989 1.61076 15.7226C2.03826 14.5101 2.59201 13.3464 3.26326 12.2501C2.59151 11.1533 2.0376 9.98846 1.61076 8.77513C0.627008 5.89388 0.837008 3.56638 2.20201 2.20138C3.56451 0.837629 5.89951 0.62638 8.77701 1.61138C9.91451 1.99888 11.082 2.56138 12.2495 3.26388C13.417 2.56013 14.5833 1.99763 15.7233 1.61138C18.5983 0.62638 20.9333 0.837629 22.2983 2.20138C23.6608 3.56638 23.8733 5.90138 22.8883 8.77638C22.4608 9.98888 21.907 11.1539 21.2358 12.2501C21.9395 13.4176 22.5008 14.5839 22.8883 15.7226C23.872 18.6064 23.662 20.9339 22.297 22.2976C21.5033 23.0926 20.3708 23.4926 18.9933 23.4926V23.5001ZM16.897 16.8901C15.4933 18.306 13.9342 19.5589 12.2495 20.6251C10.564 19.5634 9.00477 18.3133 7.60201 16.8989C6.12451 15.4214 4.85951 13.8376 3.87451 12.2501C4.85951 10.6539 6.12451 9.07138 7.60201 7.59513C9.07826 6.11888 10.6533 4.85263 12.2433 3.86763C13.8383 4.85263 15.4208 6.11763 16.897 7.59513C18.3745 9.07138 19.6395 10.6539 20.6245 12.2501C19.5619 13.9331 18.3114 15.4898 16.897 16.8901ZM17.2633 17.2639C15.8945 18.6437 14.3807 19.8716 12.7483 20.9264C13.7441 21.5208 14.7973 22.0133 15.892 22.3964C18.5633 23.3101 20.7158 23.1489 21.932 21.9326C23.1483 20.7151 23.3095 18.5701 22.3958 15.8851C22.0127 14.7905 21.5202 13.7372 20.9258 12.7414C19.8738 14.3777 18.6456 15.8951 17.2633 17.2639ZM7.23576 17.2626C5.85555 15.8915 4.62759 14.3752 3.57326 12.7401C2.97993 13.7387 2.4875 14.7939 2.10326 15.8901C1.18951 18.5626 1.35076 20.7151 2.56701 21.9314C3.78326 23.1476 5.92826 23.3089 8.60701 22.3939C9.63326 22.0439 10.6945 21.5514 11.7508 20.9251C10.1183 19.8704 8.60455 18.6424 7.23576 17.2626ZM7.23576 7.23513C5.85642 8.60399 4.62889 10.1178 3.57451 11.7501C2.98163 10.7539 2.48921 9.70123 2.10451 8.60763C1.19076 5.92888 1.35201 3.78388 2.56826 2.56013C3.27201 1.87138 4.26951 1.51263 5.50701 1.51263C6.42201 1.51263 7.46951 1.71013 8.60826 2.10388C9.702 2.48611 10.7551 2.97601 11.752 3.56638C10.1192 4.62351 8.60542 5.85398 7.23701 7.23638M17.2645 7.23638C15.8941 5.85363 14.3782 4.62314 12.7433 3.56638C13.7419 2.97305 14.7971 2.48062 15.8933 2.09638C16.8881 1.73482 17.9351 1.53765 18.9933 1.51263C20.2308 1.51263 21.237 1.86388 21.9333 2.56763C23.1495 3.78388 23.3108 5.92888 22.397 8.60763C22.0155 9.70252 21.5229 10.7555 20.927 11.7501C19.8741 10.1184 18.6483 8.6051 17.2708 7.23638H17.2645ZM6.62451 12.2489C12.1508 11.4551 12.1933 6.62388 12.1933 6.62388V6.68138C12.3072 8.13422 12.9471 9.49563 13.9929 10.5104C15.0388 11.5253 16.4189 12.1238 17.8745 12.1939V12.2501C12.3483 13.0439 12.3058 17.8751 12.3058 17.8751V17.8189C11.5045 12.3476 6.62451 12.3064 6.62451 12.3064V12.2489Z" fill="white"/>
</svg>
