<svg width="34" height="34" viewBox="0 0 34 34" fill="none" xmlns="http://www.w3.org/2000/svg">
<g clip-path="url(#clip0_1239_17543)">
<path d="M28.6874 15.9375C28.3937 15.9382 28.1006 15.9626 27.8108 16.0105L27.0379 13.9998C27.5789 13.8755 28.1323 13.8127 28.6874 13.8125C28.9692 13.8125 29.2394 13.7006 29.4387 13.5013C29.638 13.302 29.7499 13.0318 29.7499 12.75C29.7499 12.4682 29.638 12.198 29.4387 11.9987C29.2394 11.7994 28.9692 11.6875 28.6874 11.6875H26.148L24.367 7.05633C24.2899 6.85577 24.1538 6.68328 23.9767 6.56165C23.7996 6.44001 23.5898 6.37493 23.3749 6.375H19.1249C18.8431 6.375 18.5728 6.48694 18.3736 6.6862C18.1743 6.88546 18.0624 7.15571 18.0624 7.4375C18.0624 7.71929 18.1743 7.98954 18.3736 8.1888C18.5728 8.38806 18.8431 8.5 19.1249 8.5H22.6458L23.8716 11.6875H20.1874C17.7304 11.6875 15.7382 12.2599 14.4273 13.3423C14.1188 13.5912 13.7469 13.7488 13.3536 13.7974C12.9602 13.846 12.5611 13.7836 12.2014 13.6173C10.7962 12.9784 2.46755 9.61695 2.39981 9.59836C2.13513 9.52056 1.85055 9.54876 1.60629 9.67701C1.36202 9.80525 1.17721 10.0235 1.09096 10.2855C1.0047 10.5476 1.02375 10.8329 1.14409 11.0812C1.26442 11.3294 1.4766 11.5212 1.73575 11.6158C1.73575 11.6158 9.10684 14.5297 10.5718 15.9906C11.7098 17.1241 12.4479 18.5973 12.6742 20.1875H10.5186C10.2553 18.8976 9.52246 17.7514 8.46208 16.9711C7.4017 16.1908 6.08938 15.8321 4.77952 15.9644C3.46967 16.0967 2.25561 16.7107 1.37271 17.6873C0.489811 18.6639 0.000976562 19.9335 0.000976562 21.25C0.000976562 22.5665 0.489811 23.8361 1.37271 24.8127C2.25561 25.7893 3.46967 26.4033 4.77952 26.5356C6.08938 26.6679 7.4017 26.3092 8.46208 25.5289C9.52246 24.7486 10.2553 23.6024 10.5186 22.3125H17.4408C18.3624 22.3145 19.2595 22.0161 19.9962 21.4625C20.7329 20.9089 21.2691 20.1302 21.5235 19.2445C21.7885 18.3024 22.2369 17.4219 22.8429 16.6534C23.4489 15.8849 24.2006 15.2435 25.055 14.7661L25.8279 16.7755C24.751 17.4648 23.9589 18.5193 23.5968 19.7456C23.2347 20.9718 23.3271 22.2875 23.8568 23.4512C24.3866 24.6149 25.3183 25.5484 26.4809 26.0806C27.6435 26.6127 28.959 26.7077 30.186 26.3481C31.413 25.9885 32.4691 25.1984 33.1605 24.1229C33.852 23.0474 34.1323 21.7586 33.9501 20.4931C33.768 19.2275 33.1355 18.0701 32.1688 17.2333C31.2021 16.3965 29.966 15.9364 28.6874 15.9375ZM5.31239 22.3125H8.31661C8.06597 23.0214 7.57279 23.6189 6.92423 23.9994C6.27566 24.3798 5.51348 24.5187 4.77239 24.3916C4.03131 24.2644 3.35903 23.8794 2.87437 23.3045C2.38972 22.7296 2.12391 22.0019 2.12391 21.25C2.12391 20.4981 2.38972 19.7704 2.87437 19.1955C3.35903 18.6206 4.03131 18.2356 4.77239 18.1084C5.51348 17.9813 6.27566 18.1202 6.92423 18.5006C7.57279 18.8811 8.06597 19.4786 8.31661 20.1875H5.31239C5.0306 20.1875 4.76035 20.2994 4.56109 20.4987C4.36183 20.698 4.24989 20.9682 4.24989 21.25C4.24989 21.5318 4.36183 21.802 4.56109 22.0013C4.76035 22.2006 5.0306 22.3125 5.31239 22.3125ZM28.6874 24.4375C28.0363 24.4367 27.4011 24.2365 26.8672 23.8639C26.3332 23.4913 25.9262 22.9641 25.7009 22.3533C25.4755 21.7424 25.4426 21.0772 25.6066 20.4472C25.7706 19.8171 26.1236 19.2523 26.6182 18.8288L27.6953 21.6312C27.7964 21.8943 27.9979 22.1065 28.2554 22.2211C28.5129 22.3356 28.8054 22.3432 29.0686 22.2421C29.3317 22.141 29.5439 21.9395 29.6584 21.682C29.773 21.4245 29.7806 21.132 29.6795 20.8688L28.6011 18.0625H28.6874C29.5328 18.0625 30.3435 18.3983 30.9413 18.9961C31.5391 19.5939 31.8749 20.4046 31.8749 21.25C31.8749 22.0954 31.5391 22.9061 30.9413 23.5039C30.3435 24.1017 29.5328 24.4375 28.6874 24.4375Z" fill="#A4A4A4"/>
</g>
<defs>
<clipPath id="clip0_1239_17543">
<rect width="34" height="34" fill="white"/>
</clipPath>
</defs>
</svg>
