<svg width="34" height="36" viewBox="0 0 34 36" fill="none" xmlns="http://www.w3.org/2000/svg">
<path fill-rule="evenodd" clip-rule="evenodd" d="M22.3621 13.5313L20.74 16.8406L22.5399 20.3731C23.595 19.8356 24.8076 19.6935 25.9584 19.9724C27.1092 20.2514 28.1222 20.933 28.8141 21.8939C29.5061 22.8548 29.8313 24.0316 29.7309 25.2115C29.6305 26.3913 29.1112 27.4963 28.2669 28.3266C27.4226 29.1568 26.3091 29.6575 25.1277 29.7381C23.9463 29.8186 22.7751 29.4738 21.826 28.7658C20.8768 28.0579 20.2123 27.0336 19.9527 25.8783C19.6931 24.723 19.8555 23.5129 20.4106 22.4669L17 20.6571L13.5894 22.4669C14.1444 23.5129 14.3069 24.723 14.0473 25.8783C13.7877 27.0336 13.1232 28.0579 12.174 28.7658C11.2248 29.4738 10.0536 29.8186 8.87224 29.7381C7.69086 29.6575 6.57731 29.1568 5.73302 28.3266C4.88872 27.4963 4.36943 26.3913 4.26907 25.2115C4.16871 24.0316 4.49391 22.8548 5.18584 21.8939C5.87777 20.933 6.89075 20.2514 8.04155 19.9724C9.19235 19.6935 10.405 19.8356 11.4601 20.3731L13.26 16.8413L11.6379 13.5313C10.6062 14.1108 9.40128 14.3022 8.24078 14.071C7.08029 13.8397 6.04076 13.2011 5.30996 12.2705C4.57916 11.3398 4.20529 10.1784 4.25589 8.99623C4.30648 7.814 4.7782 6.68885 5.58584 5.82403C6.39348 4.9592 7.48378 4.41172 8.65978 4.28048C9.83578 4.14925 11.0199 4.44291 11.9984 5.10843C12.9768 5.77395 13.6849 6.76743 13.9949 7.90942C14.3048 9.0514 14.1962 10.2666 13.6885 11.3355L17 13.0248L20.3114 11.3355C19.8038 10.2666 19.6951 9.0514 20.0051 7.90942C20.315 6.76743 21.0232 5.77395 22.0016 5.10843C22.98 4.44291 24.1642 4.14925 25.3402 4.28048C26.5162 4.41172 27.6065 4.9592 28.4141 5.82403C29.2218 6.68885 29.6935 7.814 29.7441 8.99623C29.7947 10.1784 29.4208 11.3398 28.69 12.2705C27.9592 13.2011 26.9197 13.8397 25.7592 14.071C24.5987 14.3022 23.3938 14.1108 22.3621 13.5313ZM28.3333 9.20833C28.3334 9.83342 28.1681 10.4474 27.8541 10.9879C27.5402 11.5284 27.0887 11.9762 26.5457 12.2858C26.0026 12.5954 25.3873 12.7557 24.7623 12.7505C24.1372 12.7454 23.5246 12.5748 22.9868 12.2563L24.0089 10.1695C24.242 10.3591 24.5359 10.4576 24.8361 10.4467C25.1362 10.4358 25.4223 10.3163 25.6409 10.1104C25.8596 9.90443 25.9961 9.62611 26.025 9.32713C26.0539 9.02814 25.9732 8.72884 25.798 8.48486C25.6228 8.24088 25.3649 8.06881 25.0724 8.00066C24.7799 7.9325 24.4725 7.97288 24.2075 8.1143C23.9425 8.25572 23.7379 8.48856 23.6317 8.76952C23.5254 9.05048 23.5248 9.36046 23.63 9.64183L21.5744 10.6909C21.3531 10.21 21.2423 9.68558 21.2504 9.15626C21.2584 8.62694 21.385 8.10615 21.6209 7.63221C21.8567 7.15826 22.1958 6.74322 22.6133 6.41761C23.0307 6.09199 23.5157 5.8641 24.0328 5.75067C24.5499 5.63725 25.0859 5.64119 25.6012 5.7622C26.1166 5.88322 26.5983 6.11822 27.0109 6.44994C27.4234 6.78165 27.7564 7.20163 27.9853 7.67899C28.2141 8.15635 28.333 8.67895 28.3333 9.20833ZM12.4256 10.6909C12.78 9.9217 12.8471 9.05098 12.6147 8.23659C12.3822 7.4222 11.8657 6.71806 11.1586 6.25184C10.4516 5.78563 9.6009 5.58822 8.76079 5.6954C7.92069 5.80258 7.14681 6.20726 6.57947 6.83605C6.01213 7.46485 5.68889 8.27613 5.66838 9.1228C5.64786 9.96946 5.93142 10.7954 6.46764 11.451C7.00386 12.1065 7.75724 12.5482 8.59117 12.6959C9.42509 12.8437 10.2844 12.6877 11.0131 12.2563L9.99102 10.1695C9.758 10.3591 9.46408 10.4576 9.1639 10.4467C8.86372 10.4358 8.57771 10.3163 8.35903 10.1104C8.14035 9.90443 8.00388 9.62611 7.97499 9.32713C7.9461 9.02814 8.02676 8.72884 8.20197 8.48486C8.37717 8.24088 8.63501 8.06881 8.92755 8.00066C9.2201 7.9325 9.52743 7.97288 9.79243 8.1143C10.0574 8.25572 10.2621 8.48856 10.3683 8.76952C10.4745 9.05048 10.4751 9.36046 10.37 9.64183L12.4256 10.6909ZM10.8169 21.6353C10.0633 21.2513 9.1972 21.1497 8.37518 21.3488C7.55316 21.5479 6.82954 22.0347 6.3352 22.721C5.84087 23.4072 5.60845 24.2478 5.68 25.0905C5.75155 25.9333 6.12234 26.7226 6.7253 27.3158C7.32826 27.9089 8.12358 28.2667 8.9674 28.3244C9.81123 28.382 10.6478 28.1359 11.3259 27.6303C12.004 27.1248 12.4787 26.3932 12.6643 25.5681C12.8499 24.7429 12.7341 23.8785 12.3377 23.1313L10.3034 24.2108C10.4419 24.4725 10.4821 24.775 10.4169 25.0638C10.3517 25.3525 10.1853 25.6084 9.94786 25.7851C9.71038 25.9619 9.4175 26.0478 9.12219 26.0273C8.82688 26.0069 8.54863 25.8814 8.33777 25.6737C8.12692 25.4659 7.99738 25.1895 7.97258 24.8945C7.94778 24.5996 8.02936 24.3054 8.20257 24.0654C8.37577 23.8253 8.62917 23.6552 8.91692 23.5857C9.20468 23.5163 9.50779 23.5521 9.77144 23.6867L10.8169 21.6353ZM21.6622 23.1313C21.2659 23.8785 21.15 24.7429 21.3356 25.5681C21.5212 26.3932 21.996 27.1248 22.6741 27.6303C23.3521 28.1359 24.1887 28.382 25.0326 28.3244C25.8764 28.2667 26.6717 27.9089 27.2747 27.3158C27.8776 26.7226 28.2484 25.9333 28.32 25.0905C28.3915 24.2478 28.1591 23.4072 27.6648 22.721C27.1704 22.0347 26.4468 21.5479 25.6248 21.3488C24.8028 21.1497 23.9366 21.2513 23.183 21.6353L24.2285 23.6867C24.4922 23.5521 24.7953 23.5163 25.083 23.5857C25.3708 23.6552 25.6242 23.8253 25.7974 24.0654C25.9706 24.3054 26.0522 24.5996 26.0274 24.8945C26.0026 25.1895 25.873 25.4659 25.6622 25.6737C25.4513 25.8814 25.1731 26.0069 24.8778 26.0273C24.5825 26.0478 24.2896 25.9619 24.0521 25.7851C23.8146 25.6084 23.6482 25.3525 23.583 25.0638C23.5178 24.775 23.5581 24.4725 23.6966 24.2108L21.6622 23.1313Z" fill="#A4A4A4"/>
<rect width="24" height="24" transform="translate(4 12)" fill="#A4A4A4"/>
<path d="M10 18L13.5 21.5M22 30L18.5 26.5M22 18L18.5 21.5M10 30L13.5 26.5" stroke="white" stroke-width="2" stroke-linecap="round" stroke-linejoin="round"/>
<path d="M13.5 21.5H18.5V26.5H13.5V21.5Z" fill="white" stroke="white" stroke-width="2" stroke-linecap="round" stroke-linejoin="round"/>
<path d="M22 21.5C22.6922 21.5 23.3689 21.2947 23.9445 20.9101C24.5201 20.5256 24.9687 19.9789 25.2336 19.3394C25.4985 18.6999 25.5678 17.9961 25.4328 17.3172C25.2977 16.6383 24.9644 16.0146 24.4749 15.5251C23.9854 15.0356 23.3618 14.7023 22.6828 14.5673C22.0039 14.4322 21.3002 14.5015 20.6606 14.7664C20.0211 15.0313 19.4744 15.4799 19.0899 16.0555C18.7053 16.6311 18.5 17.3078 18.5 18M22 26.5C22.6922 26.5 23.3689 26.7053 23.9445 27.0899C24.5201 27.4744 24.9687 28.0211 25.2336 28.6606C25.4985 29.3002 25.5678 30.0039 25.4328 30.6828C25.2977 31.3618 24.9644 31.9854 24.4749 32.4749C23.9854 32.9644 23.3618 33.2977 22.6828 33.4328C22.0039 33.5678 21.3002 33.4985 20.6606 33.2336C20.0211 32.9687 19.4744 32.5201 19.0899 31.9445C18.7053 31.3689 18.5 30.6922 18.5 30M10 26.5C9.30777 26.5 8.63108 26.7053 8.05551 27.0899C7.47993 27.4744 7.03133 28.0211 6.76642 28.6606C6.50152 29.3002 6.4322 30.0039 6.56725 30.6828C6.7023 31.3618 7.03564 31.9854 7.52513 32.4749C8.01461 32.9644 8.63825 33.2977 9.31719 33.4328C9.99612 33.5678 10.6999 33.4985 11.3394 33.2336C11.9789 32.9687 12.5256 32.5201 12.9101 31.9445C13.2947 31.3689 13.5 30.6922 13.5 30M10 21.5C9.30777 21.5 8.63108 21.2947 8.05551 20.9101C7.47993 20.5256 7.03133 19.9789 6.76642 19.3394C6.50152 18.6999 6.4322 17.9961 6.56725 17.3172C6.7023 16.6383 7.03564 16.0146 7.52513 15.5251C8.01461 15.0356 8.63825 14.7023 9.31719 14.5673C9.99612 14.4322 10.6999 14.5015 11.3394 14.7664C11.9789 15.0313 12.5256 15.4799 12.9101 16.0555C13.2947 16.6311 13.5 17.3078 13.5 18" stroke="white" stroke-width="2" stroke-linecap="round" stroke-linejoin="round"/>
</svg>
