<svg width="34" height="34" viewBox="0 0 34 34" fill="none" xmlns="http://www.w3.org/2000/svg">
<path d="M7.97915 27.6254C7.46247 27.626 6.94798 27.5581 6.44915 27.4235C4.95199 26.9965 3.6818 25.9998 2.91109 24.6471C2.14039 23.2944 1.93057 21.6935 2.32665 20.1879L4.80227 10.7954C4.99507 10.0352 5.33782 9.32127 5.81039 8.69543C6.28296 8.0696 6.87582 7.5445 7.55415 7.15099C8.21463 6.76843 8.94445 6.52074 9.70134 6.42225C10.4582 6.32377 11.2271 6.37645 11.9635 6.57724C12.7463 6.79461 13.4754 7.17224 14.1046 7.68619C14.7338 8.20014 15.2493 8.8392 15.6185 9.56286H18.381C18.7492 8.83843 19.2644 8.19875 19.8937 7.68467C20.5231 7.17059 21.2527 6.79342 22.036 6.57724C22.7724 6.37645 23.5413 6.32377 24.2982 6.42225C25.0551 6.52074 25.7849 6.76843 26.4454 7.15099C27.1204 7.5435 27.7111 8.06571 28.1834 8.68754C28.6557 9.30937 29.0003 10.0185 29.1973 10.7741L31.6729 20.1879C32.0749 21.6979 31.8667 23.3054 31.0934 24.6632C30.3201 26.0211 29.0436 27.0202 27.5398 27.4447C26.8034 27.6455 26.0345 27.6982 25.2776 27.5997C24.5207 27.5012 23.7909 27.2535 23.1304 26.871C22.4543 26.4799 21.8627 25.9581 21.3903 25.3361C20.9178 24.714 20.5739 24.0042 20.3785 23.2479L20.1873 22.3129H13.8123L13.5679 23.2266C13.3726 23.9829 13.0286 24.6928 12.5562 25.3148C12.0837 25.9368 11.4922 26.4586 10.816 26.8497C9.95272 27.3477 8.9757 27.6148 7.97915 27.6254ZM10.4442 8.50036C9.80304 8.50302 9.1735 8.67139 8.61665 8.98911C7.74418 9.50101 7.11001 10.3377 6.8529 11.316L4.37727 20.7085C4.11822 21.6762 4.24912 22.7068 4.74184 23.579C5.23455 24.4512 6.04976 25.0953 7.01228 25.3729C7.47712 25.4997 7.9625 25.533 8.44033 25.471C8.91815 25.409 9.37894 25.2529 9.79603 25.0116C10.2303 24.7609 10.61 24.4259 10.9129 24.0263C11.2158 23.6267 11.4357 23.1706 11.5598 22.6847L12.2185 20.1879H21.781L22.4292 22.6847C22.5554 23.1696 22.7762 23.6248 23.0789 24.0241C23.3815 24.4235 23.7601 24.759 24.1929 25.0116C24.612 25.2526 25.0746 25.4086 25.5541 25.4706C26.0336 25.5326 26.5206 25.4994 26.9873 25.3729C27.9509 25.0979 28.7672 24.4537 29.2586 23.5803C29.75 22.7069 29.8769 21.6749 29.6117 20.7085L27.136 11.316C27.0127 10.8313 26.7942 10.3759 26.4932 9.97646C26.1922 9.57698 25.8148 9.24136 25.3829 8.98911C24.9638 8.7481 24.5012 8.59214 24.0217 8.53015C23.5422 8.46816 23.0552 8.50136 22.5885 8.62786C22.0114 8.79237 21.4819 9.09219 21.0439 9.50243C20.606 9.91267 20.2722 10.4215 20.0704 10.9866L19.8154 11.6879H14.1842L13.9292 10.9866C13.7255 10.4207 13.3899 9.91156 12.9501 9.50134C12.5103 9.09112 11.9791 8.79168 11.4004 8.62786C11.0885 8.54402 10.7671 8.50116 10.4442 8.50036Z" fill="#A4A4A4"/>
<path d="M10.625 17C10.2047 17 9.79387 16.8754 9.44441 16.6419C9.09496 16.4084 8.82259 16.0765 8.66176 15.6882C8.50092 15.2999 8.45884 14.8726 8.54083 14.4604C8.62283 14.0482 8.82521 13.6696 9.1224 13.3724C9.41959 13.0752 9.79822 12.8728 10.2104 12.7908C10.6226 12.7088 11.0499 12.7509 11.4382 12.9118C11.8265 13.0726 12.1584 13.345 12.3919 13.6944C12.6254 14.0439 12.75 14.4547 12.75 14.875C12.75 15.4386 12.5261 15.9791 12.1276 16.3776C11.7291 16.7761 11.1886 17 10.625 17Z" fill="#A4A4A4"/>
<path d="M23.375 13.8125C23.9618 13.8125 24.4375 13.3368 24.4375 12.75C24.4375 12.1632 23.9618 11.6875 23.375 11.6875C22.7882 11.6875 22.3125 12.1632 22.3125 12.75C22.3125 13.3368 22.7882 13.8125 23.375 13.8125Z" fill="#A4A4A4"/>
<path d="M23.375 18.0625C23.9618 18.0625 24.4375 17.5868 24.4375 17C24.4375 16.4132 23.9618 15.9375 23.375 15.9375C22.7882 15.9375 22.3125 16.4132 22.3125 17C22.3125 17.5868 22.7882 18.0625 23.375 18.0625Z" fill="#A4A4A4"/>
<path d="M21.25 15.9375C21.8368 15.9375 22.3125 15.4618 22.3125 14.875C22.3125 14.2882 21.8368 13.8125 21.25 13.8125C20.6632 13.8125 20.1875 14.2882 20.1875 14.875C20.1875 15.4618 20.6632 15.9375 21.25 15.9375Z" fill="#A4A4A4"/>
<path d="M25.5 15.9375C26.0868 15.9375 26.5625 15.4618 26.5625 14.875C26.5625 14.2882 26.0868 13.8125 25.5 13.8125C24.9132 13.8125 24.4375 14.2882 24.4375 14.875C24.4375 15.4618 24.9132 15.9375 25.5 15.9375Z" fill="#A4A4A4"/>
</svg>
