<svg width="33" height="33" viewBox="0 0 33 33" fill="none" xmlns="http://www.w3.org/2000/svg">
<g clip-path="url(#clip0_1260_17727)">
<path d="M27.5 5.5H5.5C4.77065 5.5 4.07118 5.78973 3.55546 6.30546C3.03973 6.82118 2.75 7.52065 2.75 8.25V24.75C2.75 25.4793 3.03973 26.1788 3.55546 26.6945C4.07118 27.2103 4.77065 27.5 5.5 27.5H27.5C28.2293 27.5 28.9288 27.2103 29.4445 26.6945C29.9603 26.1788 30.25 25.4793 30.25 24.75V8.25C30.25 7.52065 29.9603 6.82118 29.4445 6.30546C28.9288 5.78973 28.2293 5.5 27.5 5.5ZM13.75 24.75C12.1183 24.75 10.5233 24.2661 9.16655 23.3596C7.80984 22.4531 6.75242 21.1646 6.12799 19.6571C5.50357 18.1496 5.34019 16.4908 5.65852 14.8905C5.97685 13.2902 6.76259 11.8202 7.91637 10.6664C9.07015 9.51259 10.5402 8.72685 12.1405 8.40852C13.7408 8.09019 15.3996 8.25357 16.9071 8.87799C18.4146 9.50242 19.7031 10.5598 20.6096 11.9165C21.5161 13.2733 22 14.8683 22 16.5C22 18.688 21.1308 20.7865 19.5836 22.3336C18.0365 23.8808 15.938 24.75 13.75 24.75ZM26.125 11C25.8531 11 25.5872 10.9194 25.3611 10.7683C25.135 10.6172 24.9587 10.4024 24.8547 10.1512C24.7506 9.89994 24.7234 9.62347 24.7764 9.35675C24.8295 9.09003 24.9604 8.84503 25.1527 8.65273C25.345 8.46043 25.59 8.32947 25.8567 8.27642C26.1235 8.22337 26.3999 8.2506 26.6512 8.35467C26.9024 8.45874 27.1172 8.63497 27.2683 8.86109C27.4194 9.08721 27.5 9.35305 27.5 9.625C27.5 9.98967 27.3551 10.3394 27.0973 10.5973C26.8394 10.8551 26.4897 11 26.125 11ZM20.625 16.8438C20.625 19.9375 18.1637 20.0062 17.3525 18.37C17.172 18.0681 16.9222 17.8136 16.6238 17.6275C16.3304 17.4344 15.9962 17.312 15.6475 17.27C15.4984 17.5912 15.2828 17.8771 15.015 18.1088C16.39 20.6525 15.84 23.375 13.3787 23.375C10.3125 23.375 10.2438 20.9137 11.8663 20.1025C12.1644 19.9231 12.4183 19.6787 12.6088 19.3875C12.8002 19.0971 12.9269 18.7688 12.98 18.425C12.6438 18.2884 12.3463 18.0712 12.1138 17.7925C9.625 19.1537 6.875 18.6037 6.875 16.1562C6.875 13.0625 9.30875 12.98 10.12 14.6163C10.2964 14.9212 10.5471 15.1766 10.8487 15.3588C11.1442 15.5502 11.477 15.6767 11.825 15.73C11.9584 15.3958 12.1764 15.1021 12.4575 14.8775C11.0825 12.375 11.6325 9.625 14.08 9.625C17.1737 9.625 17.2425 12.0725 15.6063 12.8975C15.305 13.0728 15.0503 13.3181 14.8638 13.6125C14.6706 13.9059 14.5482 14.24 14.5063 14.5887C14.8288 14.7292 15.1155 14.9408 15.345 15.2075C17.875 13.8325 20.625 14.3825 20.625 16.8438Z" fill="#A4A4A4"/>
</g>
<defs>
<clipPath id="clip0_1260_17727">
<rect width="33" height="33" fill="white"/>
</clipPath>
</defs>
</svg>
