<svg width="45" height="45" viewBox="0 0 45 45" fill="none" xmlns="http://www.w3.org/2000/svg">
<path d="M36.3125 37.75V41H8.6875V37.75H36.3125ZM7.27734 36.8125C7.37493 37.2675 7.73248 37.6251 8.1875 37.7227V40.9922C5.93582 40.8671 4.13289 39.0642 4.00781 36.8125H7.27734ZM40.9922 36.8125C40.8671 39.0642 39.0642 40.8671 36.8125 40.9922V37.7227C37.2675 37.6251 37.6251 37.2675 37.7227 36.8125H40.9922ZM41 22.75V36.3125H37.75V22.75H41ZM7.25 8.6875V36.3125H4V8.6875H7.25ZM39.375 20.875C40.1873 20.875 40.8581 21.4714 40.9785 22.25H37.7715C37.8919 21.4714 38.5627 20.875 39.375 20.875ZM8.1875 7.27637C7.73238 7.37389 7.37494 7.73241 7.27734 8.1875H4.00781C4.13289 5.93581 5.93581 4.13188 8.1875 4.00684V7.27637ZM22.25 4V7.25H8.6875V4H22.25ZM22.75 4.02148C23.5286 4.14188 24.125 4.81267 24.125 5.625C24.125 6.43728 23.5285 7.10708 22.75 7.22754V4.02148Z" fill="#909090" stroke="#909090" stroke-width="0.5"/>
<path d="M5.625 32.8126L15.6498 23.6232C16.349 22.9823 17.4168 22.9644 18.137 23.5818L30 33.7501" stroke="#909090" stroke-width="2" stroke-linecap="round" stroke-linejoin="round"/>
<path d="M26.25 29.0624L30.7252 24.5872C31.3849 23.9275 32.4294 23.8532 33.176 24.4131L39.375 29.0624" stroke="#909090" stroke-width="2" stroke-linecap="round" stroke-linejoin="round"/>
<path d="M34.6875 16.875V5.625" stroke="#909090" stroke-width="2" stroke-linecap="round" stroke-linejoin="round"/>
<path d="M30 10.3125L34.6875 5.625L39.375 10.3125" stroke="#909090" stroke-width="2" stroke-linecap="round" stroke-linejoin="round"/>
</svg>
