<svg width="24" height="24" viewBox="0 0 24 24" fill="none" xmlns="http://www.w3.org/2000/svg">
<path d="M8.28764 4.53756C8.77515 4.04999 9.35393 3.66323 9.99092 3.39936C10.6279 3.13549 11.3107 2.99968 12.0001 2.99968C12.6896 2.99968 13.3724 3.13549 14.0093 3.39936C14.6463 3.66323 15.2251 4.04999 15.7126 4.53756C15.7818 4.60919 15.8646 4.66633 15.9561 4.70563C16.0476 4.74494 16.146 4.76563 16.2456 4.7665C16.3452 4.76736 16.4439 4.74839 16.5361 4.71068C16.6283 4.67296 16.712 4.61727 16.7824 4.54685C16.8529 4.47644 16.9085 4.3927 16.9463 4.30052C16.984 4.20835 17.0029 4.10959 17.0021 4.01001C17.0012 3.91042 16.9805 3.81201 16.9412 3.72051C16.9019 3.629 16.8448 3.54624 16.7731 3.47706C16.1463 2.85025 15.4022 2.35305 14.5833 2.01382C13.7643 1.6746 12.8866 1.5 12.0001 1.5C11.1137 1.5 10.236 1.6746 9.417 2.01382C8.59805 2.35305 7.85393 2.85025 7.22714 3.47706C7.09052 3.61851 7.01492 3.80796 7.01663 4.00461C7.01834 4.20126 7.09722 4.38937 7.23627 4.52842C7.37533 4.66748 7.56344 4.74636 7.76008 4.74806C7.95673 4.74977 8.14618 4.67418 8.28764 4.53756Z" fill="#A4A4A4"/>
<path d="M10.4102 6.65972C10.8321 6.23837 11.404 6.0017 12.0002 6.0017C12.5965 6.0017 13.1684 6.23837 13.5902 6.65972C13.7311 6.80055 13.9221 6.87967 14.1212 6.87967C14.3204 6.87967 14.5114 6.80055 14.6522 6.65972C14.7931 6.51889 14.8722 6.32789 14.8722 6.12872C14.8722 5.92956 14.7931 5.73855 14.6522 5.59772C14.304 5.2494 13.8906 4.97309 13.4355 4.78457C12.9805 4.59605 12.4928 4.49902 12.0002 4.49902C11.5077 4.49902 11.02 4.59605 10.5649 4.78457C10.1099 4.97309 9.69646 5.2494 9.34823 5.59772C9.21161 5.73917 9.13601 5.92863 9.13772 6.12527C9.13943 6.32192 9.21831 6.51003 9.35737 6.64909C9.49642 6.78814 9.68453 6.86702 9.88118 6.86873C10.0778 6.87044 10.2673 6.79484 10.4087 6.65822L10.4102 6.65972Z" fill="#A4A4A4"/>
<path d="M4.461 3.51266C4.43275 3.4158 4.38525 3.32565 4.32135 3.24758C4.25744 3.16951 4.17844 3.10514 4.08908 3.05832C3.99972 3.0115 3.90182 2.98319 3.80126 2.97508C3.7007 2.96697 3.59954 2.97924 3.50383 3.01114C3.40812 3.04305 3.31983 3.09393 3.24424 3.16075C3.16866 3.22758 3.10733 3.30896 3.06394 3.40004C3.02054 3.49111 2.99596 3.59001 2.99168 3.69081C2.98739 3.7916 3.00349 3.89223 3.039 3.98666L5.709 11.9997H2.25C1.65326 11.9997 1.08097 12.2367 0.65901 12.6587C0.237053 13.0806 0 13.6529 0 14.2497L0 17.2497C0 17.8464 0.237053 18.4187 0.65901 18.8406C1.08097 19.2626 1.65326 19.4997 2.25 19.4997H3C3 19.6986 3.07902 19.8893 3.21967 20.03C3.36032 20.1706 3.55109 20.2497 3.75 20.2497H6.75C6.94891 20.2497 7.13968 20.1706 7.28033 20.03C7.42098 19.8893 7.5 19.6986 7.5 19.4997H16.5C16.5 19.6986 16.579 19.8893 16.7197 20.03C16.8603 20.1706 17.0511 20.2497 17.25 20.2497H20.25C20.4489 20.2497 20.6397 20.1706 20.7803 20.03C20.921 19.8893 21 19.6986 21 19.4997H21.75C22.3467 19.4997 22.919 19.2626 23.341 18.8406C23.7629 18.4187 24 17.8464 24 17.2497V14.2497C24 13.6529 23.7629 13.0806 23.341 12.6587C22.919 12.2367 22.3467 11.9997 21.75 11.9997H18.291L20.961 3.98666C20.9965 3.89223 21.0126 3.7916 21.0083 3.69081C21.004 3.59001 20.9795 3.49111 20.9361 3.40004C20.8927 3.30896 20.8313 3.22758 20.7558 3.16075C20.6802 3.09393 20.5919 3.04305 20.4962 3.01114C20.4005 2.97924 20.2993 2.96697 20.1987 2.97508C20.0982 2.98319 20.0003 3.0115 19.9109 3.05832C19.8216 3.10514 19.7426 3.16951 19.6787 3.24758C19.6147 3.32565 19.5672 3.4158 19.539 3.51266L16.71 11.9997H7.29L4.461 3.51266ZM3.75 16.4997C3.55109 16.4997 3.36032 16.4206 3.21967 16.28C3.07902 16.1393 3 15.9486 3 15.7497C3 15.5507 3.07902 15.36 3.21967 15.2193C3.36032 15.0787 3.55109 14.9997 3.75 14.9997C3.94891 14.9997 4.13968 15.0787 4.28033 15.2193C4.42098 15.36 4.5 15.5507 4.5 15.7497C4.5 15.9486 4.42098 16.1393 4.28033 16.28C4.13968 16.4206 3.94891 16.4997 3.75 16.4997ZM10.5 15.7497C10.5 15.5507 10.579 15.36 10.7197 15.2193C10.8603 15.0787 11.0511 14.9997 11.25 14.9997C11.4489 14.9997 11.6397 15.0787 11.7803 15.2193C11.921 15.36 12 15.5507 12 15.7497C12 15.9486 11.921 16.1393 11.7803 16.28C11.6397 16.4206 11.4489 16.4997 11.25 16.4997C11.0511 16.4997 10.8603 16.4206 10.7197 16.28C10.579 16.1393 10.5 15.9486 10.5 15.7497ZM14.25 16.4997C14.0511 16.4997 13.8603 16.4206 13.7197 16.28C13.579 16.1393 13.5 15.9486 13.5 15.7497C13.5 15.5507 13.579 15.36 13.7197 15.2193C13.8603 15.0787 14.0511 14.9997 14.25 14.9997C14.4489 14.9997 14.6397 15.0787 14.7803 15.2193C14.921 15.36 15 15.5507 15 15.7497C15 15.9486 14.921 16.1393 14.7803 16.28C14.6397 16.4206 14.4489 16.4997 14.25 16.4997ZM16.5 15.7497C16.5 15.5507 16.579 15.36 16.7197 15.2193C16.8603 15.0787 17.0511 14.9997 17.25 14.9997C17.4489 14.9997 17.6397 15.0787 17.7803 15.2193C17.921 15.36 18 15.5507 18 15.7497C18 15.9486 17.921 16.1393 17.7803 16.28C17.6397 16.4206 17.4489 16.4997 17.25 16.4997C17.0511 16.4997 16.8603 16.4206 16.7197 16.28C16.579 16.1393 16.5 15.9486 16.5 15.7497ZM19.5 15.7497C19.5 15.5507 19.579 15.36 19.7197 15.2193C19.8603 15.0787 20.0511 14.9997 20.25 14.9997C20.4489 14.9997 20.6397 15.0787 20.7803 15.2193C20.921 15.36 21 15.5507 21 15.7497C21 15.9486 20.921 16.1393 20.7803 16.28C20.6397 16.4206 20.4489 16.4997 20.25 16.4997C20.0511 16.4997 19.8603 16.4206 19.7197 16.28C19.579 16.1393 19.5 15.9486 19.5 15.7497Z" fill="#A4A4A4"/>
<path d="M12.75 8.25C12.75 8.44891 12.671 8.63968 12.5303 8.78033C12.3897 8.92098 12.1989 9 12 9C11.8011 9 11.6103 8.92098 11.4697 8.78033C11.329 8.63968 11.25 8.44891 11.25 8.25C11.25 8.05109 11.329 7.86032 11.4697 7.71967C11.6103 7.57902 11.8011 7.5 12 7.5C12.1989 7.5 12.3897 7.57902 12.5303 7.71967C12.671 7.86032 12.75 8.05109 12.75 8.25Z" fill="#A4A4A4"/>
</svg>
