<svg width="20" height="20" viewBox="0 0 20 20" fill="none" xmlns="http://www.w3.org/2000/svg">
<path d="M15.1069 9.63033H14.8437C14.5946 9.63033 14.3501 9.63035 14.1057 9.62095V10.0816L14.3924 10.326L14.1057 10.5705V10.7021L14.6745 11.1909L14.1057 11.6798V11.9054L14.2843 12.0559L14.1057 12.2063V12.5353L14.557 12.9208L14.1997 13.2263L14.8531 13.7857L14.1668 14.3733L14.4865 14.6506L14.1057 14.9796V15.0972L14.5946 15.5202L14.2279 15.8352C14.2279 15.8352 14.2561 15.8728 14.2702 15.8869C14.3642 15.9715 14.698 16.2817 15.0129 16.5685C15.3279 16.8599 15.7086 17.2078 15.8543 17.3394C16.0001 17.4757 16.1223 17.4475 16.1223 17.283V9.61154C15.8167 9.62564 15.5065 9.62566 15.1962 9.62566H15.1069V9.63033ZM15.2715 10.2414H15.6381V16.3099L15.2715 15.9762V10.2461V10.2414Z" fill="white"/>
<path d="M15.0225 2.7168C13.0482 2.7168 11.4453 3.91076 11.4453 6.65592C11.4453 9.40109 12.9542 9.35879 14.8439 9.35879H15.1964C17.0908 9.35879 18.5997 9.32118 18.5997 6.65592C18.5997 3.99067 16.9967 2.7168 15.0225 2.7168ZM15.0225 4.69106C13.161 4.69106 13.161 4.47953 13.161 4.2163C13.161 3.95306 13.161 3.74154 15.0225 3.74154C16.8839 3.74154 16.8839 3.95306 16.8839 4.2163C16.8839 4.47953 16.8839 4.69106 15.0225 4.69106Z" fill="white"/>
<path d="M8.60085 6.22264C8.51154 5.37182 8.36112 4.14025 8.2624 3.48217C8.16369 2.82408 8.06498 2.25061 8.04147 2.2083C8.01797 2.16599 7.93336 2.10489 7.85345 2.07668C7.77354 2.04848 7.43039 2.01558 7.08725 2.00618C6.7441 1.99678 6.41506 1.99677 6.35866 2.01557C6.30225 2.02968 6.24114 2.08609 6.22704 2.13779C6.21294 2.1895 6.22704 2.76297 6.26934 3.41166C6.30695 4.06035 6.23174 4.86415 6.10482 5.2026C5.9732 5.54104 5.64886 5.9218 5.37623 6.04401C5.10359 6.16623 4.61942 6.34485 4.29978 6.43886C3.98014 6.53287 3.42077 6.7961 3.05412 7.02173C2.69217 7.24736 2.35842 7.59522 2.31141 7.79264C2.2644 7.99007 2.1563 9.05242 2.06698 10.1524C1.97767 11.2523 1.97767 13.2736 2.06698 14.6415C2.1563 16.0093 2.2644 17.396 2.31141 17.7251C2.35842 18.0541 3.76391 18.3221 5.44203 18.3221C7.12015 18.3221 8.52564 18.0541 8.57265 17.7251C8.61965 17.396 8.72778 16.0093 8.81709 14.6415C8.9064 13.2736 8.9299 11.1724 8.86879 9.96433C8.80768 8.75627 8.68547 7.07814 8.59616 6.22733L8.60085 6.22264ZM3.18103 11.0737V8.29091C3.18103 8.07938 3.37847 7.90545 3.6182 7.90545H7.38339C7.62312 7.90545 7.82054 8.07938 7.82054 8.29091V13.8565C7.82054 14.068 7.62312 14.2466 7.38339 14.2466H3.6182C3.37847 14.2466 3.18103 14.0727 3.18103 13.8565V11.0737ZM7.82054 14.9611V15.873C7.82054 16.0281 7.65133 16.155 7.4445 16.155H6.05312C5.84629 16.155 5.67706 16.0281 5.67706 15.873V14.9611C5.67706 14.806 5.84629 14.6791 6.05312 14.6791H7.4445C7.65133 14.6791 7.82054 14.806 7.82054 14.9611ZM3.18103 15.417V14.9611C3.18103 14.806 3.35026 14.6791 3.55709 14.6791H4.94847C5.1553 14.6791 5.32451 14.806 5.32451 14.9611V15.873C5.32451 16.0281 5.1553 16.155 4.94847 16.155H3.55709C3.35026 16.155 3.18103 16.0281 3.18103 15.873V15.417ZM5.44673 17.5088C4.17757 17.5088 3.10582 17.3208 2.9648 17.0811C3.00711 16.8225 4.13056 16.6157 5.46083 16.6157C6.79111 16.6157 7.80175 16.8037 7.94276 17.0435C7.90046 17.302 6.77701 17.5088 5.44673 17.5088Z" fill="white"/>
<path d="M3.81502 8.82679C3.85262 8.82679 3.93254 8.83148 3.99835 8.84088C4.06416 8.85028 4.17697 8.8926 4.24748 8.9396C4.32269 8.98661 4.4073 9.10412 4.44021 9.20284C4.47311 9.30155 4.47781 9.46608 4.4496 9.5648C4.4214 9.66821 4.33209 9.79041 4.25688 9.84682C4.17697 9.89853 4.06415 9.95023 4.00774 9.95493C3.94664 9.95963 3.87142 9.96905 3.83851 9.97375C3.80561 9.97375 3.77271 10.0113 3.77271 10.0442C3.77271 10.0771 3.76802 10.519 3.76332 11.022C3.75862 11.5249 3.75391 11.9762 3.75391 12.0326C3.75391 12.089 3.81971 12.1266 3.89962 12.1219C3.97954 12.1219 4.10645 12.1454 4.17696 12.183C4.24747 12.2206 4.34148 12.3147 4.38379 12.3852C4.42609 12.4557 4.46371 12.5779 4.46841 12.6531C4.46841 12.7283 4.4496 12.8552 4.4214 12.9304C4.3932 13.0056 4.30389 13.1044 4.23338 13.1514C4.15817 13.1984 4.03594 13.2407 3.95603 13.2454C3.88082 13.2501 3.80092 13.2548 3.78681 13.2454C3.76801 13.2407 3.75861 13.3159 3.75861 13.4099C3.75861 13.5039 3.77272 13.6073 3.79152 13.6402C3.81032 13.6731 3.87613 13.7013 3.93724 13.7013H4.20987C4.29918 13.7013 4.4355 13.6731 4.51071 13.6449C4.58592 13.612 4.69873 13.5274 4.75514 13.4522C4.81155 13.377 4.88206 13.2548 4.91496 13.1749C4.94787 13.095 4.99487 12.9116 5.01838 12.7706C5.04188 12.6296 5.15939 12.3711 5.28161 12.1971C5.30041 12.1689 5.32392 12.1407 5.34272 12.1078C5.31922 12.0937 5.29101 12.0796 5.26751 12.0608C5.1923 12.1266 5.09829 12.1689 4.99017 12.1689C4.75984 12.1689 4.57652 11.9809 4.57652 11.7553V10.1618C4.57652 9.93142 4.76454 9.7481 4.99017 9.7481C5.09829 9.7481 5.1923 9.79042 5.26751 9.85623C5.34272 9.79042 5.43673 9.7481 5.54484 9.7481C5.65296 9.7481 5.74697 9.79042 5.82218 9.85623C5.83158 9.85153 5.84099 9.84682 5.84569 9.84212C5.84569 9.79511 5.84098 9.74811 5.83628 9.70581C5.82218 9.57889 5.78458 9.42846 5.75167 9.36735C5.71877 9.30624 5.63415 9.20754 5.57305 9.14643C5.50724 9.08532 5.39913 9.00541 5.33332 8.96781C5.26281 8.9302 5.19701 8.85029 5.1876 8.78918C5.1782 8.72807 5.12649 8.60114 5.07478 8.51183C5.02307 8.41782 4.86796 8.31442 4.72694 8.28152C4.58592 8.24862 4.35559 8.22511 4.20987 8.23451C4.06415 8.24391 3.90433 8.26742 3.85732 8.29562C3.80561 8.31912 3.76801 8.36142 3.76801 8.38962V8.77507C3.76801 8.80797 3.79622 8.83618 3.83382 8.83618L3.81502 8.82679ZM4.57182 13.1796C4.60003 13.1326 4.66113 13.0903 4.70813 13.0809C4.75514 13.0715 4.79745 13.0809 4.80686 13.1091C4.81626 13.1326 4.81625 13.1749 4.81155 13.2031C4.80685 13.2313 4.79745 13.2595 4.79275 13.2689C4.79275 13.2783 4.77394 13.3018 4.76454 13.3206C4.75044 13.3394 4.71754 13.3817 4.68463 13.4193C4.65173 13.4569 4.60002 13.4992 4.56712 13.518C4.53421 13.5368 4.50131 13.5556 4.49191 13.5603C4.48251 13.565 4.4731 13.5603 4.4731 13.5415C4.4731 13.5227 4.48251 13.4569 4.49661 13.3864C4.51071 13.3159 4.54362 13.2219 4.57182 13.1796ZM4.4308 8.30972C4.4778 8.30972 4.57652 8.32382 4.65643 8.33792C4.73634 8.35203 4.83505 8.38963 4.88205 8.42253C4.92906 8.45544 4.96668 8.53534 4.96668 8.60585C4.96668 8.67636 4.92906 8.73278 4.88205 8.73278C4.83505 8.73278 4.79745 8.69046 4.79745 8.63876C4.79745 8.58705 4.75044 8.51185 4.69874 8.47425C4.64233 8.43664 4.54361 8.39433 4.4731 8.37552C4.40259 8.36142 4.34619 8.33792 4.34619 8.32851C4.34619 8.31911 4.38379 8.30972 4.4308 8.30972Z" fill="white"/>
<path d="M3.8909 13.1285C4.14003 13.1285 4.33747 12.9264 4.33747 12.682C4.33747 12.4376 4.13533 12.2354 3.8909 12.2354C3.64647 12.2354 3.44434 12.4376 3.44434 12.682C3.44434 12.9264 3.64647 13.1285 3.8909 13.1285ZM3.8909 12.4281C4.03192 12.4281 4.14474 12.541 4.14474 12.682C4.14474 12.823 4.03192 12.9358 3.8909 12.9358C3.74988 12.9358 3.63706 12.823 3.63706 12.682C3.63706 12.541 3.74988 12.4281 3.8909 12.4281Z" fill="white"/>
<path d="M3.8909 9.84186C4.14003 9.84186 4.33747 9.63973 4.33747 9.3953C4.33747 9.15086 4.13533 8.94876 3.8909 8.94876C3.64647 8.94876 3.44434 9.15086 3.44434 9.3953C3.44434 9.63973 3.64647 9.84186 3.8909 9.84186ZM3.8909 9.14147C4.03192 9.14147 4.14474 9.25428 4.14474 9.3953C4.14474 9.53632 4.03192 9.64915 3.8909 9.64915C3.74988 9.64915 3.63706 9.53632 3.63706 9.3953C3.63706 9.25428 3.74988 9.14147 3.8909 9.14147Z" fill="white"/>
<path d="M7.44875 10.9838C7.44875 10.5795 7.11971 10.2505 6.71546 10.2505H6.42871V10.6454H6.71546C6.90348 10.6454 7.05859 10.8005 7.05859 10.9885C7.05859 11.1765 6.90348 11.3316 6.71546 11.3316H6.42871V11.7265H6.71546C7.11971 11.7265 7.44875 11.3974 7.44875 10.9932V10.9838Z" fill="white"/>
<path d="M5.83691 10.3542C6.05784 10.4623 6.20827 10.6927 6.20827 10.9559C6.20827 11.2191 6.05784 11.4448 5.83691 11.5576V11.755C5.83691 11.896 5.94973 12.0088 6.09075 12.0088C6.23177 12.0088 6.34459 11.896 6.34459 11.755V10.1615C6.34459 10.0205 6.23177 9.90767 6.09075 9.90767C5.94973 9.90767 5.83691 10.0205 5.83691 10.1615V10.3589V10.3542Z" fill="white"/>
<path d="M5.7899 10.3354V10.1615C5.7899 10.0205 5.67708 9.90767 5.53606 9.90767C5.39505 9.90767 5.28223 10.0205 5.28223 10.1615V10.3354C5.36214 10.3025 5.44675 10.2837 5.53606 10.2837C5.62538 10.2837 5.70999 10.3025 5.7899 10.3354Z" fill="white"/>
<path d="M5.28223 11.5814V11.7553C5.28223 11.8964 5.39505 12.0092 5.53606 12.0092C5.67708 12.0092 5.7899 11.8964 5.7899 11.7553V11.5814C5.70999 11.6143 5.62538 11.6331 5.53606 11.6331C5.44675 11.6331 5.36214 11.6143 5.28223 11.5814Z" fill="white"/>
<path d="M4.86386 10.9558C4.86386 10.6925 5.01427 10.4669 5.2352 10.3541V10.1566C5.2352 10.0156 5.1224 9.90282 4.98138 9.90282C4.84036 9.90282 4.72754 10.0156 4.72754 10.1566V11.7502C4.72754 11.8912 4.84036 12.004 4.98138 12.004C5.1224 12.004 5.2352 11.8912 5.2352 11.7502V11.5527C5.01427 11.4446 4.86386 11.2143 4.86386 10.951V10.9558Z" fill="white"/>
<path d="M6.09079 10.9565C6.09079 10.651 5.84166 10.4019 5.53612 10.4019C5.23057 10.4019 4.98145 10.651 4.98145 10.9565C4.98145 11.2621 5.23057 11.5065 5.53612 11.5065C5.84166 11.5065 6.09079 11.2574 6.09079 10.9565ZM5.84165 10.8954H5.95917C5.99207 10.8954 6.02028 10.9236 6.02028 10.9565C6.02028 10.9894 5.99207 11.0176 5.95917 11.0176H5.84165C5.80875 11.0176 5.78054 10.9894 5.78054 10.9565C5.78054 10.9236 5.80875 10.8954 5.84165 10.8954ZM5.20707 11.0176H5.08955C5.05665 11.0176 5.02845 10.9894 5.02845 10.9565C5.02845 10.9236 5.05665 10.8954 5.08955 10.8954H5.20707C5.23997 10.8954 5.26818 10.9236 5.26818 10.9565C5.26818 10.9894 5.23997 11.0176 5.20707 11.0176ZM5.4609 11.3937V11.1399C5.39039 11.1117 5.33868 11.0411 5.33868 10.9565C5.33868 10.8719 5.39039 10.8014 5.4609 10.7732V10.5194C5.4609 10.4865 5.48911 10.4583 5.52201 10.4583C5.55492 10.4583 5.58312 10.4865 5.58312 10.5194V10.7638C5.66774 10.7826 5.73355 10.8625 5.73355 10.9518C5.73355 11.0411 5.66774 11.1211 5.58312 11.1399V11.3843C5.58312 11.4172 5.55492 11.4454 5.52201 11.4454C5.48911 11.4454 5.4609 11.4172 5.4609 11.3843V11.3937Z" fill="white"/>
<path d="M4.13576 15.1766C4.13576 15.1061 4.19217 15.045 4.26738 15.045C4.34259 15.045 4.39899 15.1061 4.39899 15.1766V15.2847H4.54942V15.1766C4.54942 15.0215 4.4225 14.8945 4.26738 14.8945C4.11226 14.8945 3.98535 15.0215 3.98535 15.1766V15.2847H4.13576V15.1766Z" fill="white"/>
<path d="M3.95125 15.5158H4.02646C4.06877 15.4312 4.15807 15.3748 4.25679 15.3748C4.3555 15.3748 4.44481 15.4312 4.48711 15.5158H4.56232C4.61403 15.5158 4.66103 15.4735 4.66103 15.4171C4.66103 15.3606 4.61873 15.3184 4.56232 15.3184H3.95125C3.89954 15.3184 3.85254 15.3606 3.85254 15.4171C3.85254 15.4735 3.89484 15.5158 3.95125 15.5158Z" fill="white"/>
<path d="M3.95125 15.7274H4.01705C4.00295 15.6992 3.99826 15.6663 3.99826 15.6334C3.99826 15.6005 4.00295 15.5676 4.01705 15.5347H3.95125C3.89954 15.5347 3.85254 15.577 3.85254 15.6334C3.85254 15.6898 3.89484 15.7274 3.95125 15.7274Z" fill="white"/>
<path d="M4.56287 15.7274C4.61458 15.7274 4.66158 15.6851 4.66158 15.6334C4.66158 15.5817 4.61928 15.5347 4.56287 15.5347H4.49707C4.51117 15.5629 4.51586 15.5958 4.51586 15.6334C4.51586 15.671 4.51117 15.6992 4.49707 15.7274H4.56287Z" fill="white"/>
<path d="M3.95125 15.9387H4.56232C4.61403 15.9387 4.66103 15.8963 4.66103 15.8399C4.66103 15.7835 4.61873 15.7412 4.56232 15.7412H4.48711C4.44481 15.8258 4.3555 15.8823 4.25679 15.8823C4.15807 15.8823 4.06877 15.8258 4.02646 15.7412H3.95125C3.89954 15.7412 3.85254 15.7835 3.85254 15.8399C3.85254 15.8963 3.89484 15.9387 3.95125 15.9387Z" fill="white"/>
<path d="M4.0459 15.629C4.0459 15.7465 4.13992 15.8405 4.25743 15.8405C4.37495 15.8405 4.46897 15.7465 4.46897 15.629C4.46897 15.5115 4.37495 15.4175 4.25743 15.4175C4.13992 15.4175 4.0459 15.5115 4.0459 15.629ZM4.28093 15.7982C4.28093 15.7982 4.27153 15.8218 4.25743 15.8218C4.24333 15.8218 4.23393 15.8123 4.23393 15.7982V15.7512C4.23393 15.7512 4.24333 15.7277 4.25743 15.7277C4.27153 15.7277 4.28093 15.7371 4.28093 15.7512V15.7982ZM4.33264 15.6102H4.42665C4.42665 15.6102 4.45016 15.6196 4.45016 15.6337C4.45016 15.6478 4.44075 15.6572 4.42665 15.6572H4.32794C4.31854 15.6854 4.29034 15.7042 4.25743 15.7042C4.22453 15.7042 4.20103 15.6854 4.18693 15.6572H4.08822C4.08822 15.6572 4.0647 15.6478 4.0647 15.6337C4.0647 15.6196 4.07411 15.6102 4.08822 15.6102H4.18222C4.19162 15.5773 4.21982 15.5538 4.25273 15.5538C4.28563 15.5538 4.31854 15.5773 4.32794 15.6102H4.33264ZM4.28093 15.5115C4.28093 15.5115 4.27153 15.535 4.25743 15.535C4.24333 15.535 4.23393 15.5256 4.23393 15.5115V15.4645C4.23393 15.4645 4.24333 15.441 4.25743 15.441C4.27153 15.441 4.28093 15.4504 4.28093 15.4645V15.5115Z" fill="white"/>
<path d="M6.63534 15.0413V15.3139H6.78576V15.0413C6.78576 14.8862 6.65884 14.7593 6.50372 14.7593C6.3486 14.7593 6.22168 14.8862 6.22168 15.0413V15.1729H6.3721V15.0413C6.3721 14.9708 6.42851 14.9097 6.50372 14.9097C6.57893 14.9097 6.63534 14.9708 6.63534 15.0413Z" fill="white"/>
<path d="M7.17634 15.3232H6.56526C6.51355 15.3232 6.46655 15.3655 6.46655 15.4219C6.46655 15.4783 6.50885 15.5206 6.56526 15.5206H6.64047C6.68278 15.436 6.77209 15.3796 6.8708 15.3796C6.96951 15.3796 7.05882 15.4407 7.10113 15.5206H7.17634C7.22804 15.5206 7.27506 15.4783 7.27506 15.4219C7.27506 15.3655 7.23274 15.3232 7.17634 15.3232Z" fill="white"/>
<path d="M6.56526 15.5345C6.51355 15.5345 6.46655 15.5768 6.46655 15.6332C6.46655 15.6896 6.50885 15.7272 6.56526 15.7272H6.63106C6.61696 15.699 6.61227 15.6661 6.61227 15.6332C6.61227 15.6003 6.61696 15.5674 6.63106 15.5345H6.56526Z" fill="white"/>
<path d="M7.17713 15.5347H7.11133C7.12543 15.5629 7.13012 15.5958 7.13012 15.6334C7.13012 15.671 7.12543 15.6992 7.11133 15.7274H7.17713C7.22884 15.7274 7.27585 15.6851 7.27585 15.6334C7.27585 15.5817 7.23354 15.5347 7.17713 15.5347Z" fill="white"/>
<path d="M7.17634 15.7507H7.10113C7.05882 15.8353 6.96951 15.8917 6.8708 15.8917C6.77209 15.8917 6.68278 15.8306 6.64047 15.7507H6.56526C6.51355 15.7507 6.46655 15.793 6.46655 15.8494C6.46655 15.9058 6.50885 15.9481 6.56526 15.9481H7.17634C7.22804 15.9481 7.27506 15.9058 7.27506 15.8494C7.27506 15.793 7.23274 15.7507 7.17634 15.7507Z" fill="white"/>
<path d="M7.08712 15.6337C7.08712 15.5162 6.99311 15.4222 6.8756 15.4222C6.75808 15.4222 6.66406 15.5162 6.66406 15.6337C6.66406 15.7512 6.75808 15.8452 6.8756 15.8452C6.99311 15.8452 7.08712 15.7512 7.08712 15.6337ZM6.85208 15.4739C6.85208 15.4739 6.86149 15.4504 6.8756 15.4504C6.8897 15.4504 6.89909 15.4598 6.89909 15.4739V15.5209C6.89909 15.5209 6.8897 15.5444 6.8756 15.5444C6.86149 15.5444 6.85208 15.535 6.85208 15.5209V15.4739ZM6.80509 15.6619H6.70637C6.70637 15.6619 6.68287 15.6525 6.68287 15.6384C6.68287 15.6243 6.69226 15.6149 6.70637 15.6149H6.80038C6.80979 15.582 6.83799 15.5585 6.8756 15.5585C6.9132 15.5585 6.9414 15.582 6.9461 15.6149H7.04012C7.04012 15.6149 7.06362 15.6243 7.06362 15.6384C7.06362 15.6525 7.05422 15.6619 7.04012 15.6619H6.9414C6.932 15.6901 6.9038 15.7089 6.87089 15.7089C6.83799 15.7089 6.80979 15.6901 6.80038 15.6619H6.80509ZM6.85208 15.7606C6.85208 15.7606 6.86149 15.7371 6.8756 15.7371C6.8897 15.7371 6.89909 15.7465 6.89909 15.7606V15.8076C6.89909 15.8076 6.8897 15.8311 6.8756 15.8311C6.86149 15.8311 6.85208 15.8217 6.85208 15.8076V15.7606Z" fill="white"/>
</svg>
