<svg width="26" height="26" viewBox="0 0 26 26" fill="none" xmlns="http://www.w3.org/2000/svg">
<path d="M12.9455 15.1667L11.7213 13H15.9897C16.7913 13 17.5605 13.4658 17.9288 14.2025L18.4163 15.1667H12.9455ZM24.9163 19.5C24.9163 21.2983 23.4647 22.75 21.6663 22.75C20.258 22.75 19.0663 21.84 18.6113 20.5833H12.6205C12.0138 21.8617 10.7138 22.75 9.20801 22.75C7.70217 22.75 6.40217 21.8617 5.79551 20.5833H2.16634C1.57051 20.5833 1.08301 20.0958 1.08301 19.5V11.9167C1.08301 11.5592 1.26717 11.2233 1.55967 11.0175C1.85217 10.8333 2.23134 10.7792 2.56717 10.9092L8.04884 13.0975L3.70467 5.41667H1.08301V3.25H4.96134L12.3172 16.25H21.6663C23.4647 16.25 24.9163 17.7017 24.9163 19.5ZM7.95134 15.3942L3.24967 13.5417V18.4167H5.47051C5.67634 17.0083 6.64051 15.86 7.95134 15.3942ZM10.833 18.9583C10.833 18.0592 10.1072 17.3333 9.20801 17.3333C8.30884 17.3333 7.58301 18.0592 7.58301 18.9583C7.58301 19.8575 8.30884 20.5833 9.20801 20.5833C10.1072 20.5833 10.833 19.8575 10.833 18.9583ZM22.7497 19.5C22.7497 18.9042 22.2622 18.4167 21.6663 18.4167C21.0705 18.4167 20.583 18.9042 20.583 19.5C20.583 20.0958 21.0705 20.5833 21.6663 20.5833C22.2622 20.5833 22.7497 20.0958 22.7497 19.5Z" fill="#A4A4A4"/>
</svg>
