<svg width="100" height="107" viewBox="0 0 100 107" fill="none" xmlns="http://www.w3.org/2000/svg">
<g filter="url(#filter0_d_127_13)">
<path fill-rule="evenodd" clip-rule="evenodd" d="M92.0489 56.6974L57.9874 77.2742L23.926 97.8509C21.4054 99.383 18.5102 99.383 15.9726 97.8509C13.4521 96.3188 12.0045 93.6999 12.0045 90.6535V67.1728C11.6638 61.8104 8.0363 59.2272 4.01705 57.0181H13.9289C19.4128 57.125 25.5439 58.96 29.7505 62.7546C31.2151 64.073 34.0592 66.9056 36.3925 67.9924C38.7257 69.0791 42.1318 70.629 47.6327 69.6314C53.1166 68.6337 56.4036 67.3154 57.2721 66.5671C58.1577 65.8367 58.4302 65.3201 56.5909 64.6965C54.7516 64.073 45.1292 61.4007 45.1292 61.4007C45.1292 61.4007 43.7157 61.08 43.2729 59.4944C42.8131 57.9089 42.217 53.4372 43.9711 48.538C45.7423 43.6387 48.6035 42.3739 48.6035 42.3739C48.6035 42.3739 49.2507 41.8394 51.8053 42.6589C54.3428 43.4784 61.8704 45.4915 61.8704 45.5094C62.0748 45.5628 62.2451 45.5628 62.4495 45.5094C63.0455 45.3847 63.8119 44.9749 63.2329 43.9594C62.3473 42.3917 58.1577 37.6528 53.6787 34.4282C48.7397 30.8829 44.2947 30.1881 39.9178 33.1455C35.8645 35.8712 33.9571 37.9735 28.95 40.1647C26.6339 41.1802 25.2544 41.6612 21.4906 42.1244C20.8604 42.1957 20.3495 42.2491 19.7023 42.2491H4C7.86598 39.7728 11.6468 37.1718 11.9874 31.845V8.3465C11.9874 5.30007 13.435 2.68121 15.9556 1.14909C18.4761 -0.38303 21.3713 -0.38303 23.9089 1.14909L57.9704 21.7258L92.0318 42.3026C94.5524 43.8347 96 46.4536 96 49.5C96 52.5464 94.5524 55.1653 92.0318 56.6974H92.0489Z" fill="#363636"/>
</g>
<path d="M60.9999 53L58.3333 52L60.9999 50.999L61.9999 48.3333L63.0008 50.999L65.6666 52L63.0008 53L61.9999 55.6667L60.9999 53ZM55.6666 58.3333L52.3333 57L55.6666 55.6667L56.9999 52.3333L58.3333 55.6667L61.6666 57L58.3333 58.3333L56.9999 61.6667L55.6666 58.3333Z" fill="white"/>
<defs>
<filter id="filter0_d_127_13" x="0" y="0" width="100" height="107" filterUnits="userSpaceOnUse" color-interpolation-filters="sRGB">
<feFlood flood-opacity="0" result="BackgroundImageFix"/>
<feColorMatrix in="SourceAlpha" type="matrix" values="0 0 0 0 0 0 0 0 0 0 0 0 0 0 0 0 0 0 127 0" result="hardAlpha"/>
<feOffset dy="4"/>
<feGaussianBlur stdDeviation="2"/>
<feComposite in2="hardAlpha" operator="out"/>
<feColorMatrix type="matrix" values="0 0 0 0 0 0 0 0 0 0 0 0 0 0 0 0 0 0 0.25 0"/>
<feBlend mode="normal" in2="BackgroundImageFix" result="effect1_dropShadow_127_13"/>
<feBlend mode="normal" in="SourceGraphic" in2="effect1_dropShadow_127_13" result="shape"/>
</filter>
</defs>
</svg>
