<svg width="36" height="36" viewBox="0 0 36 36" fill="none" xmlns="http://www.w3.org/2000/svg">
<path d="M17.771 25.8745V26.827C17.771 26.973 17.826 27.1005 17.936 27.2095C18.046 27.3185 18.174 27.3735 18.32 27.3745H18.665C18.827 27.3745 18.9685 27.314 19.0895 27.193C19.2105 27.072 19.271 26.9305 19.271 26.7685V25.8745H21.521C21.734 25.8745 21.9125 25.8025 22.0565 25.6585C22.2005 25.5145 22.272 25.3365 22.271 25.1245V20.6245C22.271 20.4115 22.1995 20.2335 22.0565 20.0905C21.9135 19.9475 21.735 19.8755 21.521 19.8745H16.271V16.8745H21.521C21.734 16.8745 21.9125 16.8025 22.0565 16.6585C22.2005 16.5145 22.272 16.336 22.271 16.123C22.27 15.91 22.1985 15.732 22.0565 15.589C21.9145 15.446 21.736 15.3745 21.521 15.3745H19.271V14.422C19.271 14.276 19.216 14.1485 19.106 14.0395C18.997 13.9295 18.8695 13.8745 18.7235 13.8745H18.377C18.216 13.8745 18.0745 13.935 17.9525 14.056C17.8325 14.177 17.7725 14.3185 17.7725 14.4805V15.3745H15.5225C15.3095 15.3745 15.131 15.4465 14.987 15.5905C14.843 15.7345 14.771 15.9125 14.771 16.1245V20.6245C14.771 20.8375 14.843 21.0155 14.987 21.1585C15.131 21.3015 15.309 21.3735 15.521 21.3745H20.771V24.3745H15.521C15.309 24.3745 15.131 24.4465 14.987 24.5905C14.843 24.7345 14.771 24.913 14.771 25.126C14.771 25.339 14.843 25.517 14.987 25.66C15.131 25.803 15.309 25.8745 15.521 25.8745H17.771ZM9.92595 31.4995C9.23495 31.4995 8.65845 31.2685 8.19645 30.8065C7.73445 30.3445 7.50295 29.768 7.50195 29.077V6.92201C7.50195 6.23201 7.73345 5.65601 8.19645 5.19401C8.65945 4.73201 9.23595 4.50051 9.92595 4.49951H22.0985L28.502 10.9045V29.077C28.502 29.767 28.271 30.3435 27.809 30.8065C27.347 31.2695 26.77 31.5005 26.078 31.4995H9.92595ZM9.92595 29.9995H26.0795C26.3095 29.9995 26.521 29.9035 26.714 29.7115C26.907 29.5195 27.003 29.3075 27.002 29.0755V11.6545H22.559C22.216 11.6545 21.9285 11.5385 21.6965 11.3065C21.4645 11.0745 21.3485 10.787 21.3485 10.444V5.99951H9.92595C9.69495 5.99951 9.48295 6.09551 9.28995 6.28751C9.09695 6.47951 9.00095 6.69101 9.00195 6.92201V29.077C9.00195 29.307 9.09795 29.5185 9.28995 29.7115C9.48195 29.9045 9.69345 30.0005 9.92445 29.9995" fill="#838383"/>
</svg>
