<svg width="37" height="37" viewBox="0 0 37 37" fill="none" xmlns="http://www.w3.org/2000/svg">
<g clip-path="url(#clip0_128_14)">
<mask id="mask0_128_14" style="mask-type:alpha" maskUnits="userSpaceOnUse" x="17" y="-1" width="21" height="23">
<rect x="17" y="-0.942857" width="21" height="22.2" fill="#D9D9D9"/>
</mask>
<g mask="url(#mask0_128_14)">
<path d="M20.4136 18.75C20.0108 18.75 19.6745 18.6151 19.4047 18.3453C19.1349 18.0755 19 17.7392 19 17.3364V7.91356C19 7.51077 19.1349 7.17448 19.4047 6.90469C19.6745 6.6349 20.0108 6.5 20.4136 6.5H23.0014L24.6201 4.75H29.1636V5.625H24.9988L23.3851 7.375H20.4136C20.2565 7.375 20.1274 7.42546 20.0264 7.52637C19.9255 7.62744 19.875 7.7565 19.875 7.91356V17.3364C19.875 17.4935 19.9255 17.6226 20.0264 17.7236C20.1274 17.8245 20.2565 17.875 20.4136 17.875H33.3364C33.4935 17.875 33.6226 17.8245 33.7236 17.7236C33.8245 17.6226 33.875 17.4935 33.875 17.3364V10.3364H34.75V17.3364C34.75 17.7392 34.6151 18.0755 34.3453 18.3453C34.0755 18.6151 33.7392 18.75 33.3364 18.75H20.4136ZM33.875 7.375V5.625H32.125V4.75H33.875V3H34.75V4.75H36.5V5.625H34.75V7.375H33.875ZM26.875 15.8894C27.7892 15.8894 28.5619 15.5739 29.1929 14.9429C29.8239 14.3119 30.1394 13.5392 30.1394 12.625C30.1394 11.7108 29.8239 10.9381 29.1929 10.3071C28.5619 9.6761 27.7892 9.36059 26.875 9.36059C25.9608 9.36059 25.1881 9.6761 24.5571 10.3071C23.9261 10.9381 23.6106 11.7108 23.6106 12.625C23.6106 13.5392 23.9261 14.3119 24.5571 14.9429C25.1881 15.5739 25.9608 15.8894 26.875 15.8894ZM26.875 15.0144C26.1951 15.0144 25.627 14.7861 25.1705 14.3295C24.7139 13.873 24.4856 13.3049 24.4856 12.625C24.4856 11.9451 24.7139 11.377 25.1705 10.9205C25.627 10.4639 26.1951 10.2356 26.875 10.2356C27.5549 10.2356 28.123 10.4639 28.5795 10.9205C29.0361 11.377 29.2644 11.9451 29.2644 12.625C29.2644 13.3049 29.0361 13.873 28.5795 14.3295C28.123 14.7861 27.5549 15.0144 26.875 15.0144Z" fill="#838383" stroke="#838383"/>
</g>
<mask id="mask1_128_14" style="mask-type:alpha" maskUnits="userSpaceOnUse" x="-1" y="-1" width="39" height="39">
<rect x="-1" y="-1" width="39" height="39" fill="#D9D9D9"/>
</mask>
<g mask="url(#mask1_128_14)">
<path d="M8.12519 32.5C7.37715 32.5 6.7526 32.2495 6.25156 31.7484C5.75052 31.2474 5.5 30.6229 5.5 29.8748V9.12519C5.5 8.37715 5.75052 7.7526 6.25156 7.25156C6.7526 6.75052 7.37715 6.5 8.12519 6.5H18.5C18 7 18 7 18 8.125H8.12519C7.8335 8.125 7.59381 8.21871 7.40612 8.40612C7.21871 8.59381 7.125 8.8335 7.125 9.12519V29.8748C7.125 30.1665 7.21871 30.4062 7.40612 30.5939C7.59381 30.7813 7.8335 30.875 8.12519 30.875H28.8748C29.1665 30.875 29.4062 30.7813 29.5939 30.5939C29.7813 30.4062 29.875 30.1665 29.875 29.8748L30 19.5H31.5V29.8748C31.5 30.6229 31.2495 31.2474 30.7484 31.7484C30.2474 32.2495 29.6229 32.5 28.8748 32.5H8.12519ZM10 26.6248H27L21.75 19.6251L16.875 25.7814L13.625 21.8749L10 26.6248Z" fill="#838383"/>
</g>
</g>
<defs>
<clipPath id="clip0_128_14">
<rect width="37" height="37" fill="white"/>
</clipPath>
</defs>
</svg>
