<svg width="38" height="38" viewBox="0 0 38 38" fill="none" xmlns="http://www.w3.org/2000/svg">
<path d="M4.83663 19C5.18288 15.8651 6.56336 12.9348 8.76013 10.6717L11.1795 13.0902L12.2997 11.9708L9.92388 9.59579C12.2668 7.65559 15.1711 6.51941 18.2087 6.35471V10.2917H19.792V6.35471C22.8297 6.51886 25.7341 7.6551 28.0768 9.59579L25.7968 11.875L26.917 12.9944L29.2405 10.6709C31.4375 12.9342 32.818 15.8648 33.164 19H29.8335V20.5833H33.2503C33.2539 23.8854 32.1042 27.0851 29.9998 29.6297L27.2923 26.9222L26.172 28.0416L28.9255 30.7942L28.9152 30.8037L30.0164 31.9414C31.5421 30.4679 32.7551 28.702 33.5828 26.7491C34.4105 24.7962 34.8359 22.6965 34.8337 20.5754C34.8337 11.8354 27.7443 4.75 19.0003 4.75C10.2564 4.75 3.167 11.8346 3.167 20.5754C3.16198 24.7472 4.81019 28.751 7.75075 31.7102L8.87492 30.5963L8.85988 30.5805L11.2396 28.2015L10.1202 27.0821L7.80934 29.3922C5.82511 26.8851 4.74705 23.7806 4.75034 20.5833H7.95896V19H4.83663Z" fill="#838383"/>
<path d="M20.2934 28.8953C20.0097 29.0242 19.6884 29.0439 19.3909 28.9507L9.15786 24.6496C7.6434 24.1809 8.02024 22.6229 9.58536 22.8683L20.656 23.5025C20.9632 23.5507 21.2427 23.7099 21.4414 23.9497L22.803 25.8276C23.012 26.643 22.9226 27.0285 22.3431 27.8083L20.2934 28.8953Z" fill="#838383"/>
</svg>
