<svg width="32" height="22" viewBox="0 0 32 22" fill="none" xmlns="http://www.w3.org/2000/svg">
<path d="M27.2447 7.12485H27.2503C27.2503 4.15485 25.3266 1.6236 22.6378 0.723598C21.9066 0.476098 21.3103 1.3536 21.8053 1.94985L23.3106 3.74985H22.1766C21.8616 3.74985 21.6141 3.99735 21.6141 4.31235C21.6141 4.62735 21.8728 4.87485 22.1766 4.87485H18.2503C17.0128 4.87485 16.0003 5.88735 16.0003 7.12485H8.1253V5.9661C8.1253 5.36985 7.64155 4.87485 7.03405 4.87485H2.4778C1.8703 4.87485 1.3753 5.36985 1.36405 5.9661V6.08985C1.36405 6.4521 1.44055 6.8031 1.5868 7.12485H3.6253V7.1361C4.24405 7.1361 4.7503 7.64235 4.7503 8.2611C4.7503 8.7786 4.40155 9.1836 3.92905 9.3186H3.89192C4.88643 9.9801 5.97318 10.5032 7.10155 10.9273C7.64999 11.1336 8.16923 11.4105 8.64618 11.7508L7.99143 12.391C7.1018 11.8367 6.06204 11.5722 5.01567 11.634C3.9693 11.6958 2.96792 12.0809 2.14974 12.7361C1.33156 13.3913 0.736938 14.2843 0.447941 15.2919C0.158943 16.2994 0.189821 17.3719 0.536316 18.3611C0.882811 19.3504 1.52783 20.2077 2.38236 20.8148C3.23688 21.4218 4.25876 21.7486 5.30695 21.7501C6.35514 21.7517 7.37796 21.4278 8.23422 20.8232C9.09048 20.2186 9.73796 19.3631 10.0873 18.3748H11.7703C12.1551 19.0431 12.9077 19.4998 13.7503 19.4998H18.2503C19.4687 19.4998 20.5003 18.4198 20.5003 17.2498C20.5003 16.4432 20.6432 15.703 20.8862 14.9998C21.0206 14.6144 21.1811 14.2385 21.3666 13.8748H21.3778C21.4747 13.6935 21.5786 13.516 21.6894 13.3427L22.3926 14.0065C21.7332 15.0622 21.486 16.3238 21.698 17.5503C21.91 18.7768 22.5664 19.8823 23.5419 20.6554C24.5173 21.4286 25.7434 21.8153 26.9859 21.7417C28.2285 21.6681 29.4003 21.1393 30.2776 20.2563C31.155 19.3734 31.6763 18.1982 31.742 16.9553C31.8077 15.7123 31.4132 14.4887 30.6338 13.5182C29.8545 12.5477 28.7449 11.8983 27.5171 11.6941C26.2892 11.4899 25.0292 11.7452 23.9777 12.4112L23.1834 11.6327C23.6259 11.259 24.1111 10.9391 24.6291 10.6798L25.2366 10.3761L25.2456 10.3716C25.09 10.062 25.0061 9.7213 25.0003 9.37485C25.0021 8.77963 25.2389 8.20921 25.6593 7.7878C26.0796 7.36639 26.6495 7.12811 27.2447 7.12485ZM10.5778 13.8748H10.6037C10.8174 14.2303 10.9933 14.6053 11.1313 14.9998C11.2611 15.3718 11.3567 15.7581 11.4182 16.1586H10.3483C10.2673 15.379 10.0097 14.6511 9.61593 14.0188L10.2774 13.4035C10.384 13.5564 10.4842 13.7136 10.5778 13.8748ZM5.48492 15.0088C5.92267 15.0542 6.32536 15.2688 6.60713 15.6069C6.8889 15.945 7.02746 16.3797 6.99326 16.8185C6.95906 17.2572 6.75481 17.6653 6.42406 17.9556C6.09331 18.2459 5.66224 18.3955 5.22275 18.3725C4.78326 18.3496 4.37014 18.1558 4.07147 17.8326C3.7728 17.5094 3.61222 17.0822 3.62396 16.6423C3.63571 16.2024 3.81886 15.7844 4.13435 15.4776C4.44984 15.1708 4.87271 14.9993 5.3128 14.9998H5.32405C5.37805 14.9998 5.43167 15.0028 5.48492 15.0088ZM26.6226 14.9998H26.6878C27.1325 15.0008 27.5589 15.1772 27.8742 15.4908C28.1896 15.8044 28.3683 16.2299 28.3717 16.6746C28.3751 17.1193 28.2028 17.5473 27.8922 17.8657C27.5817 18.184 27.158 18.3669 26.7134 18.3746C26.2687 18.3823 25.839 18.2141 25.5176 17.9066C25.1963 17.5992 25.0093 17.1773 24.9974 16.7327C24.9854 16.2882 25.1494 15.8569 25.4537 15.5326C25.7581 15.2083 26.1781 15.0161 26.6226 14.9998ZM23.8641 8.24985C23.8641 8.8686 23.3578 9.37485 22.7391 9.37485H21.6141V7.12485H22.7391C23.3578 7.12485 23.8641 7.6311 23.8641 8.24985ZM19.7049 14.9998C19.4979 15.6973 19.3753 16.4432 19.3753 17.2498C19.3753 17.8146 18.8319 18.3748 18.2503 18.3748H13.7503C13.0866 18.3748 12.6253 17.8573 12.6253 17.3736V17.2498C12.6253 16.4792 12.5229 15.7221 12.3125 14.9998H19.7049Z" fill="#A4A4A4"/>
</svg>
