<svg width="18" height="18" viewBox="0 0 18 18" fill="none" xmlns="http://www.w3.org/2000/svg">
<path fill-rule="evenodd" clip-rule="evenodd" d="M14.3951 18C13.6131 18 12.735 17.831 11.779 17.505C10.809 17.165 9.87693 16.724 8.9989 16.189C8.12047 16.7273 7.18717 17.1705 6.21481 17.511C5.25878 17.837 4.38175 18 3.60472 18C2.50269 18 1.59666 17.674 0.961638 17.038C-0.130398 15.947 -0.298404 14.079 0.488622 11.778C0.830634 10.808 1.27365 9.87705 1.81067 9.00005C1.27325 8.12257 0.830105 7.19073 0.488622 6.22007C-0.298404 3.91508 -0.130398 2.05309 0.961638 0.961098C2.05167 -0.129896 3.91974 -0.298895 6.22181 0.489101C7.13184 0.799099 8.06587 1.2491 8.9999 1.81109C9.93393 1.2481 10.867 0.798099 11.779 0.489101C14.0791 -0.298895 15.9471 -0.129896 17.0392 0.961098C18.1292 2.05309 18.2992 3.92108 17.5112 6.22107C17.1692 7.19106 16.7262 8.12306 16.1891 9.00005C16.7522 9.93405 17.2012 10.867 17.5112 11.778C18.2982 14.085 18.1302 15.947 17.0382 17.038C16.4031 17.674 15.4971 17.994 14.3951 17.994V18ZM12.718 12.712C11.595 13.8447 10.3477 14.8471 8.9999 15.7C7.65143 14.8506 6.40402 13.8505 5.28178 12.719C4.09974 11.537 3.08771 10.27 2.29968 9.00005C3.08771 7.72306 4.09974 6.45707 5.28178 5.27607C6.46282 4.09508 7.72286 3.08209 8.9949 2.29409C10.2709 3.08209 11.537 4.09408 12.718 5.27607C13.9001 6.45707 14.9121 7.72306 15.7001 9.00005C14.85 10.3464 13.8496 11.5918 12.718 12.712ZM13.011 13.011C11.916 14.1148 10.7049 15.0972 9.39892 15.941C10.1956 16.4166 11.0382 16.8105 11.914 17.117C14.0511 17.848 15.7731 17.719 16.7462 16.746C17.7192 15.772 17.8482 14.056 17.1172 11.908C16.8107 11.0323 16.4167 10.1897 15.9411 9.39305C15.0995 10.7021 14.1169 11.916 13.011 13.011ZM4.98877 13.01C3.88457 11.9131 2.90217 10.7001 2.05867 9.39205C1.584 10.1909 1.19004 11.0351 0.882635 11.912C0.151611 14.05 0.280616 15.772 1.25365 16.745C2.22668 17.718 3.94274 17.847 6.08581 17.115C6.90683 16.835 7.75586 16.441 8.60089 15.94C7.2949 15.0962 6.08384 14.1138 4.98877 13.01ZM4.98877 4.98807C3.88526 6.08316 2.90321 7.29417 2.05967 8.60005C1.58536 7.80308 1.19141 6.96095 0.883635 6.08607C0.152611 3.94308 0.281616 2.22709 1.25465 1.2481C1.81767 0.6971 2.61569 0.410101 3.60572 0.410101C4.33775 0.410101 5.17578 0.5681 6.08681 0.883098C6.96183 1.18888 7.80433 1.5808 8.60189 2.05309C7.2956 2.89879 6.08453 3.88316 4.98977 4.98907M13.012 4.98907C11.9157 3.88288 10.7029 2.89849 9.39492 2.05309C10.1938 1.57843 11.038 1.18449 11.915 0.877099C12.7109 0.587851 13.5485 0.430121 14.3951 0.410101C15.3851 0.410101 16.1901 0.6911 16.7472 1.2541C17.7202 2.22709 17.8492 3.94308 17.1182 6.08607C16.8129 6.96198 16.4189 7.80436 15.9421 8.60005C15.0998 7.29471 14.1191 6.08405 13.017 4.98907H13.012ZM4.49975 8.99905C8.9209 8.36406 8.9549 4.49908 8.9549 4.49908V4.54508C9.04604 5.70734 9.55796 6.79647 10.3947 7.60831C11.2314 8.42016 12.3355 8.89899 13.5001 8.95505V9.00005C9.07891 9.63505 9.0449 13.5 9.0449 13.5V13.455C8.40388 9.07805 4.49975 9.04505 4.49975 9.04505V8.99905Z" fill="#323232"/>
</svg>
