<svg width="26" height="26" viewBox="0 0 26 26" fill="none" xmlns="http://www.w3.org/2000/svg">
<path d="M8.9375 7.3125V8.9375H10.5625V10.5625H6.14412L4.74825 8.48006L4.49313 8.125H0.8125V12.7465L4.875 14.3715V20.3125H16.6814L16.9106 19.9566L23.9688 9.75H25.1875V8.125H22.4705L22.2674 8.27775L17.0625 12.1875V10.5625H12.1875V8.9375H13.8125V7.3125H8.9375ZM2.4375 9.75H3.60588L4.875 11.6545V12.5938L2.4375 11.6285V9.75ZM20.9471 11.3246L15.8438 18.6875H6.5V12.1875H15.4375V15.4375L16.7326 14.4722L20.9471 11.3246ZM23.9688 13C23.9688 13 22.75 15.171 22.75 15.8438C22.75 16.167 22.8784 16.477 23.107 16.7055C23.3355 16.9341 23.6455 17.0625 23.9688 17.0625C24.292 17.0625 24.602 16.9341 24.8305 16.7055C25.0591 16.477 25.1875 16.167 25.1875 15.8438C25.1875 15.171 23.9688 13 23.9688 13Z" fill="white"/>
</svg>
