<svg width="30" height="30" viewBox="0 0 30 30" fill="none" xmlns="http://www.w3.org/2000/svg">
<path d="M20.206 2.5H9.76846C8.91199 2.5099 8.09434 2.85879 7.49457 3.47027C6.8948 4.08176 6.56179 4.906 6.56846 5.7625V24.2375C6.56179 25.094 6.8948 25.9182 7.49457 26.5297C8.09434 27.1412 8.91199 27.4901 9.76846 27.5H20.231C21.0874 27.4901 21.9051 27.1412 22.5048 26.5297C23.1046 25.9182 23.4376 25.094 23.431 24.2375V5.7625C23.4343 5.3363 23.3534 4.91364 23.1929 4.51877C23.0325 4.12391 22.7956 3.76461 22.496 3.46149C22.1964 3.15837 21.8398 2.9174 21.4469 2.7524C21.0539 2.58741 20.6322 2.50163 20.206 2.5ZM14.981 24.7125C14.7314 24.7141 14.4841 24.6666 14.2529 24.5727C14.0218 24.4787 13.8114 24.3401 13.6338 24.1648C13.4562 23.9896 13.3149 23.781 13.2179 23.5511C13.1209 23.3213 13.0701 23.0745 13.0685 22.825C13.0668 22.5755 13.1143 22.3281 13.2083 22.097C13.3023 21.8658 13.4408 21.6554 13.6161 21.4778C13.7914 21.3002 13.9999 21.1589 14.2298 21.0619C14.4597 20.9649 14.7064 20.9141 14.956 20.9125C15.4599 20.9092 15.9445 21.1062 16.3031 21.4602C16.6618 21.8141 16.8651 22.2961 16.8685 22.8C16.8718 23.3039 16.6748 23.7885 16.3208 24.1472C15.9668 24.5058 15.4849 24.7092 14.981 24.7125ZM17.481 7.8375H12.481C12.1494 7.8375 11.8315 7.7058 11.5971 7.47138C11.3627 7.23696 11.231 6.91902 11.231 6.5875C11.231 6.25598 11.3627 5.93804 11.5971 5.70362C11.8315 5.4692 12.1494 5.3375 12.481 5.3375H17.481C17.8125 5.3375 18.1304 5.4692 18.3648 5.70362C18.5993 5.93804 18.731 6.25598 18.731 6.5875C18.731 6.91902 18.5993 7.23696 18.3648 7.47138C18.1304 7.7058 17.8125 7.8375 17.481 7.8375Z" fill="#A4A4A4"/>
</svg>
