<svg width="34" height="34" viewBox="0 0 34 34" fill="none" xmlns="http://www.w3.org/2000/svg">
<path d="M25.4578 17.0429L22.6245 21.9587L26.2087 26.4637L31.167 17.8787L25.4578 17.0429ZM9.91699 25.5004V21.6612C8.67032 21.1087 7.79199 19.8762 7.79199 18.417C7.79199 17.6095 8.07533 16.8587 8.54283 16.292L5.75199 14.6629C4.32116 13.827 3.82533 11.9995 4.66116 10.5687L6.61616 7.16869C7.01476 6.48161 7.66877 5.97993 8.43566 5.77295C9.20254 5.56597 10.0202 5.67047 10.7103 6.06369L22.2278 12.7504C23.5737 13.5012 24.0412 15.2295 23.262 16.5895L21.137 20.2729C20.3578 21.6187 18.6153 22.0862 17.2695 21.307L14.6062 19.777C14.252 20.6129 13.5862 21.2929 12.7503 21.6612V25.5004C12.7503 27.0587 11.4753 28.3337 9.91699 28.3337H2.83366V25.5004H9.91699Z" fill="#A4A4A4"/>
</svg>
