<svg width="15" height="15" viewBox="0 0 15 15" fill="none" xmlns="http://www.w3.org/2000/svg">
<path d="M8.75028 6.24989L6.87528 8.12489M12.6803 1.89427C12.7396 1.8738 12.8035 1.87043 12.8646 1.88455C12.9257 1.89866 12.9816 1.92969 13.026 1.97409C13.0703 2.01848 13.1012 2.07445 13.1153 2.1356C13.1293 2.19675 13.1258 2.26062 13.1053 2.31989L9.40278 12.9011C9.38062 12.9644 9.33997 13.0195 9.2861 13.0594C9.23223 13.0993 9.16761 13.122 9.10065 13.1247C9.03368 13.1274 8.96745 13.1099 8.91055 13.0745C8.85365 13.0391 8.8087 12.9874 8.78153 12.9261L6.76966 8.39989C6.73581 8.32462 6.67555 8.26437 6.60028 8.23052L2.07403 6.21802C2.01296 6.19075 1.96148 6.1458 1.92622 6.08898C1.89096 6.03215 1.87356 5.96606 1.87625 5.89923C1.87894 5.83241 1.90161 5.76793 1.94132 5.71413C1.98103 5.66032 2.03597 5.61966 2.09903 5.59739L12.6803 1.89427Z" stroke="white" stroke-width="1.5" stroke-linecap="round" stroke-linejoin="round"/>
</svg>
