<svg width="36" height="36" viewBox="0 0 36 36" fill="none" xmlns="http://www.w3.org/2000/svg">
<path d="M18 4.5L3 18H7.5V30H28.5V18H33L18 4.5ZM18 12.75C21.51 12.75 24.69 14.145 27 16.41L25.2 18.18C23.28 16.2931 20.6919 15.2417 18 15.255C15.18 15.255 12.63 16.365 10.8 18.18L9 16.41C11.403 14.0555 14.6358 12.7409 18 12.75ZM18 17.745C20.1 17.745 22.005 18.585 23.4 19.95L21.6 21.705C20.6388 20.7643 19.3449 20.2413 18 20.25C16.59 20.25 15.315 20.805 14.4 21.705L12.6 19.95C14.0409 18.5348 15.9804 17.7429 18 17.745ZM18 22.755C19.41 22.755 20.55 23.865 20.55 25.245C20.55 26.625 19.41 27.75 18 27.75C16.59 27.75 15.45 26.625 15.45 25.245C15.45 23.865 16.59 22.755 18 22.755Z" fill="#A4A4A4"/>
</svg>
