<svg width="22" height="22" viewBox="0 0 22 22" fill="none" xmlns="http://www.w3.org/2000/svg">
<path d="M6.56229 20.2015C11.9453 20.2015 12.114 20.2015 12.1193 16.4529C11.6132 16.3897 11.1123 16.2948 10.6589 16.1577C10.5745 16.1313 10.4954 16.1155 10.4164 16.0944C10.4111 17.6076 9.5306 18.9098 8.25998 19.532C8.05436 19.4581 7.79601 19.4001 7.42168 19.3685C8.88738 18.9889 9.9682 17.6603 9.9682 16.0786C9.9682 16.0522 9.9682 16.0259 9.9682 15.9995C9.84694 15.9784 9.72568 15.9626 9.60969 15.9468C9.63078 16.0997 9.61496 16.2737 9.55696 16.4002C9.46733 16.5795 9.06137 16.6691 8.6554 16.6058C8.25998 16.5426 7.82238 16.474 7.65366 16.4424C7.62203 16.4793 7.59039 16.5215 7.56403 16.5584C7.68529 16.648 8.05962 16.9169 8.40232 17.1647C8.74502 17.4125 8.97173 17.771 8.91374 17.9608C8.85047 18.1506 8.64485 18.3562 8.45505 18.4195C8.26525 18.4828 7.91199 18.2613 7.67474 17.9292C7.52184 17.7183 7.36368 17.4968 7.23714 17.3229V17.8554C7.23714 17.9977 7.18442 18.1242 7.10534 18.2297C7.14752 18.6146 7.05789 18.9784 6.89445 19.0627C6.847 19.0838 6.79426 19.1049 6.73627 19.1155V18.4828C6.68354 18.4986 6.63083 18.5144 6.56757 18.5144C6.5043 18.5144 6.45684 18.4933 6.39885 18.4828V19.1155C6.34085 19.1049 6.28812 19.0891 6.24067 19.0627C6.07195 18.9784 5.9876 18.6093 6.02978 18.2297C5.95069 18.119 5.89797 17.9924 5.89797 17.8501V17.3229C5.77671 17.4916 5.62382 17.7025 5.47619 17.9081C5.22839 18.2508 4.86987 18.4775 4.68007 18.4142C4.49026 18.351 4.28465 18.1453 4.22138 17.9555C4.15811 17.7657 4.37954 17.4125 4.7117 17.1752C5.04386 16.9327 5.42346 16.6638 5.55 16.5689C5.67653 16.4793 5.87688 16.5004 5.99815 16.6164C6.06141 16.4424 6.15104 16.2631 6.26176 16.0839C6.26176 16.0839 6.26176 16.0839 6.26176 16.0786C6.26176 15.9521 6.34086 15.8466 6.45157 15.8044C6.48848 15.757 6.52538 15.7095 6.55701 15.6674C6.4832 15.6674 6.41994 15.6041 6.41994 15.5303C6.41994 15.4565 6.4832 15.3985 6.55701 15.3985C6.62555 15.3985 6.67829 15.4512 6.68356 15.5145C6.78373 15.3985 6.88917 15.293 6.98934 15.1981C6.99462 15.1559 7.01043 15.119 7.03152 15.0874C7.12115 14.9661 7.39005 14.5865 7.63785 14.2491C7.88564 13.9064 8.24415 13.6797 8.43395 13.7377C8.62376 13.801 8.82938 14.0066 8.89264 14.1964C8.92428 14.2965 8.87156 14.4442 8.77139 14.5971C9.05082 14.5813 9.33553 14.5971 9.6255 14.6234C9.07718 13.4741 7.91201 12.6779 6.55175 12.6779C4.66953 12.6779 3.14582 14.2017 3.14582 16.0839C3.14582 17.6656 4.22665 18.9889 5.68708 19.3738C5.32329 19.4054 5.04386 19.4529 4.81188 19.5214C3.55706 18.8835 2.69767 17.5865 2.69767 16.0839C2.69767 13.9539 4.42173 12.2298 6.55175 12.2298C8.18617 12.2298 9.58333 13.2526 10.1422 14.692C10.448 14.7394 10.7485 14.8027 11.0279 14.887C11.3285 14.9767 11.6659 15.0505 12.0191 15.1032C11.5552 12.504 9.28807 10.5321 6.55701 10.5321C3.48852 10.5321 1 13.0206 1 16.0891C1 18.8343 2.85233 20.2068 6.55701 20.2068L6.56229 20.2015ZM6.00342 16.0417C5.92961 16.0206 5.8927 15.9415 5.91379 15.873C5.93488 15.8044 6.01397 15.7623 6.08778 15.7833C6.15632 15.8097 6.1985 15.8835 6.17214 15.9573C6.15105 16.0259 6.07196 16.068 6.00342 16.0417ZM6.24067 13.0945C6.41993 13.0048 6.70991 13.0048 6.88917 13.0945C7.06843 13.1841 7.15807 13.5901 7.0948 13.996C7.03153 14.402 6.95772 14.8607 6.93136 15.0189C6.905 15.177 6.74155 15.3088 6.56757 15.3088C6.39358 15.3088 6.23013 15.1876 6.20904 15.0399C6.18795 14.8923 6.10886 14.4336 6.0456 14.0171C5.97706 13.6006 6.06669 13.1841 6.24595 13.0945H6.24067ZM4.68007 13.7377C4.86987 13.6744 5.22312 13.8958 5.46038 14.228C5.7029 14.5602 5.97179 14.9398 6.06669 15.0663C6.16159 15.1981 6.13523 15.4037 6.01396 15.525C5.8927 15.6463 5.69235 15.6779 5.57109 15.5883C5.44983 15.4986 5.07022 15.2297 4.73279 14.9819C4.39009 14.7341 4.16339 14.3756 4.22666 14.1911C4.28992 14.0013 4.49554 13.7957 4.68534 13.7324L4.68007 13.7377ZM3.57815 16.4002C3.48853 16.2209 3.48853 15.931 3.57815 15.757C3.66778 15.5777 4.07375 15.4881 4.47972 15.5514C4.88569 15.6146 5.34438 15.6884 5.50255 15.7148C5.66072 15.7412 5.79253 15.9046 5.79253 16.0786C5.79253 16.2526 5.67127 16.416 5.52364 16.4371C5.37602 16.4635 4.91732 16.5373 4.50081 16.6005C4.0843 16.6691 3.66778 16.5795 3.57815 16.4002Z" fill="white"/>
<path d="M17.5068 13.7483C17.7915 12.8679 18.0287 11.5972 18.0287 10.9171V10.063C17.8969 10.0735 17.7651 10.0841 17.628 10.0841C17.4909 10.0841 17.3592 10.0735 17.2273 10.063V10.9171C17.2273 11.5129 17.0059 12.6991 16.7476 13.5005C16.5103 14.2281 15.6246 15.0611 14.8179 15.3195C13.969 15.5884 12.2028 15.5093 10.9638 15.1402C9.6932 14.7659 7.95861 14.7079 7.24157 15.3406C6.71961 15.7993 6.16602 16.5954 6.16602 17.1648V17.8555C6.16602 18.0769 6.34528 18.2562 6.56672 18.2562C6.78815 18.2562 6.9674 18.0769 6.9674 17.8555V17.1648C6.9674 16.9539 7.27847 16.3739 7.77407 15.9416C8.14313 15.62 9.48757 15.5357 10.7424 15.91C12.1554 16.3318 14.0587 16.4109 15.0657 16.084C16.1202 15.7466 17.1957 14.7237 17.512 13.7536L17.5068 13.7483Z" fill="white"/>
<path d="M21.9999 5.37602C21.9999 2.9613 20.0438 1 17.6238 1C15.2038 1 13.2478 2.95602 13.2478 5.37602C13.2478 7.79601 15.2038 9.75205 17.6238 9.75205C20.0438 9.75205 21.9999 7.79601 21.9999 5.37602ZM17.6238 9.00337C15.6204 9.00337 13.9965 7.3795 13.9965 5.37602C13.9965 3.37254 15.6204 1.74868 17.6238 1.74868C19.6273 1.74868 21.2512 3.37254 21.2512 5.37602C21.2512 7.3795 19.6273 9.00337 17.6238 9.00337Z" fill="white"/>
<path d="M19.9175 3.45694C19.9175 3.45694 19.8806 3.48857 19.8437 3.51493L17.893 5.01228C17.8613 5.03865 17.8139 5.07554 17.8033 5.08609C17.7875 5.10191 17.7453 5.09663 17.719 5.08609H17.6926C17.603 5.05973 17.5081 5.0861 17.4343 5.14409C17.3499 5.21263 17.313 5.31807 17.3236 5.41297V5.42879C17.3236 5.42879 17.3236 5.47096 17.313 5.47623C17.3025 5.48151 17.2656 5.51315 17.2287 5.53952L17.0441 5.68714C17.0072 5.7135 16.9756 5.73985 16.9756 5.73985C16.9756 5.73985 16.9756 5.75039 16.9756 5.75567C16.9756 5.75567 17.0178 5.75567 17.0599 5.73985L17.1654 5.7135C17.2076 5.70295 17.2287 5.72932 17.2076 5.76622L17.1601 5.8664C17.1443 5.90858 17.1338 5.94548 17.139 5.95076C17.139 5.95603 17.1496 5.95603 17.1548 5.95076C17.1548 5.95076 17.1918 5.91911 17.2234 5.89275L17.3921 5.74513C17.4237 5.71877 17.4606 5.68714 17.4765 5.67132C17.4923 5.66078 17.5186 5.6555 17.5397 5.66605H17.5608C17.6504 5.69241 17.7506 5.67131 17.8297 5.60804C17.9141 5.5395 17.951 5.43934 17.9404 5.33917V5.31807C17.9404 5.31807 17.9404 5.27589 17.951 5.26535C17.9668 5.2548 18.0037 5.22317 18.0353 5.19154L19.8859 3.54656C19.9175 3.51493 19.9492 3.48857 19.9544 3.4833C19.9544 3.4833 19.9544 3.46749 19.9492 3.45694C19.9439 3.4464 19.9281 3.44113 19.9281 3.44641L19.9175 3.45694ZM17.7348 5.50787C17.6663 5.56586 17.5555 5.55533 17.4923 5.48679C17.429 5.41298 17.4448 5.30752 17.5134 5.24425C17.5872 5.18626 17.6926 5.1968 17.7559 5.26535C17.8192 5.33916 17.8086 5.44987 17.7348 5.50787Z" fill="white"/>
</svg>
