<svg width="93" height="93" viewBox="0 0 93 93" fill="none" xmlns="http://www.w3.org/2000/svg">
<g clip-path="url(#clip0_1307_1775)">
<path d="M81.3754 46.5002C81.3736 53.0901 79.4916 59.5427 75.9504 65.1002L81.3754 81.3752L65.1004 75.9502C58.559 80.0712 50.833 81.9 43.1383 81.1491C35.4437 80.3981 28.2171 77.1099 22.5959 71.8019C16.9747 66.494 13.278 59.4676 12.0876 51.8286C10.8971 44.1895 12.2805 36.3715 16.02 29.6048C19.7595 22.8381 25.6428 17.5069 32.7441 14.4501C39.8454 11.3934 47.7615 10.7846 55.2467 12.7196C62.7318 14.6547 69.3611 19.0237 74.0913 25.139C78.8214 31.2544 81.3839 38.769 81.3754 46.5002Z" fill="#6D6D6D"/>
<g clip-path="url(#clip1_1307_1775)" filter="url(#filter0_d_1307_1775)">
<g filter="url(#filter1_d_1307_1775)">
<path d="M72.2691 42.1912L54.3649 31.8784L36.4669 21.5717C35.138 20.8055 33.6201 20.8055 32.2911 21.5717C30.9622 22.3379 30.2063 23.6513 30.2063 25.1775V36.9497C30.0295 39.6191 28.0361 40.9265 26.0122 42.1669H34.2602C34.5954 42.1669 34.8637 42.1426 35.1989 42.1061C37.1741 41.875 37.8995 41.6318 39.1126 41.121C41.7522 40.0144 42.752 38.9685 44.8795 37.6003C47.1777 36.1227 49.5125 36.4693 52.1094 38.2449C54.4625 39.8563 56.6692 42.2338 57.1325 43.0182C57.4313 43.529 57.035 43.7357 56.718 43.7965C56.6083 43.8209 56.5168 43.8269 56.4071 43.7965C56.401 43.7965 52.4508 42.7811 51.1157 42.3737C49.7807 41.9663 49.4332 42.2277 49.4332 42.2277C49.4332 42.2277 47.9275 42.8601 46.9948 45.3167C46.0682 47.7733 46.3852 50.0171 46.623 50.8075C46.8607 51.598 47.6044 51.7561 47.6044 51.7561C47.6044 51.7561 52.658 53.0878 53.6273 53.404C54.5966 53.7202 54.4503 53.9695 53.987 54.3404C53.5237 54.7113 51.8046 55.368 48.9151 55.8727C46.0316 56.3713 44.2394 55.593 43.0141 55.0518C41.7888 54.5107 40.2952 53.0939 39.5271 52.4311C37.3143 50.5278 34.0956 49.6096 31.2121 49.5549H26C28.1153 50.6677 30.0173 51.9507 30.2002 54.6444V66.4166C30.2002 67.9489 30.9622 69.2624 32.285 70.0224C33.614 70.7886 35.1319 70.7886 36.4608 70.0224L54.3649 59.7096L72.2691 49.3968C73.598 48.6307 74.36 47.3172 74.36 45.791C74.36 44.2647 73.598 42.9452 72.2691 42.1852V42.1912ZM52.8897 50.2785L52.0545 52.3581L51.2194 50.2785L49.1345 49.4455L51.2194 48.6124L52.0545 46.5328L52.8897 48.6124L54.9745 49.4455L52.8897 50.2785ZM55.8097 46.9463L55.1818 48.6124L54.5539 46.9463L52.8836 46.32L54.5539 45.6937L55.1818 44.0276L55.8097 45.6937L57.48 46.32L55.8097 46.9463Z" fill="white"/>
</g>
</g>
<path d="M69.2158 11.9131C70.8392 12.4678 70.9013 14.7164 69.3789 15.3809L69.1865 15.4531L65.833 16.5986C65.0361 16.8709 64.299 17.2909 63.6582 17.834L63.3896 18.0742C62.6898 18.7348 62.1395 19.5375 61.7764 20.4287L61.7705 20.4424L61.7656 20.4561L61.6494 20.7676L61.6445 20.7803L61.6396 20.7939L60.4854 24.1748C59.9303 25.7989 57.68 25.8595 57.0166 24.3369L56.9492 24.1592L55.7988 20.7939C55.4878 19.8829 54.9849 19.0488 54.3242 18.3486C53.6636 17.6486 52.8601 17.0986 51.9687 16.7354L51.9551 16.7305L51.9424 16.7246L51.6328 16.6094L51.6191 16.6035L51.6045 16.5986L48.2227 15.4443C46.6464 14.9057 46.5427 12.7715 47.9268 12.04L48.0654 11.9736L48.2256 11.9111L51.6035 10.7578C52.4006 10.4857 53.1382 10.0665 53.7793 9.52344L54.0479 9.2832C54.7479 8.62262 55.2988 7.82005 55.6621 6.92871L55.667 6.91504L55.6729 6.90234L55.7881 6.59277L55.7939 6.5791L55.7988 6.56445L56.9531 3.18359C57.5086 1.55713 59.7605 1.49781 60.4219 3.02148L60.4941 3.20703L61.6396 6.56445C61.9119 7.36127 62.331 8.09946 62.874 8.74023L63.1143 9.00879C63.775 9.70864 64.5784 10.259 65.4697 10.6221L65.4824 10.627L65.4961 10.6318L65.8057 10.748L65.8193 10.7529L65.834 10.7578L69.2158 11.9131ZM73.4795 25.1396C73.4795 25.2003 73.4668 25.2604 73.4424 25.3154L73.4141 25.3691C73.3741 25.4331 73.3172 25.4839 73.251 25.5195L73.1602 25.5576L71.7168 26.0508L71.252 26.209L71.0928 26.6738L70.5918 28.1455L70.5908 28.1465C70.5632 28.2275 70.5123 28.2985 70.4443 28.3506C70.3933 28.3896 70.3348 28.4173 70.2725 28.4307L70.209 28.4395C70.1235 28.4449 70.038 28.4248 69.9639 28.3818C69.8944 28.3415 69.8396 28.2815 69.8018 28.2109L69.7637 28.1182L69.2705 26.6758L69.1123 26.21L68.6465 26.0518L67.1758 25.5498L67.1748 25.5498C67.1142 25.5291 67.0593 25.4953 67.0137 25.4512L66.9707 25.4033C66.9318 25.3524 66.905 25.2936 66.8916 25.2314L66.8828 25.168C66.8774 25.0825 66.8974 24.9969 66.9404 24.9229C66.9818 24.8517 67.0432 24.7946 67.1162 24.7568L67.2002 24.7227L68.6455 24.2295L69.1113 24.0713L69.2695 23.6055L69.7705 22.1348L69.7715 22.1338L69.7959 22.0752C69.825 22.0184 69.8669 21.9689 69.918 21.9297C69.9689 21.8907 70.0276 21.863 70.0898 21.8496L70.1533 21.8408C70.2174 21.8367 70.2816 21.8466 70.3408 21.8701L70.3984 21.8984C70.4685 21.9392 70.5256 21.9988 70.5635 22.0703L70.5967 22.1533L71.0918 23.6045L71.25 24.0693L71.7158 24.2285L73.1865 24.7295C73.272 24.7587 73.3459 24.8142 73.3984 24.8877C73.4378 24.9428 73.4642 25.0059 73.4746 25.0723L73.4795 25.1396Z" fill="#6D6D6D" stroke="white" stroke-width="2"/>
<path d="M75.6758 24.7983C76.4309 25.0566 76.4616 26.1008 75.7568 26.4136L75.6611 26.4497L74.0576 26.9985C73.6739 27.1297 73.3183 27.3308 73.0098 27.5923L72.8809 27.7085C72.5439 28.0266 72.2793 28.4132 72.1045 28.8423L72.0986 28.856L72.043 29.0044L72.0391 29.0181L71.4863 30.6353C71.2272 31.3926 70.1775 31.4209 69.8682 30.7104L69.834 30.6206L69.2861 29.0181C69.1551 28.6342 68.953 28.2789 68.6914 27.9702L68.5762 27.8403C68.2978 27.5453 67.9666 27.3058 67.6006 27.1333L67.4424 27.064L67.4287 27.0591L67.2812 27.0034L67.2734 27.0005L67.2666 26.9985L65.6494 26.4458C64.9379 26.2027 64.8688 25.2618 65.4502 24.8921L65.5752 24.8267L65.6562 24.7954L67.2666 24.2456C67.7051 24.0959 68.1064 23.8536 68.4434 23.5356C68.7382 23.2574 68.9779 22.9268 69.1504 22.561L69.2207 22.4019L69.2256 22.3882L69.2812 22.2407L69.2832 22.2339L69.2861 22.2271L69.8379 20.6099C70.0811 19.8979 71.0217 19.8291 71.3916 20.4106L71.458 20.5366L71.4893 20.6157L72.0391 22.2271C72.1701 22.6105 72.3715 22.9655 72.6328 23.2739L72.749 23.4038C73.0273 23.6985 73.3579 23.9385 73.7236 24.1108L73.8828 24.1802L73.8955 24.1851L74.0439 24.2407L74.0508 24.2437L74.0576 24.2456L75.6758 24.7983Z" fill="#6D6D6D" stroke="white"/>
</g>
<defs>
<filter id="filter0_d_1307_1775" x="22" y="21" width="56.3604" height="57.6001" filterUnits="userSpaceOnUse" color-interpolation-filters="sRGB">
<feFlood flood-opacity="0" result="BackgroundImageFix"/>
<feColorMatrix in="SourceAlpha" type="matrix" values="0 0 0 0 0 0 0 0 0 0 0 0 0 0 0 0 0 0 127 0" result="hardAlpha"/>
<feOffset dy="4"/>
<feGaussianBlur stdDeviation="2"/>
<feComposite in2="hardAlpha" operator="out"/>
<feColorMatrix type="matrix" values="0 0 0 0 0 0 0 0 0 0 0 0 0 0 0 0 0 0 0.25 0"/>
<feBlend mode="normal" in2="BackgroundImageFix" result="effect1_dropShadow_1307_1775"/>
<feBlend mode="normal" in="SourceGraphic" in2="effect1_dropShadow_1307_1775" result="shape"/>
</filter>
<filter id="filter1_d_1307_1775" x="21.8" y="20.7971" width="56.7604" height="58.0001" filterUnits="userSpaceOnUse" color-interpolation-filters="sRGB">
<feFlood flood-opacity="0" result="BackgroundImageFix"/>
<feColorMatrix in="SourceAlpha" type="matrix" values="0 0 0 0 0 0 0 0 0 0 0 0 0 0 0 0 0 0 127 0" result="hardAlpha"/>
<feOffset dy="4"/>
<feGaussianBlur stdDeviation="2.1"/>
<feComposite in2="hardAlpha" operator="out"/>
<feColorMatrix type="matrix" values="0 0 0 0 0 0 0 0 0 0 0 0 0 0 0 0 0 0 0.25 0"/>
<feBlend mode="normal" in2="BackgroundImageFix" result="effect1_dropShadow_1307_1775"/>
<feBlend mode="normal" in="SourceGraphic" in2="effect1_dropShadow_1307_1775" result="shape"/>
</filter>
<clipPath id="clip0_1307_1775">
<rect width="93" height="93" fill="white"/>
</clipPath>
<clipPath id="clip1_1307_1775">
<rect width="48.36" height="49.6" fill="white" transform="translate(26 21)"/>
</clipPath>
</defs>
</svg>
