<svg width="28" height="28" viewBox="0 0 28 28" fill="none" xmlns="http://www.w3.org/2000/svg">
<path d="M26.6875 21H1.3125C1.19647 21 1.08519 20.9539 1.00314 20.8719C0.921094 20.7898 0.875 20.6785 0.875 20.5625V4.8125C0.875 4.69647 0.921094 4.58519 1.00314 4.50314C1.08519 4.42109 1.19647 4.375 1.3125 4.375H26.6875C26.8035 4.375 26.9148 4.42109 26.9969 4.50314C27.0789 4.58519 27.125 4.69647 27.125 4.8125V20.5625C27.125 20.6785 27.0789 20.7898 26.9969 20.8719C26.9148 20.9539 26.8035 21 26.6875 21Z" fill="#A4A4A4"/>
<path d="M21.6562 21.875H6.34375C6.22294 21.875 6.125 21.9729 6.125 22.0938V23.4062C6.125 23.5271 6.22294 23.625 6.34375 23.625H21.6562C21.7771 23.625 21.875 23.5271 21.875 23.4062V22.0938C21.875 21.9729 21.7771 21.875 21.6562 21.875Z" fill="#A4A4A4"/>
</svg>
