<svg width="82" height="87" viewBox="0 0 82 87" fill="none" xmlns="http://www.w3.org/2000/svg">
<g filter="url(#filter0_d_1236_17102)">
<path fill-rule="evenodd" clip-rule="evenodd" d="M74.8219 45.2434L47.4247 61.6632L20.0274 78.083C18 79.3056 15.6713 79.3056 13.6302 78.083C11.6028 76.8604 10.4384 74.7707 10.4384 72.3397V53.6026C10.1644 49.3235 7.24659 47.2621 4.01371 45.4993H11.9863C16.3973 45.5846 21.3288 47.0489 24.7123 50.0769C25.8904 51.1289 28.1781 53.3893 30.0548 54.2565C31.9315 55.1237 34.6712 56.3605 39.0959 55.5644C43.5069 54.7683 46.1507 53.7163 46.8493 53.1192C47.5617 52.5364 47.7808 52.1241 46.3014 51.6265C44.8219 51.1289 37.0822 48.9965 37.0822 48.9965C37.0822 48.9965 35.9452 48.7406 35.5891 47.4753C35.2192 46.2101 34.7397 42.6418 36.1507 38.7323C37.5753 34.8228 39.8767 33.8135 39.8767 33.8135C39.8767 33.8135 40.3973 33.387 42.4521 34.0409C44.4932 34.6949 50.548 36.3013 50.548 36.3155C50.7123 36.3582 50.8493 36.3582 51.0137 36.3155C51.4932 36.216 52.1096 35.8891 51.6439 35.0787C50.9315 33.8277 47.5617 30.0462 43.9589 27.473C39.9863 24.644 36.411 24.0895 32.8904 26.4494C29.6302 28.6245 28.0959 30.3021 24.0685 32.0507C22.2055 32.861 21.0959 33.2448 18.0685 33.6144C17.5616 33.6713 17.1507 33.714 16.6301 33.714H4C7.10959 31.7379 10.1507 29.6623 10.4247 25.4116V6.66034C10.4247 4.22935 11.589 2.13955 13.6164 0.916952C15.6438 -0.305651 17.9726 -0.305651 20.0137 0.916952L47.411 17.3368L74.8082 33.7566C76.8356 34.9792 78 37.069 78 39.5C78 41.931 76.8356 44.0208 74.8082 45.2434H74.8219Z" fill="#363636"/>
</g>
<defs>
<filter id="filter0_d_1236_17102" x="0" y="0" width="82" height="87" filterUnits="userSpaceOnUse" color-interpolation-filters="sRGB">
<feFlood flood-opacity="0" result="BackgroundImageFix"/>
<feColorMatrix in="SourceAlpha" type="matrix" values="0 0 0 0 0 0 0 0 0 0 0 0 0 0 0 0 0 0 127 0" result="hardAlpha"/>
<feOffset dy="4"/>
<feGaussianBlur stdDeviation="2"/>
<feComposite in2="hardAlpha" operator="out"/>
<feColorMatrix type="matrix" values="0 0 0 0 0 0 0 0 0 0 0 0 0 0 0 0 0 0 0.25 0"/>
<feBlend mode="normal" in2="BackgroundImageFix" result="effect1_dropShadow_1236_17102"/>
<feBlend mode="normal" in="SourceGraphic" in2="effect1_dropShadow_1236_17102" result="shape"/>
</filter>
</defs>
</svg>
