<svg width="26" height="26" viewBox="0 0 26 26" fill="none" xmlns="http://www.w3.org/2000/svg">
<g clip-path="url(#clip0_1236_17121)">
<path d="M17.459 6.1024C17.7681 6.4141 18.0009 6.79315 18.1391 7.20983L18.5843 8.57646C18.6212 8.68219 18.69 8.77384 18.7813 8.83869C18.8726 8.90354 18.9818 8.93838 19.0938 8.93838C19.2057 8.93838 19.3149 8.90354 19.4062 8.83869C19.4975 8.77384 19.5663 8.68219 19.6032 8.57646L20.0484 7.20983C20.1869 6.79419 20.4203 6.41652 20.7302 6.10681C21.04 5.7971 21.4178 5.56385 21.8335 5.42558L23.2017 4.98115C23.3071 4.94391 23.3983 4.87493 23.4629 4.78369C23.5274 4.69245 23.562 4.58346 23.562 4.47171C23.562 4.35996 23.5274 4.25096 23.4629 4.15973C23.3983 4.06849 23.3071 3.99951 23.2017 3.96227L23.1741 3.95577L21.8067 3.51133C21.3908 3.37317 21.0129 3.13998 20.7029 2.83026C20.3929 2.52054 20.1594 2.14282 20.0208 1.72708L19.5764 0.360459C19.5393 0.254817 19.4703 0.163296 19.379 0.0985486C19.2877 0.0338009 19.1785 -0.000976563 19.0665 -0.000976562C18.9546 -0.000976562 18.8454 0.0338009 18.7541 0.0985486C18.6627 0.163296 18.5938 0.254817 18.5567 0.360459L18.1122 1.72708L18.1009 1.76121C17.9618 2.16649 17.7322 2.53475 17.4295 2.838C17.1269 3.14126 16.759 3.37153 16.354 3.51133L14.9858 3.95577C14.8804 3.99301 14.7892 4.06199 14.7246 4.15323C14.6601 4.24446 14.6255 4.35346 14.6255 4.46521C14.6255 4.57696 14.6601 4.68595 14.7246 4.77719C14.7892 4.86843 14.8804 4.93741 14.9858 4.97465L16.354 5.41827C16.7708 5.55721 17.1494 5.79202 17.459 6.1024ZM25.0421 10.0406L25.7879 10.2827L25.8034 10.286C25.8611 10.306 25.9112 10.3435 25.9466 10.3933C25.982 10.4431 26.0011 10.5027 26.0011 10.5638C26.0011 10.625 25.982 10.6846 25.9466 10.7344C25.9112 10.7842 25.8611 10.8217 25.8034 10.8417L25.0567 11.0846C24.8303 11.1604 24.6245 11.2877 24.4556 11.4565C24.2868 11.6252 24.1593 11.8309 24.0833 12.0572L23.8404 12.8031C23.82 12.8605 23.7823 12.9101 23.7325 12.9452C23.6828 12.9803 23.6234 12.9992 23.5625 12.9992C23.5016 12.9992 23.4422 12.9803 23.3925 12.9452C23.3427 12.9101 23.305 12.8605 23.2846 12.8031L23.0417 12.0572C22.9668 11.8298 22.8398 11.6231 22.6708 11.4535C22.5018 11.2839 22.2955 11.1562 22.0683 11.0806L21.3216 10.8385C21.2639 10.8184 21.2138 10.7809 21.1784 10.7311C21.143 10.6813 21.1239 10.6217 21.1239 10.5606C21.1239 10.4995 21.143 10.4399 21.1784 10.3901C21.2138 10.3403 21.2639 10.3027 21.3216 10.2827L22.0683 10.0398C22.292 9.96206 22.4948 9.83392 22.6611 9.66528C22.8273 9.49663 22.9526 9.292 23.0271 9.06721L23.27 8.32133C23.2904 8.26397 23.3281 8.21432 23.3778 8.17921C23.4276 8.14411 23.487 8.12526 23.5479 8.12526C23.6088 8.12526 23.6682 8.14411 23.7179 8.17921C23.7677 8.21432 23.8053 8.26397 23.8258 8.32133L24.0679 9.06721C24.1434 9.29394 24.2708 9.49992 24.4399 9.66877C24.609 9.83761 24.8152 9.96546 25.0421 10.0406ZM13 1.62471C14.1716 1.62471 15.3026 1.80183 16.3662 2.1309C16.2411 2.22047 16.1034 2.29086 15.9575 2.33971L14.625 2.79471C14.3324 2.88954 14.0696 3.05928 13.8629 3.28708C13.5785 3.26217 13.2909 3.24971 13 3.24971C7.61556 3.24971 3.25 7.61527 3.25 12.9997C3.25 18.3841 7.61556 22.7497 13 22.7497C18.0749 22.7497 22.2446 18.8725 22.7078 13.9178L22.7175 13.926C22.9516 14.089 23.2266 14.1835 23.5114 14.199C23.7963 14.2145 24.0799 14.1503 24.3303 14.0137C23.8176 19.8206 18.9402 24.3747 13 24.3747C6.71775 24.3747 1.625 19.282 1.625 12.9997C1.625 6.71746 6.71775 1.62471 13 1.62471ZM13 10.5622C13.2155 10.5622 13.4222 10.6478 13.5745 10.8002C13.7269 10.9526 13.8125 11.1592 13.8125 11.3747V18.6872C13.8125 18.9027 13.7269 19.1094 13.5745 19.2617C13.4222 19.4141 13.2155 19.4997 13 19.4997C12.7845 19.4997 12.5778 19.4141 12.4255 19.2617C12.2731 19.1094 12.1875 18.9027 12.1875 18.6872V11.3747C12.1875 11.1592 12.2731 10.9526 12.4255 10.8002C12.5778 10.6478 12.7845 10.5622 13 10.5622ZM13 8.93721C13.3232 8.93721 13.6332 8.80881 13.8618 8.58025C14.0903 8.35169 14.2188 8.04169 14.2188 7.71846C14.2188 7.39523 14.0903 7.08523 13.8618 6.85667C13.6332 6.62811 13.3232 6.49971 13 6.49971C12.6768 6.49971 12.3668 6.62811 12.1382 6.85667C11.9097 7.08523 11.7812 7.39523 11.7812 7.71846C11.7812 8.04169 11.9097 8.35169 12.1382 8.58025C12.3668 8.80881 12.6768 8.93721 13 8.93721Z" fill="white"/>
</g>
<defs>
<clipPath id="clip0_1236_17121">
<rect width="26" height="26" fill="white"/>
</clipPath>
</defs>
</svg>
