<svg width="32" height="32" viewBox="0 0 32 32" fill="none" xmlns="http://www.w3.org/2000/svg">
<g clip-path="url(#clip0_1239_17630)">
<path d="M16.0005 2.496C19.7145 2.496 23.0525 3.778 25.3005 6.084C27.1496 6.32685 28.8939 7.08195 30.3365 8.264C27.8145 2.964 22.5905 0 16.0005 0C9.50048 0 4.24048 2.96 1.68848 8.244C3.01094 7.16703 4.58688 6.44619 6.26648 6.15C8.47248 3.744 11.9485 2.496 16.0005 2.496Z" fill="#A4A4A4"/>
<path d="M24.0005 24C21.9199 23.9999 19.9213 23.1892 18.4285 21.74L18.4245 21.736C18.2522 21.6064 18.0673 21.4945 17.8725 21.402C17.2855 21.1322 16.6464 20.995 16.0005 21C15.1725 21 14.5425 21.206 14.1305 21.402C13.935 21.4943 13.7494 21.6062 13.5765 21.736L13.5725 21.74C12.6321 22.6529 11.4818 23.3208 10.2228 23.685C8.96383 24.0491 7.63463 24.0984 6.35212 23.8284C5.06961 23.5585 3.87307 22.9775 2.8677 22.1367C1.86234 21.2959 1.07895 20.221 0.586413 19.0064C0.0938761 17.7919 -0.0927199 16.4749 0.0430316 15.1714C0.178783 13.8678 0.632724 12.6176 1.36494 11.5306C2.09716 10.4435 3.08522 9.55309 4.24226 8.93747C5.39929 8.32185 6.68985 7.99992 8.00047 8H24.0005C26.1222 8 28.157 8.84285 29.6573 10.3431C31.1576 11.8434 32.0005 13.8783 32.0005 16C32.0005 18.1217 31.1576 20.1566 29.6573 21.6569C28.157 23.1571 26.1222 24 24.0005 24Z" fill="#A4A4A4"/>
</g>
<defs>
<clipPath id="clip0_1239_17630">
<rect width="32" height="32" fill="white"/>
</clipPath>
</defs>
</svg>
