<svg width="28" height="28" viewBox="0 0 28 28" fill="none" xmlns="http://www.w3.org/2000/svg">
<path d="M7.00034 14C7.00034 12.1435 7.73784 10.363 9.05059 9.05025C10.3633 7.7375 12.1438 7 14.0003 7C15.8569 7 17.6373 7.7375 18.9501 9.05025C20.2628 10.363 21.0003 12.1435 21.0003 14C21.0003 15.8565 20.2628 17.637 18.9501 18.9497C17.6373 20.2625 15.8569 21 14.0003 21C12.1438 21 10.3633 20.2625 9.05059 18.9497C7.73784 17.637 7.00034 15.8565 7.00034 14ZM23.3337 14C23.3362 12.5903 23.0171 11.1987 22.4004 9.93102C21.7838 8.66337 20.886 7.55317 19.7753 6.685L18.667 0H9.33367L8.22534 6.685C7.11473 7.55317 6.21691 8.66337 5.60027 9.93102C4.98363 11.1987 4.66444 12.5903 4.66701 14C4.66701 16.9633 6.05534 19.6117 8.22534 21.315L9.33367 28H18.667L19.7753 21.315C20.8847 20.4457 21.7815 19.3352 22.398 18.0678C23.0146 16.8005 23.3345 15.4094 23.3337 14Z" fill="#A4A4A4"/>
</svg>
