<svg width="37" height="39" viewBox="0 0 37 39" fill="none" xmlns="http://www.w3.org/2000/svg">
<g filter="url(#filter0_dd_136_25)">
<path d="M31.3898 16.7645L20.7912 10.5534L10.1961 4.34607C9.4094 3.88464 8.51084 3.88464 7.72415 4.34607C6.93746 4.80751 6.48998 5.59854 6.48998 6.51774V13.6077C6.38533 15.2154 5.2053 16.0027 4.00722 16.7498H8.88975C9.08823 16.7498 9.24701 16.7352 9.44549 16.7132C10.6147 16.574 11.0441 16.4276 11.7623 16.1199C13.3248 15.4534 13.9166 14.8235 15.1761 13.9995C16.5365 13.1096 17.9187 13.3184 19.4559 14.3877C20.8489 15.3582 22.1552 16.7901 22.4295 17.2625C22.6063 17.5702 22.3718 17.6947 22.1841 17.7313C22.1191 17.7459 22.065 17.7496 22.0001 17.7313C21.9965 17.7313 19.658 17.1197 18.8677 16.8743C18.0774 16.629 17.8717 16.7864 17.8717 16.7864C17.8717 16.7864 16.9804 17.1673 16.4283 18.6468C15.8798 20.1263 16.0674 21.4777 16.2081 21.9538C16.3489 22.4298 16.7891 22.5251 16.7891 22.5251C16.7891 22.5251 19.7807 23.3271 20.3545 23.5175C20.9283 23.7079 20.8417 23.8581 20.5674 24.0815C20.2932 24.3049 19.2755 24.7004 17.565 25.0043C15.8581 25.3046 14.7971 24.8359 14.0718 24.51C13.3465 24.184 12.4623 23.3307 12.0076 22.9316C10.6977 21.7853 8.79232 21.2323 7.08542 21.1994H4C5.25221 21.8695 6.37812 22.6423 6.48638 24.2646V31.3545C6.48638 32.2774 6.93746 33.0684 7.72054 33.5262C8.50723 33.9876 9.40579 33.9876 10.1925 33.5262L20.7912 27.3152L31.3898 21.1041C32.1765 20.6427 32.6276 19.8517 32.6276 18.9325C32.6276 18.0133 32.1765 17.2186 31.3898 16.7608V16.7645ZM19.9179 21.6352L19.4235 22.8876L18.9291 21.6352L17.6949 21.1334L18.9291 20.6317L19.4235 19.3793L19.9179 20.6317L21.152 21.1334L19.9179 21.6352ZM21.6464 19.6283L21.2747 20.6317L20.903 19.6283L19.9142 19.2511L20.903 18.8739L21.2747 17.8705L21.6464 18.8739L22.6352 19.2511L21.6464 19.6283Z" fill="#242424"/>
</g>
<path d="M31.3898 16.7645L20.7912 10.5534L10.1961 4.34607C9.4094 3.88464 8.51084 3.88464 7.72415 4.34607C6.93746 4.80751 6.48998 5.59854 6.48998 6.51774V13.6077C6.38533 15.2154 5.2053 16.0027 4.00722 16.7498H8.88975C9.08823 16.7498 9.24701 16.7352 9.44549 16.7132C10.6147 16.574 11.0441 16.4276 11.7623 16.1199C13.3248 15.4534 13.9166 14.8235 15.1761 13.9995C16.5365 13.1096 17.9187 13.3184 19.4559 14.3877C20.8489 15.3582 22.1552 16.7901 22.4295 17.2625C22.6063 17.5702 22.3718 17.6947 22.1841 17.7313C22.1191 17.7459 22.065 17.7496 22.0001 17.7313C21.9965 17.7313 19.658 17.1197 18.8677 16.8743C18.0774 16.629 17.8717 16.7864 17.8717 16.7864C17.8717 16.7864 16.9804 17.1673 16.4283 18.6468C15.8798 20.1263 16.0674 21.4777 16.2081 21.9538C16.3489 22.4298 16.7891 22.5251 16.7891 22.5251C16.7891 22.5251 19.7807 23.3271 20.3545 23.5175C20.9283 23.7079 20.8417 23.8581 20.5674 24.0815C20.2932 24.3049 19.2755 24.7004 17.565 25.0043C15.8581 25.3046 14.7971 24.8359 14.0718 24.51C13.3465 24.184 12.4623 23.3307 12.0076 22.9316C10.6977 21.7853 8.79232 21.2323 7.08542 21.1994H4C5.25221 21.8695 6.37812 22.6423 6.48638 24.2646V31.3545C6.48638 32.2774 6.93746 33.0684 7.72054 33.5262C8.50723 33.9876 9.40579 33.9876 10.1925 33.5262L20.7912 27.3152L31.3898 21.1041C32.1765 20.6427 32.6276 19.8517 32.6276 18.9325C32.6276 18.0133 32.1765 17.2186 31.3898 16.7608V16.7645ZM19.9179 21.6352L19.4235 22.8876L18.9291 21.6352L17.6949 21.1334L18.9291 20.6317L19.4235 19.3793L19.9179 20.6317L21.152 21.1334L19.9179 21.6352ZM21.6464 19.6283L21.2747 20.6317L20.903 19.6283L19.9142 19.2511L20.903 18.8739L21.2747 17.8705L21.6464 18.8739L22.6352 19.2511L21.6464 19.6283Z" fill="#242424"/>
<defs>
<filter id="filter0_dd_136_25" x="0.188173" y="0.188173" width="36.2513" height="38.6628" filterUnits="userSpaceOnUse" color-interpolation-filters="sRGB">
<feFlood flood-opacity="0" result="BackgroundImageFix"/>
<feColorMatrix in="SourceAlpha" type="matrix" values="0 0 0 0 0 0 0 0 0 0 0 0 0 0 0 0 0 0 127 0" result="hardAlpha"/>
<feOffset dy="2.48936"/>
<feGaussianBlur stdDeviation="1.24468"/>
<feComposite in2="hardAlpha" operator="out"/>
<feColorMatrix type="matrix" values="0 0 0 0 0 0 0 0 0 0 0 0 0 0 0 0 0 0 0.25 0"/>
<feBlend mode="normal" in2="BackgroundImageFix" result="effect1_dropShadow_136_25"/>
<feColorMatrix in="SourceAlpha" type="matrix" values="0 0 0 0 0 0 0 0 0 0 0 0 0 0 0 0 0 0 127 0" result="hardAlpha"/>
<feOffset/>
<feGaussianBlur stdDeviation="1.90591"/>
<feComposite in2="hardAlpha" operator="out"/>
<feColorMatrix type="matrix" values="0 0 0 0 1 0 0 0 0 1 0 0 0 0 1 0 0 0 1 0"/>
<feBlend mode="normal" in2="effect1_dropShadow_136_25" result="effect2_dropShadow_136_25"/>
<feBlend mode="normal" in="SourceGraphic" in2="effect2_dropShadow_136_25" result="shape"/>
</filter>
</defs>
</svg>
