<?xml version="1.0" encoding="utf-8"?>
<!-- Generator: Adobe Illustrator 26.5.0, SVG Export Plug-In . SVG Version: 6.00 Build 0)  -->
<svg version="1.1" id="Layer_1" xmlns="http://www.w3.org/2000/svg" xmlns:xlink="http://www.w3.org/1999/xlink" x="0px" y="0px"
	 viewBox="0 0 50 50" style="enable-background:new 0 0 50 50;" xml:space="preserve">
<style type="text/css">
	.st0{fill:none;}
	.st1{fill:#444444;}
</style>
<path class="st0" d="M0,26h24v24H0V26z"/>
<path class="st1" d="M25.8,22.8c-4.8-1.2-6.3-2.3-6.3-4.2c0-2.1,2.1-3.6,5.7-3.6c3.7,0,5.1,1.7,5.2,4.1h4.6
	c-0.1-3.4-2.3-6.5-6.7-7.5V7.4H22v4.2c-4.1,0.8-7.3,3.3-7.3,7.1c0,4.5,4,6.8,9.8,8.1c5.2,1.2,6.3,2.9,6.3,4.7c0,1.3-1,3.5-5.7,3.5
	c-4.3,0-6-1.8-6.2-4.1h-4.6c0.3,4.3,3.7,6.7,7.7,7.5v4.2h6.3v-4.2c4.1-0.7,7.3-2.9,7.3-6.9C35.7,25.9,30.6,24,25.8,22.8z"/>
</svg>
