<?xml version="1.0" encoding="utf-8"?>
<!-- Generator: Adobe Illustrator 26.5.0, SVG Export Plug-In . SVG Version: 6.00 Build 0)  -->
<svg version="1.1" id="Layer_1" xmlns="http://www.w3.org/2000/svg" xmlns:xlink="http://www.w3.org/1999/xlink" x="0px" y="0px"
	 viewBox="0 0 50 50" style="enable-background:new 0 0 50 50;" xml:space="preserve">
<style type="text/css">
	.st0{fill:#444444;}
</style>
<g>
	<g>
		<path class="st0" d="M18.8,34.9c0-0.9,0.3-1.6,0.6-2.4c0.5-1.1,0.9-2.2,1.4-3.2c0.3-0.7,0.6-1.3,0.9-2c0.4-0.9,0.8-1.8,1.2-2.7
			c0.3-0.6,0.6-1.3,0.8-1.9c0.6-1.3,1.1-2.6,1.7-3.9c0.5-1.1,0.9-2.1,1.4-3.2c0.5-1.2,1.1-2.5,1.6-3.8c0.4-0.8,0.7-1.7,1.1-2.5
			C30,8.3,30.5,7.2,31,6.2c0.1-0.3,0.4-0.5,0.6-0.4c0.3,0.1,0.5,0.3,0.5,0.6C32.1,6.6,32,6.8,32,7c-0.4,2.1-0.9,4.1-1.3,6.2
			c-0.4,1.9-0.8,3.7-1.2,5.6c-0.5,2.2-0.9,4.4-1.3,6.6c-0.3,1.3-0.5,2.5-0.8,3.8c-0.5,2.2-0.9,4.4-1.3,6.6c-0.2,0.9-0.6,1.8-1.3,2.4
			c-0.8,0.8-1.8,1-2.9,0.9c-1.1-0.1-1.9-0.8-2.5-1.7C19,36.6,18.8,35.7,18.8,34.9z M24.4,34.8c0-0.6-0.2-1.2-0.7-1.6
			c-0.4-0.4-1.3-0.5-1.9-0.3c-0.4,0.2-0.7,0.5-0.9,0.9c-0.3,0.8-0.3,1.6,0.3,2.3c0.4,0.6,1.3,0.8,2,0.6C24,36.4,24.3,35.7,24.4,34.8
			z"/>
		<path class="st0" d="M45.6,25.6c-0.1,0.1-0.3,0.2-0.4,0.3C45.1,26,44.9,26,44.8,26c-0.6,0.3-1.3,0.6-1.9,0.8
			c-0.8,0.4-1.6,0.7-2.5,1.1c-0.6,0.3-1.3,0.6-1.9,0.9c-0.4,0.2-0.4,0.1-0.6-0.3c-0.3-0.9-0.6-1.8-1-2.6c-0.5-1.1-1.1-2.2-1.8-3.2
			c-0.3-0.5-0.7-0.9-1.1-1.4c-0.1-0.2-0.3-0.4-0.5-0.5c-0.1-0.1-0.1-0.3,0-0.4c0.5-0.7,1-1.3,1.5-2c0.6-0.8,1.2-1.7,1.9-2.5
			c0.2-0.3,0.5-0.6,0.7-0.9c0.1-0.2,0.3-0.2,0.4,0c0.4,0.4,0.8,0.7,1.2,1.1c0.2,0.2,0.4,0.4,0.7,0.7c0.8,0.8,1.6,1.7,2.2,2.7
			c0.8,1.1,1.5,2.2,2.1,3.4c0.4,0.8,0.8,1.7,1.2,2.6C45.6,25.4,45.6,25.4,45.6,25.6z"/>
		<path class="st0" d="M38.3,39.3c0.1-0.3,0.1-0.6,0.2-0.9c0.3-1.9,0.4-3.7,0.3-5.6c0-0.5-0.1-1.1-0.2-1.6c-0.1-0.5-0.1-0.5,0.4-0.6
			c0.6-0.2,1.3-0.4,1.9-0.6c0.6-0.2,1.2-0.4,1.9-0.6c0.6-0.2,1.3-0.4,1.9-0.6c0.5-0.2,1.1-0.3,1.6-0.5c0.4-0.1,0.4-0.1,0.5,0.3
			c0.2,0.8,0.4,1.6,0.6,2.4c0.5,2.6,0.7,5.2,0.6,7.8c0,0,0,0.1,0,0.1c0,0.4-0.1,0.4-0.4,0.4c-1.6,0-3.2,0-4.8,0c-1.3,0-2.7,0-4,0
			C38.5,39.3,38.4,39.3,38.3,39.3z"/>
		<path class="st0" d="M22.3,15.1c0,0.3,0,0.4-0.4,0.4c-1.1,0-2.2,0.1-3.3,0.3c-0.7,0.2-1.5,0.4-2.2,0.6c-0.4,0.1-0.8,0.3-1.1,0.5
			c-0.6,0.3-1.2,0.7-1.8,1c-0.3,0.2-0.4,0.2-0.6-0.1c-0.6-1-1.2-1.9-1.8-2.9c-0.1-0.2-0.1-0.4,0.1-0.5c0.5-0.4,1.1-0.8,1.6-1.2
			c0.6-0.4,1.2-0.8,1.9-1.1c0.8-0.5,1.7-0.9,2.6-1.2c0.7-0.2,1.4-0.4,2.1-0.6c0.7-0.2,1.4-0.3,2-0.4c0.4-0.1,0.4,0,0.4,0.4
			C22.1,11.8,22.2,13.5,22.3,15.1z"/>
		<path class="st0" d="M5.3,27.8c-0.1-0.1-0.2-0.1-0.3-0.1c-0.4-0.2-0.8-0.4-1.2-0.5C3.6,27,3.5,27,3.4,26.9
			c-0.1-0.1-0.1-0.2-0.1-0.3c0.3-0.9,0.6-1.9,1-2.8c0.4-0.9,0.8-1.8,1.3-2.7c0.4-0.7,0.8-1.3,1.3-2c0.5-0.7,1-1.4,1.6-2
			c0.2-0.2,0.4-0.5,0.6-0.7c0.2-0.2,0.3-0.2,0.4,0c0.5,0.6,1,1.3,1.4,1.9c0.2,0.2,0.3,0.5,0.5,0.7c0.1,0.1,0.1,0.2,0,0.4
			c-0.1,0.1-0.1,0.2-0.2,0.2c-1,0.8-1.9,1.8-2.7,2.8c-0.5,0.7-1,1.3-1.4,2c-0.5,0.8-0.9,1.7-1.4,2.6c-0.1,0.2-0.2,0.4-0.3,0.6
			C5.5,27.7,5.4,27.7,5.3,27.8z"/>
		<path class="st0" d="M32.4,11.3c0.2,0.1,0.4,0.1,0.5,0.2c0.9,0.5,1.7,0.9,2.6,1.4c0.1,0,0.1,0.1,0.2,0.2c0.1,0.1,0.2,0.2,0.1,0.4
			c-0.2,0.3-0.3,0.6-0.5,0.8c-0.5,0.9-1.1,1.8-1.6,2.7c-0.4,0.7-0.8,1.4-1.2,2.1c-0.2,0.4-0.3,0.4-0.6,0.1c-0.3-0.2-0.6-0.4-0.9-0.7
			c-0.1-0.1-0.1-0.2-0.1-0.3c0.1-0.4,0.2-0.9,0.3-1.3c0.4-1.7,0.7-3.4,1.1-5.1C32.3,11.7,32.3,11.5,32.4,11.3z"/>
		<path class="st0" d="M3,39.3c-0.1,0-0.1,0-0.2,0c-0.2,0-0.3-0.1-0.3-0.3c-0.1-1-0.2-2-0.3-2.9c-0.1-1.9,0-3.8,0.3-5.7
			c0-0.3,0.1-0.7,0.2-1c0-0.2,0.1-0.3,0.3-0.2c0.5,0.2,1,0.3,1.5,0.5c0.2,0.1,0.2,0.2,0.1,0.4c-0.2,0.6-0.3,1.2-0.5,1.7
			c-0.3,1.3-0.5,2.6-0.6,4c0,1,0,2,0,3C3.6,39.3,3.6,39.3,3,39.3z"/>
		<path class="st0" d="M27.9,10c-0.1,0.3-0.2,0.6-0.4,0.9c-0.4,0.9-0.8,1.8-1.2,2.6c-0.3,0.6-0.6,1.3-0.8,1.9
			c-0.2,0.4-0.2,0.4-0.6,0.3c-0.2,0-0.4-0.1-0.6-0.1c-0.3-0.1-0.3-0.1-0.3-0.4c0-1,0.1-2.1,0.1-3.1c0-0.7,0.1-1.4,0.1-2.2
			c0-0.3,0.1-0.4,0.4-0.4c1,0.1,2,0.2,3,0.2C27.7,9.9,27.8,9.9,27.9,10z"/>
	</g>
</g>
</svg>
