<?xml version="1.0" encoding="utf-8"?>
<!-- Generator: Adobe Illustrator 26.5.0, SVG Export Plug-In . SVG Version: 6.00 Build 0)  -->
<svg version="1.1" id="Layer_1" xmlns="http://www.w3.org/2000/svg" xmlns:xlink="http://www.w3.org/1999/xlink" x="0px" y="0px"
	 viewBox="0 0 50 50.1" style="enable-background:new 0 0 50 50.1;" xml:space="preserve">
<style type="text/css">
	.st0{fill:none;}
	.st1{fill:#444444;}
</style>
<g>
	<rect x="26" y="26.1" class="st0" width="24" height="24"/>
</g>
<g>
	<g>
		<g>
			<path class="st1" d="M30,7.5H20v3.3h10V7.5z M23.3,29.2h3.3v-10h-3.3V29.2z M36.7,18.2l2.4-2.4c-0.7-0.9-1.5-1.7-2.4-2.4
				l-2.4,2.4c-2.6-2.1-5.8-3.3-9.4-3.3c-8.3,0-15,6.7-15,15s6.7,15,15,15s15-6.7,15-15C40,24,38.8,20.7,36.7,18.2z M25,39.2
				c-6.5,0-11.7-5.2-11.7-11.7S18.5,15.8,25,15.8s11.7,5.2,11.7,11.7S31.5,39.2,25,39.2z"/>
		</g>
	</g>
</g>
</svg>
