<svg xmlns="http://www.w3.org/2000/svg" width="72" height="45" viewBox="0 0 72 45"><path fill="#B3B3B3" d="M30.858 32.64a3.27 3.27 0 01-.397-1.802c.33-5.537 1.697-11.26 4.76-15.992a28.74 28.74 0 00-2.32-3.157c-5.8-6.835-13.587-9.776-17.683-6.79l-.025-.027c-.06.05-.11.112-.172.164-.044.04-.1.066-.145.105a5.54 5.54 0 00-.872.97c-2.833 3.46-3.17 8.74-1.115 13.828l-.143-.168c-1.977 1.686-1.557 5.433.938 8.37 2.496 2.94 6.118 3.958 8.096 2.272l-.205-.242c3.032 1.844 6.305 2.7 9.283 2.47zm-3.43-7.11c-1.718 1.462-5.132.27-7.626-2.67-2.493-2.94-3.125-6.51-1.407-7.977 1.72-1.463 5.133-.268 7.625 2.672 2.494 2.942 3.125 6.51 1.408 7.974z"/><path fill="#B3B3B3" d="M23.8 21.657c-.79.48-1.437.112-1.437-.814v-2.438c0-.928.56-1.176 1.244-.553l1.342 1.224c.685.625.596 1.526-.195 2.006l-.954.575z"/><path fill="#FFF" d="M15.654 8.352s.06-.055.175-.156c.12-.096.274-.266.51-.426.258-.124.56-.37.953-.48.193-.064.4-.15.624-.21l.722-.122c.5-.043 1.062-.08 1.638.004.58.038 1.182.178 1.788.346l.916.293c.3.126.603.253.906.378.592.29 1.2.578 1.764.937.574.34 1.11.73 1.644 1.12.52.395 1.01.812 1.47 1.232.455.424.89.838 1.264 1.27.392.408.742.818 1.04 1.214.31.376.594.755.798 1.097.217.334.406.627.563.865.31.483.474.77.474.77s-.233-.23-.625-.648c-.195-.21-.43-.467-.7-.76-.266-.305-.578-.594-.93-.94a35.003 35.003 0 00-2.45-2.204c-.46-.388-.968-.744-1.468-1.125-.516-.36-1.037-.726-1.588-1.042-.53-.352-1.102-.633-1.656-.915-.28-.132-.563-.26-.838-.39-.285-.106-.564-.215-.84-.32-.562-.176-1.104-.364-1.636-.446-.528-.12-1.035-.146-1.504-.17-.232.01-.46.02-.673.026-.212.02-.41.065-.6.096-.394.04-.676.21-.952.287-.506.258-.79.422-.79.422zm12.661 22.773l-1.133-.426c-.355-.144-.792-.315-1.29-.513-.48-.24-1.01-.557-1.585-.898-.29-.173-.592-.35-.9-.536-.313-.19-.588-.44-.897-.666-.6-.477-1.267-.94-1.885-1.506-.587-.598-1.19-1.217-1.81-1.844-.654-.652-1.115-1.36-1.69-2.043-.524-.715-.993-1.502-1.48-2.24-.407-.78-.837-1.538-1.167-2.31-.31-.783-.66-1.518-.836-2.27-.215-.74-.422-1.44-.508-2.107-.053-.33-.107-.648-.156-.95-.037-.303-.023-.598-.037-.868-.005-.546-.05-1.015.025-1.404.097-.775.163-1.21.163-1.21l.03 1.212c-.024.383.08.844.15 1.365.057.526.208 1.104.372 1.733.13.638.387 1.295.646 1.993.222.708.63 1.393.94 2.136.343.73.81 1.437 1.2 2.188.48.7.918 1.422 1.44 2.12l.804 1.04.4.522c.11.143.283.31.42.46.576.626 1.144 1.243 1.69 1.843.587.562 1.188 1.063 1.733 1.573.28.242.536.514.816.713.286.2.56.396.825.58l1.445 1.037c.473.262.88.482 1.218.67.678.383 1.057.602 1.057.602z"/><path fill="#414141" d="M57.35 18.85c.642-6.293-1.333-11.805-5.71-14.157-1.444-.773-3.03-1.12-4.68-1.123-2.817-.398-6.14.904-9.31 3.456-2.907 2.157-5.59 5.23-7.613 9.02a28.89 28.89 0 00-2.5 6.425c-2.333 7.55-1.337 14.413 2.938 16.71.27.147.555.255.838.358.396.3.813.58 1.26.82 3.938 2.114 8.917 1.187 13.422-1.94.198.15.405.284.627.403 3.676 1.973 9.044-.903 11.995-6.427 2.945-5.498 2.368-11.547-1.268-13.543zm-8.934 7.064c-3.19 5.973-8.756 9.213-12.43 7.24-3.677-1.975-4.068-8.414-.878-14.383 3.19-5.97 8.757-9.21 12.433-7.24 3.677 1.974 4.067 8.415.876 14.384z"/><path fill="#414141" d="M39.104 24.82c-.9-.217-1.125-.957-.502-1.645l2.84-3.112c.623-.687 1.224-.495 1.33.43l.435 3.698c.106.923-.54 1.497-1.437 1.276l-2.666-.646z"/><path fill="#FFF" d="M56.698 22.555s-.05.964-.31 2.347c-.067.35-.126.727-.233 1.113-.14.385-.275.797-.447 1.213-.17.418-.328.86-.523 1.29l-.29.66-.07.167-.1.174-.167.306c-.24.396-.48.8-.72 1.19-.238.395-.557.76-.818 1.122-.527.736-1.13 1.318-1.64 1.822-.495.51-1 .848-1.33 1.104-.335.246-.534.373-.534.373s.11-.217.32-.572c.2-.365.54-.84.89-1.44.173-.304.362-.624.58-.95.222-.326.4-.697.626-1.06.436-.71.896-1.51 1.344-2.335l.184-.3.076-.128.07-.15.29-.602c.187-.398.407-.777.603-1.154.193-.375.408-.73.605-1.072.168-.363.328-.713.475-1.027a20.013 20.013 0 011.118-2.092zm-22.79 13.943s-.295-.137-.8-.398c-.245-.14-.51-.375-.843-.617a7.32 7.32 0 01-.933-1c-.292-.406-.606-.86-.835-1.393a4.662 4.662 0 01-.346-.816c-.095-.283-.216-.574-.282-.88-.146-.61-.292-1.247-.342-1.9-.08-.655-.073-1.323-.07-1.985.038-.66.08-1.323.19-1.968.068-.648.25-1.268.382-1.87.146-.603.354-1.16.52-1.697.207-.527.41-1.02.603-1.472.214-.44.424-.842.608-1.19.178-.356.377-.644.52-.89.3-.484.48-.752.48-.752s-.105.312-.31.84c-.095.265-.24.573-.353.952-.12.375-.255.793-.416 1.246-.132.46-.274.96-.43 1.484-.112.535-.26 1.095-.376 1.675-.102.584-.22 1.188-.283 1.805-.096.615-.122 1.242-.15 1.87-.013.624-.03 1.255.036 1.862.035.31.047.61.086.91l.15.877c.042.292.146.558.208.83.062.276.146.538.25.78.173.51.406.953.628 1.367.24.396.49.752.723 1.055.264.27.47.537.69.717.45.347.698.558.698.558zm17.887-29.61l.236.397c.165.252.374.64.59 1.17.425 1.047.882 2.633.972 4.59.035.977.023 2.038-.094 3.15-.096 1.115-.3 2.28-.584 3.47-.293 1.184-.645 2.397-1.11 3.59a33.818 33.818 0 01-1.58 3.544c-.298.604-.628 1.128-.938 1.692-.348.55-.678 1.115-1.04 1.64-.706 1.067-1.493 2.056-2.282 2.983-.8.918-1.633 1.758-2.48 2.488-.826.75-1.686 1.37-2.484 1.922-.813.537-1.6.97-2.32 1.285a14.09 14.09 0 01-1.916.707c-.545.15-.98.23-1.28.268-.296.04-.456.064-.456.064s.156-.04.444-.118c.296-.064.71-.21 1.23-.398.52-.2 1.138-.475 1.812-.852.678-.377 1.398-.86 2.17-1.414.748-.578 1.55-1.23 2.314-1.998.782-.75 1.54-1.613 2.303-2.52.75-.92 1.47-1.91 2.155-2.948.352-.516.656-1.055.986-1.586.302-.56.647-1.125.91-1.676a32.45 32.45 0 001.565-3.43c.457-1.157.852-2.32 1.16-3.464.295-1.146.564-2.264.713-3.34.17-1.074.232-2.104.25-3.05-.016-.946-.05-1.818-.164-2.583a12.225 12.225 0 00-.43-1.953c-.09-.264-.17-.5-.236-.705l-.223-.507-.19-.42z"/></svg>