<svg xmlns="http://www.w3.org/2000/svg" width="72" height="45"><path fill="#B1B1B1" d="M17.6 17v13s.8.9 1.3 1c.7.1 2.2.1 3-.4.8-.5.6-1.7.6-1.7v-9.3L17.6 17zM41.5 41.1l-13.5.3-.6-.9-.3-2.7V20.5l-1.7-1.8-2.1-2.2-.8-3.9.9-3.3s3.5-.6 8.9-.5c5.3.2 9.1.6 9.8.7.7.1 2.3 5.9 2.3 5.9l-.4 2.7-1.1 2.7.1 15.3-1.2 2.6-.3 2.4z"/><path fill="#414141" d="M28.1 43.1s-.2.5-1.3.6c-1.1.1-7.6.5-8.6.5s-3.2-1.3-4-2.1l-.2-2.2s-.2-.4.9-.8.4-.8.4-.8-.6-.7-.2-1.5c0 0-.8-.4-.6-3.1.1-2.7 3.1-3.9 3.1-3.9s1.1.9 2 1c.9.2 2.8-.1 2.8-1.3v-8.1c0-.5-.3-1.1-1.4-1.8-1.1-.7-5.2-3.9-5.2-3.9L14 16s-.5-.1-.5-1.2.2-3.4.3-4.6c.2-1.2 2-2 3.4-2.6 0 0 .7-3.5 1.3-4.7C19 1.7 19.9.4 21.7.2c1.9-.2 5.2-.2 5.2-.2l.8.2h.4s.3-.2.5-.2H30c.2 0 .8.3.8.4h.5s.2-.3.4-.3.9 0 1.1.1c.3.1 1 .4 1 .4h.4s.2-.2.4-.2 1 0 1.3.1c.2 0 1.2.5 1.2.5s.5-.3.7-.3c.2 0 4 .6 5 .9 1.1.3 2 1.8 2.3 2.3S46.5 9 46.5 9s1.7.6 2.6 1.9 1.3 2.1 1.5 4.8c0 0-.2.9-1.4 2.2-1.2 1.2-2 2.1-2.1 2.3-.1.2-.3.6-.3.9s.1 7.4.1 7.7 0 .9.4 1.3 3 2.8 3.1 3.3c.1.5 0 2.3 0 2.3s-.7 1-1 1c-.3 0-.5.1-.5.1l-.7 5.2s-6.1.5-6.6.5-1-.2-1.5-.4-2.2-1-2.2-1 2.4-.1 2.7-.1c.3 0 .4-.6.4-1.1l-.1-2.5 1.6-.1s.2-.5.1-.8 0-16.5 0-16.5.8-1.7 1.3-2.6.4-1.5.2-2.2c-.2-.7-1.6-5.2-1.8-5.4s-.5-.4-3-.6L39 5.4s-7.7-1.3-14.9-.6c0 0-.4 3.7-.4 4 0 .3.4.9.4 2.4v4.1c0 .3.3 1.1.8 1.8s1.9 2.3 2 2.5c.1.2.4.5.4 1.3s.1 16.2.1 16.7v3l.6.1.1 2.4z"/><path fill="#414141" d="M40.7 40.9v.8l.2.6.3-.3.2.4.2-.2.2.3.2-.2.2.4.3-.3v-.9z"/><path fill="#414141" d="M40.8 43v-1l.1.3.3-.2.2.3.2-.2.2.4.2-.2.2.3.3-.2v1.3zM42.9 43.9v-1.1l.4-.1.3.2.2-.3.4-.1.2.2.2-.4.4-.1.3.2.1-.3.1-.2.3-.1V43zM42.9 41.5v1.1l.4-.1.3-.4.2.3.3-.1.3-.4.3.2.3-.1.3-.3.2.1.3-.1v-1.1zM20.1 41.8l22.8-.9v-2l-23.2.9z"/><path fill="#B1B1B1" d="M40.7 42.9l-.4.2v.8l2.4 1.1s2.7-.9 3.7-1.2 2.5-.5 3.5-.6c1.1 0 7.5.9 8 .9s.4-.4.5-.6c.1-.3.2-.8-.5-1-.7-.1-7.6-.9-7.6-.9s.1-1 0-1.4c-.1-.4-.6-.7-.8-.7-.2 0-1.5 1-1.6 1.8s-.3.6-.5.6c-.3 0-.5.4-.6.7l-4.1 1.2-2-.9z"/><path fill="#B1B1B1" d="M51.2 43.4s1.1.1 1.5.3c.4.2.5.1.8 0 .3-.1.6.1.9.3.2.1.6-.2.8-.1.2 0 .5.3.8.4.2 0 .4-.1.7-.2.3 0-.2-.5-.2-.5l-3.2-.2h-2.1z"/><path fill="#414141" d="M56.4 42.6s.5 0 .6-.3c0-.3 0-.4-.6-1.1-.6-.6-2.5-2.9-3-4.5-.5-1.7-.8-3.3-1.6-4.7-.8-1.4-1.5-2.3-2-2.7-.4-.5-3.3-3-3.3-3l.2 1.4s2.7 2.2 3.7 3.8c1 1.7 1.8 5.6 2.7 7 .8 1.4 1.9 2.9 2.2 3.1 0 0-1.8.1-2.6.6l3.7.4z"/><path fill="#B1B1B1" d="M55.4 31.1s-1.1.9-1.3 1c-.2.1-.5.2-.8.4-.3.2-.7.6-.8.7-.2.1-.4.1-.4.1s-.4.5-.6.7-.8.5-.8.5l-.6.6c-.2.2-3.5 2.4-4 2.6-.4.2-5.8 2-5.8 2v1l2.5.9s3.3-1 3.6-1.1c.4-.1.5 0 .6.1.1.1.1.4.5.3l.4-.1.1.4s9.5-7.5 9.7-8c.3-.4.4-1.1-.1-1.6l-2.2-.5z"/><path fill="#414141" d="M33.7 10.5c-4.5-.2-6.7.1-6.8.1-.2 0-.3 0-.2.8 0 .8-.1 3.3 0 3.6.1.3.2.8.6 1.2.5.4 1.6 1.7 1.6 1.7h11.5l1.2-2-.2-.7-1.3-4.2c0-.1-2.8-.4-6.4-.5z"/><path fill="#B1B1B1" d="M31 11.5l.3 3 6.3.1-.4-2.8z"/><path fill="#FFF" d="M29.1 27c2-.4 4-.6 6-.7 2 0 4 0 6 .3-2 .4-4 .6-6 .7-2 .1-4 .1-6-.3zM29.1 29.3c2-.4 4-.6 6-.7 2 0 4 0 6 .3-2 .4-4 .6-6 .7-2 .1-4 0-6-.3zM29.1 31.5c2-.4 4-.6 6-.7 2 0 4 0 6 .3-2 .4-4 .6-6 .7-2 .1-4 .1-6-.3zM24.8 2.1c1.1-.3 2.3-.5 3.5-.6 1.2-.1 2.3-.1 3.5-.1 2.3.1 4.7.4 6.9 1.2h-3.5l-3.4-.1c-2.3-.1-4.6-.2-7-.4zM16.5 15.6c1.9 1 3.7 2.1 5.5 3.3l.7.4c.3.2.5.4.7.6.4.5.6 1.2.6 1.7.1 1.1.1 2.2.1 3.2V30.1c0 .2-.1.4-.2.5-.1.3-.3.5-.5.7-1.5 1.7-3.3 2.9-5.1 4 .8-.7 1.6-1.4 2.4-2.2.8-.7 1.5-1.5 2.1-2.3.1-.2.3-.4.4-.6.1-.2.1-.3.1-.6V24.8v-3.2c0-.5-.1-.9-.4-1.3-.1-.2-.3-.3-.5-.4l-.6-.5c-1.9-1.2-3.6-2.5-5.3-3.8z"/></svg>