<svg xmlns="http://www.w3.org/2000/svg" xmlns:xlink="http://www.w3.org/1999/xlink" width="72" height="45" viewBox="0 0 72 45"><path fill="#414141" d="M55.5 7.4C55.205 4.43 52.506 2 49.504 2h-7.86c-4.148 0-7.002.652-9.77 3.335l-13.7 16.446c-2.686 3.08-1.492 10.403-.833 13.493.188.88 1.91 1.02 1.91 1.02 1 4.812 1.456 5.416 4.457 5.416l24.083.082c4.54 0 4.983-.706 5.54-5.042.057-.42 1.107-.98 1.156-1.488.81-8.33 1.014-27.86 1.014-27.86zm-8.096 9.777l-17.17-.002c-1.695 0-3.484-1.498-1.51-3.745 1.29-1.467 4.2-5.105 4.2-5.105 2.17-2.06 2.976-3.708 8.598-3.708h5.334c4.846 0 5.365 1.05 5.365 4.904l-.016 4.21c0 3.735-.936 3.447-4.8 3.447z"/><path fill="#B3B3B3" d="M45.477 21.747c0 .012-.004.022-.004.035 0 1.043.853 1.888 1.9 1.888h3.422c1.05 0 1.9-.845 1.9-1.888l-.002-.035h-7.216z"/><path fill="#FFF" d="M20.417 21.782l1.39-.1c.88-.04 2.143-.14 3.654-.187 1.516-.045 3.28-.13 5.17-.162 1.892-.042 3.91-.05 5.93-.063 2.018.013 4.032.02 5.923.062 1.894.03 3.658.117 5.172.162 1.515.044 2.77.146 3.656.187l1.39.102s-.508.034-1.39.1c-.884.04-2.144.142-3.655.185-1.514.045-3.278.133-5.172.162-1.89.042-3.905.048-5.924.06-2.02-.012-4.04-.02-5.93-.062-1.89-.03-3.654-.115-5.17-.16-1.512-.045-2.773-.146-3.654-.187-.885-.064-1.39-.098-1.39-.098z"/><defs><path id="a" d="M16.877 32.72l.796 3.968C18.675 41.5 19.268 43 22.27 43h25.568c4.857 0 6.107-2.132 6.498-6.34l.36-3.94h-37.82z"/></defs><clipPath id="b"><use xlink:href="#a" overflow="visible"/></clipPath><path clip-path="url(#b)" fill="#B3B3B3" d="M55.584 35.27H13.45l-1.018 11.802h43.152"/><path fill="#FFF" d="M20.417 35.27s.505-.034 1.39-.1c.88-.04 2.143-.142 3.654-.188 1.516-.045 3.28-.13 5.17-.158 1.892-.043 3.91-.053 5.93-.063 2.018.014 4.032.022 5.923.064 1.894.03 3.658.115 5.172.16 1.515.043 2.77.146 3.656.187l1.39.102s-.508.035-1.39.1c-.884.04-2.144.145-3.655.188-1.514.045-3.278.13-5.172.16-1.89.043-3.905.05-5.924.063-2.02-.012-4.04-.02-5.93-.063-1.89-.03-3.654-.114-5.17-.16-1.512-.047-2.773-.145-3.654-.187-.885-.066-1.39-.102-1.39-.102z"/></svg>