<svg width="14" height="14" viewBox="0 0 14 14" fill="none" xmlns="http://www.w3.org/2000/svg">
<path d="M9.40156 10.7992C9.84339 10.7992 10.2016 10.441 10.2016 9.99922C10.2016 9.55739 9.84339 9.19922 9.40156 9.19922C8.95973 9.19922 8.60156 9.55739 8.60156 9.99922C8.60156 10.441 8.95973 10.7992 9.40156 10.7992Z" fill="black"/>
<path d="M12.5116 9.79238C12.2645 9.16274 11.838 8.61946 11.285 8.22989C10.7321 7.84031 10.0769 7.62158 9.40083 7.60078C8.72474 7.62158 8.0696 7.84031 7.51664 8.22989C6.96367 8.61946 6.53718 9.16274 6.29003 9.79238L6.20083 10.0008L6.29003 10.2096C6.53725 10.8392 6.96376 11.3823 7.51672 11.7718C8.06968 12.1613 8.72478 12.38 9.40083 12.4008C10.0769 12.38 10.732 12.1613 11.2849 11.7718C11.8379 11.3823 12.2644 10.8392 12.5116 10.2096L12.6008 10.0008L12.5116 9.79238ZM9.40083 11.6008C9.08438 11.6008 8.77504 11.5069 8.51192 11.3311C8.2488 11.1553 8.04372 10.9054 7.92262 10.6131C7.80152 10.3207 7.76984 9.99901 7.83157 9.68864C7.89331 9.37827 8.0457 9.09317 8.26946 8.86941C8.49323 8.64565 8.77832 8.49326 9.08869 8.43152C9.39906 8.36979 9.72076 8.40147 10.0131 8.52257C10.3055 8.64367 10.5554 8.84875 10.7312 9.11187C10.907 9.37499 11.0008 9.68433 11.0008 10.0008C11.0003 10.425 10.8316 10.8316 10.5316 11.1316C10.2317 11.4315 9.82502 11.6003 9.40083 11.6008ZM5.40083 10.0008C5.13395 10.0008 4.8713 9.93404 4.6368 9.8066C4.40231 9.67917 4.20342 9.4951 4.05823 9.27116C3.91305 9.04722 3.82619 8.79052 3.80557 8.52443C3.78494 8.25835 3.8312 7.99133 3.94014 7.74769C4.04908 7.50405 4.21723 7.29153 4.42929 7.12948C4.64134 6.96743 4.89057 6.86101 5.15427 6.81989C5.41796 6.77877 5.68776 6.80426 5.93909 6.89405C6.19041 6.98384 6.41529 7.13508 6.59323 7.33398L5.99723 7.86758C5.90829 7.76809 5.79586 7.69243 5.6702 7.6475C5.54454 7.60256 5.40964 7.58977 5.27777 7.6103C5.14591 7.63083 5.02127 7.68402 4.91522 7.76503C4.80917 7.84603 4.72506 7.95228 4.67057 8.0741C4.61607 8.19592 4.59292 8.32944 4.60321 8.46249C4.61351 8.59555 4.65692 8.72392 4.72951 8.8359C4.80209 8.94789 4.90154 9.03994 5.01879 9.10367C5.13605 9.1674 5.26738 9.20078 5.40083 9.20078V10.0008Z" fill="black"/>
<path d="M11.0021 1.19926C10.7433 1.20021 10.4888 1.26623 10.2621 1.39126L3.70613 4.78326C2.88218 5.16842 2.21427 5.82315 1.81277 6.63927C1.41127 7.45539 1.30019 8.38406 1.49789 9.27185C1.69559 10.1596 2.19024 10.9534 2.90011 11.522C3.60998 12.0907 4.4926 12.4001 5.40213 12.3993V11.5993C4.87638 11.5995 4.35867 11.4702 3.89478 11.2228C3.43088 10.9754 3.0351 10.6175 2.74241 10.1807C2.44972 9.74396 2.26915 9.24183 2.21667 8.71871C2.16419 8.19558 2.2414 7.66759 2.44149 7.1814C2.64158 6.69521 2.95838 6.26582 3.36388 5.93118C3.76937 5.59654 4.25108 5.36696 4.76639 5.26275C5.28171 5.15854 5.81477 5.1829 6.31843 5.33368C6.82209 5.48446 7.28085 5.75702 7.65413 6.12725L8.21413 5.56726C7.62737 4.98381 6.8741 4.5967 6.05813 4.45925L9.41013 2.72326C9.41013 2.74726 9.40213 2.77126 9.40213 2.79926C9.40213 3.2236 9.5707 3.63057 9.87076 3.93063C10.1708 4.23068 10.5778 4.39926 11.0021 4.39926C11.0261 4.39926 11.0501 4.39126 11.0781 4.39126L9.83013 6.79925H10.7261L12.4261 3.51526C12.5511 3.27219 12.6113 3.00098 12.6009 2.72785C12.5905 2.45472 12.5098 2.18889 12.3667 1.95605C12.2235 1.7232 12.0227 1.53122 11.7837 1.39865C11.5446 1.26608 11.2755 1.19741 11.0021 1.19926ZM11.0021 3.59926C10.8439 3.59926 10.6892 3.55234 10.5577 3.46443C10.4261 3.37653 10.3236 3.25158 10.263 3.1054C10.2025 2.95922 10.1866 2.79837 10.2175 2.64318C10.2484 2.488 10.3246 2.34545 10.4364 2.23357C10.5483 2.12169 10.6909 2.0455 10.8461 2.01463C11.0012 1.98376 11.1621 1.9996 11.3083 2.06015C11.4545 2.1207 11.5794 2.22324 11.6673 2.3548C11.7552 2.48636 11.8021 2.64103 11.8021 2.79926C11.8015 3.01123 11.717 3.21435 11.5671 3.36424C11.4172 3.51413 11.2141 3.59862 11.0021 3.59926Z" fill="black"/>
</svg>
