<svg xmlns="http://www.w3.org/2000/svg" width="72" height="45" viewBox="0 0 72 45"><path fill="#414141" d="M64.79 12.167s-1.413-.797-5.147-1.297C55.913 10.37 57.7 8.407 45 8.407c-12.693 0-14.585 6.56-17.945 8.31-3.36 1.75-2.396-.208-4.014-.708-1.616-.5-1.54 2.977-5.146 5.228-6.377 3.972-11.306 5.648-11.62 10.636-.13 2.09.668 4.343 3.695 5.647C13.407 39 23.382 39.4 31.273 39.5l-.004-.008c2.794.014 5.556.006 8.092.006 10.58 0 17.604-4.275 17.604-4.275v.008c.37.687.795 1.077 1.25 1.077 1.087 0 2.017-2.24 2.382-5.396l2.16-2.536s2.185-.182 2.567-2.002c.475-2.248-.082-4.5-.082-4.5s-.12-.39.377-4.39c.5-4-.83-5.315-.83-5.315zM18.33 30.952s5.632-.385 5.5-.31c-.03.02.11.343.336.823l.5-.367 4.338 5.866h-17.02l6.348-6.012zm24.015 6.017h-7.4l-3.92-5.277 9.21.06s.934-.173 2.61 1.5c2 1.987-.5 3.716-.5 3.716zm6.6-10.97c-1.993 1.874-3.358 4.59-4.48 2.874-1.215-1.863-2.117-2.46.99-4.793 3.113-2.33 5.48-3.456 6.724-2.83 1.245.624-1.242 2.876-3.233 4.75zm9.27 7.93c-1.012 0-1.83-2.7-1.83-6.026 0-3.328.818-6.027 1.83-6.027 1.013 0 1.83 2.7 1.83 6.027 0 3.325-.818 6.026-1.83 6.026z"/><path fill="#B3B3B3" d="M9.95 36.857c8.38.768 13.117-2.602 18.337-5.608 7.59-4.374 4.978-2.5 15.43-9.376 5.14-3.38 8.94-5.148 12.444-4.97 0 0 1.858.032 2.667-3.343.38-1.58 2.69-2.437 4.553-1.812 1.863.625 3.235 3 0 3.125-3.233.126-3.48-.873-3.606.627-.125 1.5-.48 1.87.996 2.825l-.16-.092c1.484.82 3.005 2.023 4.636 3.64 0 0 .13-.374.627-4.374.5-4-.627-5.126-.627-5.126S64.502 10.5 60.77 10c-3.732-.5-2.488-4.5-15.185-4.5-12.693 0-18.045 5.375-21.405 7.125-3.36 1.75-4.652-1.07-6.27-1.57S17.46 14.75 13.85 17c-6.38 3.98-7.53 9.887-7.84 14.875-.13 2.09 1.1 4.43 3.94 4.983z"/><path fill="#FFF" d="M9.372 34.42s.19.03.546.037c.357.02.88-.01 1.54-.047.66-.063 1.458-.148 2.355-.352.9-.185 1.895-.48 2.964-.82.535-.173 1.078-.403 1.646-.614.556-.242 1.13-.492 1.722-.748.573-.293 1.165-.592 1.77-.898.587-.334 1.187-.678 1.798-1.023.593-.377 1.198-.762 1.81-1.145.592-.418 1.19-.844 1.795-1.27 1.226-.877 2.47-1.768 3.714-2.654 2.528-1.727 5.105-3.39 7.61-4.81 2.497-1.428 4.912-2.63 7.06-3.49 2.14-.877 4.026-1.36 5.364-1.545a8.38 8.38 0 011.563-.073c.36.025.548.053.548.053s-.77-.02-2.056.31c-1.29.308-3.04 1.033-5.066 2.044-4.06 2.03-9.184 5.29-14.173 8.746-1.247.867-2.494 1.738-3.72 2.596l-1.884 1.262c-.646.377-1.28.752-1.908 1.117-.64.346-1.276.67-1.9.982l-1.878.82c-.626.23-1.23.467-1.824.666-.605.172-1.18.36-1.747.497-2.258.572-4.21.678-5.553.645-1.358-.06-2.098-.285-2.098-.285zm20.74-23.55s-.23.277-.543.81c-.15.263-.335.606-.38.985-.065.4.197.62.668.694.46.062 1.06-.02 1.67-.022.613-.02 1.26-.037 1.927-.055 1.336-.035 2.762-.035 4.188-.037 2.855.037 5.69.084 7.824.194 1.066.05 1.957.134 2.58.17.624.05.98.09.98.09s-.354.048-.98.105c-.623.047-1.514.146-2.584.208-1.07.07-2.32.135-3.658.18-1.344.063-2.766.042-4.19.05-1.424-.02-2.85-.035-4.183-.084-.667-.028-1.313-.057-1.924-.08-.61-.042-1.178-.02-1.77-.165-.286-.098-.596-.203-.786-.488-.205-.268-.193-.607-.123-.832.138-.473.39-.777.583-1.027.408-.485.7-.698.7-.698z"/></svg>