<svg xmlns="http://www.w3.org/2000/svg" width="72" height="45" viewBox="0 0 72 45"><g fill="#B3B3B3"><path d="M65.297 2.988C64.664-.44 62.52 1.546 60.64 1.816c-1.884.27-7.796.542-7.796.542s-.45-.993-2.06-1.083c-1.614-.09-9.05-.18-12.903 0-3.853.18-3.853 1.17-5.104 2.344-.933.87-1.517 4.87-1.794 8.68 4.455-1.49 9.793-.756 14.054.917 2.07.814 3.646 2.09 4.6 3.63.262-.154.516-.332.762-.537 1.97-1.63 3.346-2.893 3.52-4.516.18-1.623 1.437-4.98-.116-4.86-.672.052-2.727-.077-2.727-.077s1.258 1.822 1.438 3.746c.18 1.924-.895 2.91-.895 2.91-.777.69-2.748.327-2.748.327 1.52.302 2.06-1.534 2.027-2.83-.04-1.618-1.758-3.538-1.89-3.682-1.878.05-3.787.1-4.806.13-2.11.06-9.337.124-9.337.124-.537.06-1.852-.18-1.673-.9.18-.72.42-1.623 2.33-1.623 1.912 0 8.003-.18 9.976-.24 1.97-.06 12.424-1.624 12.9.842.48 2.463-.002 3.246-.42 4.99-.416 1.743-.717 3.485-2.328 4.958-1.127 1.03-2.88 2.592-5.11 3.517.183.91.185 1.865-.026 2.84 2.115-.223 5.074-.043 7.525-.585 3.676-.813 3.943-4.238 5.467-8.296 1.523-4.058 2.424-6.67 1.793-10.098zM47.28 8.224c.956-.17 1.915.71 2.14 1.967.223 1.26-.373 2.418-1.33 2.593-.96.172-1.918-.708-2.14-1.968-.223-1.26.37-2.42 1.33-2.59z"/><path d="M49.633 16.638c.44.71.742 1.28.902 2.28h.002c-.16-1-.465-1.57-.904-2.28zm-.627-9.294c.334-.01-.023-.028-.023-.028l.023.028z"/></g><path fill="#FFF" d="M41.307 12.08c.2-.06.4-.12.578-.18.47-.163.852-.302 1.12-.44.263-.127.398-.207.398-.207s-.17.023-.448.075c-.27.07-.688.087-1.166.167-.557.078-1.216.18-1.917.3.48.08.96.18 1.434.285zm21.509-8.82s-2.69 11.42-2.746 12.353c-.063.933.48.934.895 0 .42-.932 2.928-6.583 2.928-8.325 0-1.746-.24-4.93-1.077-4.03z"/><path fill="#414141" d="M50.795 12.694c-1.7-1.508-1.7-2.783-6.912-3.016-5.215-.232-15.28-.117-17.46 0-2.185.115-2.79 1.39-2.79 1.39s-8.004-.347-10.55-.693c-2.546-.35-5.45-2.897-6.307 1.507-.855 4.408.364 7.77 2.425 12.988 2.064 5.22 2.427 9.624 7.398 10.667 4.97 1.046 11.49 0 13.385 1.742 1.894 1.737 2.017 3.243 3.954 3.243 1.94 0 3.52 2.898 4.124 3.362.608.464 11.4-.58 13.462-1.508 0 0 2.063-8 1.94-13.685-.12-5.678-.97-14.49-2.667-15.998zm-25.502 12.87s-1.455-.888-1.21-3.36c.24-2.473 1.942-4.286 1.942-4.286h2.83s-2.533 2.394-2.59 4.558c-.044 1.66.686 3.942 2.746 3.558.004-.003-2.663.42-3.717-.47zm7.668-3.62c-.302 1.62-1.6 2.75-2.895 2.53-1.298-.223-2.104-1.712-1.8-3.333.302-1.614 1.598-2.747 2.895-2.524 1.298.22 2.105 1.712 1.8 3.328z"/><path fill="#FFF" d="M51.094 30.06s-1.066-.253-2.568-.764a50.28 50.28 0 01-2.56-.873c-.464-.146-.948-.278-1.427-.448l-.727-.252c-.142-.06-.485-.102-.722-.152-.52-.112-1.035-.228-1.544-.345-.516-.13-.993-.186-1.473-.274-.953-.16-1.838-.367-2.627-.516-1.56-.314-2.606-.623-2.606-.623s1.07-.195 2.68-.235c.803-.05 1.756.002 2.78.07.503.056 1.058.037 1.56.162.514.098 1.035.195 1.557.295.28.072.47.082.824.21l.76.286c.504.188.984.406 1.457.603.902.45 1.732.897 2.424 1.314 1.382.845 2.214 1.547 2.214 1.547z"/><path fill="#B3B3B3" d="M10.13 12.23s3.64 14.687 3.72 15.885c.08 1.197-.647 1.197-1.213 0-.566-1.198-3.96-8.464-3.96-10.707 0-2.24.323-6.337 1.452-5.18zm26.273 25.49c-.746-.91-1.78-1.342 4.39-1.963 6.11-.618 9.396-.8 9.305 1.134-.09 1.866.295 4.253-3.02 4.484-3.314.23-5.98 1.005-7.763-.617-1.778-1.624-2.307-2.3-2.912-3.036zm11.562-19.924c.73.077 2.506-.23 2.264-1.16-.243-.928-.565-2.087-3.153-2.087s-10.833-.232-13.5-.31c-2.668-.08-16.814-2.09-17.462 1.08-.646 3.17 0 4.176.567 6.417.564 2.243.97 4.485 3.152 6.378 2.18 1.896 6.062 5.224 11.154 5.492 5.094.27 14.956-.043 17.624-.43 2.668-.386 2.668-.693 2.346-1.547-.324-.852-2.426-.928-2.426-.928s-8.73-.078-12.127.154c-3.396.23-6.79.25-9.458-1.846-2.67-2.1-4.526-3.722-4.77-5.81-.24-2.086-1.94-6.105.16-5.95 2.103.153 10.134.308 12.99.386 2.857.082 12.638.16 12.638.16z"/><path fill="#FFF" d="M13.855 13.39s.554-.037 1.517-.063c.963-.014 2.342-.075 3.99-.07 1.65-.017 3.576.03 5.633.057 2.06-.006 4.248.045 6.438.092 2.19.087 4.382.172 6.438.252 2.058.088 3.976.2 5.622.326 1.645.115 3.016.263 3.975.338.96.09 1.508.162 1.508.162s-.55.062-1.512.13c-.96.056-2.334.183-3.982.235-1.65.066-3.57.114-5.634.134-1.03 0-2.096.03-3.178-.004l-3.285-.07c-2.2-.078-4.4-.154-6.46-.277-1.03-.04-2.02-.164-2.96-.244-.94-.083-1.828-.183-2.648-.272-1.64-.175-3.002-.384-3.958-.498-.957-.135-1.502-.23-1.502-.23zM50.23 24.234s-.897.017-2.222-.1a48.177 48.177 0 01-4.813-.662c-.864-.18-1.733-.342-2.536-.553-.81-.207-1.557-.398-2.19-.62-.635-.214-1.158-.383-1.518-.575l-.548-.274s.224.03.612.09c.365.076.93.103 1.58.2.65.092 1.422.178 2.234.313.813.127 1.684.275 2.547.436 1.73.33 3.45.726 4.73 1.08 1.282.35 2.122.664 2.122.664zm-32.204 8.873s1.557-.03 3.855.02c1.153.036 2.493.067 3.927.13 1.43.057 2.955.116 4.48.178.762.06 1.522.05 2.272.08.748.01 1.484.063 2.2.094 1.423.003 2.755.02 3.906.073.57-.016 1.097-.027 1.56-.04.47-.003.877-.01 1.213-.015l1.068.018s-.366.11-1.024.278c-.327.08-.73.18-1.188.29-.465.104-.987.24-1.563.328a70.56 70.56 0 01-3.96.39c-.724.01-1.474.044-2.233.033-.763-.012-1.54.02-2.31-.026-.77-.052-1.543-.103-2.3-.15-.762-.033-1.504-.128-2.225-.214-1.438-.167-2.774-.36-3.912-.588-2.28-.412-3.767-.88-3.767-.88z"/></svg>