<svg xmlns="http://www.w3.org/2000/svg" width="72" height="45" viewBox="0 0 72 45"><path fill="#B3B3B3" d="M16.064 8.396s7.898-1.318 10.368-1.89c1.59-.367 2.082-1.687 2.23-2.583.085-.497.406-.92.98-1.01 2.33-.37 8.393-1.335 9.975-1.6 1.97-.33 1.88-.495 2.617 0 .74.493-.164 3.086-.164 3.086l3.44-.534s6.8 2.89 8.046 4.667c.918 1.308.816 2.435.7 2.94-.02.077-.048.15-.063.228l-.02.06.014.008c-.035.203-.063.41-.063.622 0 1.947 1.582 3.568 3.504 3.644-.12.31-.316.435-.316.435l-.973.805s-.175.924-.01 2.022c.163 1.1-1.564 1.955-1.564 1.955l-1.883 4.224s1.064 7.467 1.31 10.846c.247 3.375-2.13 3.623-3.437 3.953-1.314.328-5.328-1.936-5.328-1.936s.984 3.003-2.457 4.406c-2.862 1.168-3.644 1.448-4.67 1.133-3.08-.95-11.47-5.173-11.47-5.173-4.752-1.935-6.968-9.062-6.968-9.062l-5.235-15.46s-1.13-2.063-1.13-3.492c.003-2.448 2.567-2.297 2.567-2.297z"/><path fill="#B3B3B3" d="M16.576 25.758c1.77 7.235 7.618 12.013 13.064 10.666 5.443-1.346 8.422-8.305 6.65-15.54-1.77-7.236-7.62-12.013-13.063-10.667-5.442 1.346-8.42 8.303-6.65 15.54z"/><path fill="#FFF" d="M39.398 26.688s-.03-.398-.06-1.1c0-.35-.048-.77-.116-1.246a15.068 15.068 0 00-.256-1.583c-.057-.29-.115-.588-.18-.897-.084-.306-.173-.62-.265-.943-.152-.647-.404-1.3-.65-2.014-.14-.33-.28-.668-.422-1.008l-.486-1.02c-.346-.68-.73-1.353-1.156-1.994a18.046 18.046 0 00-1.36-1.853c-.49-.576-.987-1.137-1.52-1.625-.253-.26-.532-.478-.796-.708a8.936 8.936 0 00-.797-.635 15.495 15.495 0 00-2.985-1.75c-.433-.204-.835-.317-1.156-.444l-1.047-.303s.396.014 1.097.088c.342.074.77.125 1.244.26.237.067.49.14.758.214.26.09.526.208.813.32.56.243 1.164.525 1.75.91.603.36 1.205.797 1.782 1.3.583.497 1.16 1.045 1.684 1.66.53.606 1.024 1.26 1.48 1.945.444.688.835 1.407 1.187 2.13.355.723.624 1.477.878 2.21.218.705.416 1.423.527 2.122.063.342.122.676.184 1 .026.328.055.646.077.948a9.52 9.52 0 01.035 1.662c-.01.494-.03.92-.086 1.266-.09.694-.158 1.088-.158 1.088z"/><path fill="#FFF" d="M25.17 36.53s.15.03.438.08c.284.055.707.147 1.24.16.526.06 1.185.018 1.907-.102l.558-.122.272-.06.297-.108.613-.22c.205-.077.385-.19.584-.288.79-.39 1.583-.996 2.27-1.755.706-.74 1.286-1.674 1.774-2.684.5-1.008.83-2.136 1.055-3.298.24-1.158.304-2.376.267-3.58-.008-1.21-.225-2.407-.467-3.575-.297-1.175-.652-2.27-1.12-3.313a18.361 18.361 0 00-1.612-2.847c-.586-.863-1.267-1.584-1.926-2.212a13.839 13.839 0 00-1.973-1.513c-.32-.19-.627-.353-.913-.503-.297-.128-.568-.245-.816-.35-.507-.17-.907-.31-1.194-.36l-.432-.103.44.05c.293.02.713.097 1.246.228l.862.282c.305.126.638.265.98.432.684.35 1.44.795 2.16 1.414.72.615 1.475 1.33 2.137 2.2.666.86 1.312 1.828 1.822 2.908.508 1.073.957 2.26 1.256 3.457.27 1.225.51 2.483.526 3.77.078 2.548-.407 5.15-1.53 7.296-.54 1.074-1.23 2.04-2.038 2.8-.788.776-1.654 1.374-2.553 1.758a5.972 5.972 0 01-1.28.452l-.304.083-.326.043c-.204.027-.4.053-.593.074-.77.058-1.44.035-1.98-.072-.553-.06-.946-.212-1.228-.295-.275-.082-.422-.13-.422-.13z"/><ellipse transform="rotate(-16.342 39.13 40.775)" fill="#414141" cx="39.12" cy="40.77" rx="1.063" ry="1.564"/><path fill="#FFF" d="M15.29 14.183s.108.04.3.106c.102.016.21.048.343.05.134.003.272-.017.42-.062.083-.05.35-.146.413-.277.11-.103.19-.27.285-.438.064-.187.147-.37.17-.583.047-.206.06-.42.057-.64.022-.214-.022-.434-.03-.647-.04-.208-.076-.414-.11-.612-.07-.205-.126-.407-.18-.6l-.212-.485c-.166-.284-.285-.554-.424-.696l-.19-.258.26.188c.172.12.375.336.594.623.094.156.2.325.31.504.08.18.167.373.247.574.065.245.13.45.173.692.02.24.076.478.058.725-.003.246-.023.49-.084.73-.03.242-.155.466-.245.68-.126.206-.262.397-.47.54a.652.652 0 01-.27.155c-.1.033-.14.072-.28.096a1.113 1.113 0 01-.514-.027c-.146-.036-.263-.105-.355-.145l-.26-.192z"/><ellipse transform="rotate(-16.29 15.6 11.533)" fill="#414141" cx="15.601" cy="11.534" rx=".723" ry="1.079"/><path fill="#FFF" d="M50.402 39.9l.268-.173a.808.808 0 00.275-.223c.086-.104.2-.186.277-.334.086-.14.197-.27.248-.454.074-.172.137-.352.17-.552.06-.193.072-.4.084-.614.035-.208.002-.425-.012-.64.008-.217-.068-.426-.102-.64-.012-.167-.13-.41-.186-.603a2.505 2.505 0 00-.232-.543c-.084-.164-.146-.332-.262-.453a6.118 6.118 0 01-.266-.372c-.088-.103-.182-.178-.25-.25-.143-.144-.223-.227-.223-.227l.278.15c.19.09.43.258.674.52.14.116.24.288.363.458.125.174.254.357.322.56.074.214.19.363.238.647.04.233.13.465.13.71.032.48.01.98-.145 1.41-.05.228-.16.422-.27.604-.09.188-.236.33-.355.47-.104.147-.273.23-.395.31a.858.858 0 01-.334.153c-.182.056-.294.086-.294.086z"/><ellipse transform="rotate(-16.273 49.488 36.742)" fill="#414141" cx="49.486" cy="36.741" rx="1.08" ry="1.469"/><path fill="#414141" d="M41.908 5.266s5.775 1.524 7.21 4.12c1.233 2.23.368 4.86.368 4.86s-.94-5.108-7.578-8.98z"/><path fill="#FFF" d="M39.12 25.812l.4 2.383c.226 1.433.597 3.328.83 5.25.52 3.84 1.042 7.677 1.042 7.677l-.49.03s-.396-3.836-.797-7.674c-.172-1.926-.48-3.834-.662-5.27-.19-1.437-.322-2.396-.322-2.396z"/><path fill="#414141" d="M26.54 31.325c3.015-.743 4.622-4.737 3.602-8.92-1.022-4.184-4.294-6.97-7.306-6.227l-4.303 1.215c-3.01.744-4.62 4.737-3.598 8.92s4.293 6.97 7.304 6.228l4.3-1.215z"/><path fill="#FFF" d="M25.12 30.252s.072-.224.2-.606c.074-.19.105-.437.18-.692.074-.26.094-.578.16-.902.024-.336.07-.692.074-1.075.012-.38-.003-.778-.037-1.19-.01-.413-.107-.832-.164-1.263l-.136-.64c-.024-.163-.125-.423-.185-.63a7.999 7.999 0 00-.438-1.24c-.146-.394-.366-.767-.54-1.14-.23-.336-.406-.703-.645-.997-.234-.294-.437-.6-.675-.828-.225-.248-.434-.475-.646-.64-.212-.175-.384-.35-.558-.447-.334-.23-.52-.36-.52-.36s.224.066.61.186c.203.05.422.172.677.308.268.123.536.307.814.53.303.2.568.48.858.776.296.29.54.65.815 1.012.216.396.502.764.677 1.22.198.445.39.9.506 1.333.06.235.134.407.185.696l.13.703c.06.468.106.933.095 1.383a6.87 6.87 0 01-.102 1.29c-.047.41-.164.787-.254 1.13-.123.34-.215.647-.354.908-.136.262-.24.49-.356.654-.236.328-.375.518-.375.518z"/><path fill="#B3B3B3" d="M19.537 25.325c.272 1.11 1.144 1.854 1.94 1.654.803-.197 1.23-1.26.96-2.372-.273-1.11-1.143-1.854-1.943-1.655-.802.196-1.227 1.26-.957 2.372z"/><path fill="#FFF" d="M20.162 26.503s.064.025.17.083l.188.104c.078.02.16.04.242.07.077.043.183.032.278.045.1.022.195-.02.295-.03l.074-.01c-.034.02.04-.02.056-.026l.178-.082c.09-.07.146-.108.223-.193.146-.16.27-.36.342-.575.08-.207.148-.425.163-.615.066-.38.047-.66.063-.664-.017.004.16.24.213.667.025.21.042.47-.025.74-.047.272-.194.55-.4.79a1.69 1.69 0 01-.402.296l-.185.063c-.048.013-.027.017-.125.035l-.115.006c-.147.008-.293.01-.416-.046-.125-.046-.244-.07-.337-.146a1.104 1.104 0 01-.372-.354c-.074-.098-.11-.157-.11-.157z"/><path fill="#414141" d="M23.434 11.052l-.303.125c-.187.093-.5.174-.835.376-.17.095-.355.198-.563.31-.19.13-.396.29-.61.446-.42.336-.866.75-1.29 1.255-.437.496-.826 1.1-1.182 1.764-.182.33-.313.696-.48 1.054-.122.377-.27.754-.39 1.146-.22.79-.393 1.627-.475 2.49-.057.43-.084.864-.082 1.303-.02.438.007.88.03 1.32.044.877.18 1.75.36 2.602.21.8.42 1.73.733 2.454.267.767.64 1.486.978 2.17.383.654.754 1.275 1.174 1.795.38.555.832.967 1.18 1.395.395.373.75.692 1.045.955l1 .735-1.11-.58a41.759 41.759 0 01-1.18-.837c-.405-.384-.933-.764-1.356-1.313-.48-.508-.912-1.12-1.363-1.78-.408-.69-.858-1.4-1.174-2.234-.177-.41-.354-.825-.47-1.243-.13-.433-.278-.806-.38-1.304a16.93 16.93 0 01-.414-2.757c-.02-.468-.047-.935-.018-1.402.005-.466.04-.93.104-1.388.095-.92.332-1.805.595-2.643.145-.417.31-.82.48-1.208.204-.373.377-.75.595-1.088.432-.684.896-1.293 1.396-1.785.48-.51 1.01-.89 1.487-1.184.25-.138.476-.272.69-.382l.624-.25c.367-.172.685-.184.888-.25l.316-.072zM39.12 5.025l-8.313 1.482c4.88.596 10.7 6.29 11.94 14.622l.35 5.653L44.42 33.5l1.427-2.833s2.95-5.02 2.938-11c.06-2.212-.44-9.766-9.664-14.642zm11.077 28.8s-.098-.02-.262-.07c-.08-.027-.182-.064-.295-.064-.115 0-.23-.046-.367-.028-.137.01-.28-.006-.426.05l-.22.062c-.028.023-.147.076-.214.112-.19.067-.29.19-.404.29-.13.08-.214.258-.323.385-.197.29-.318.63-.414.958-.04.164-.06.332-.094.488-.044.156-.026.31-.038.45.006.142-.025.272-.01.39.006.115.014.22.02.303l.008.27s-.04-.088-.102-.25c-.055-.164-.168-.396-.19-.697-.017-.15-.062-.313-.048-.488.008-.174-.006-.36.03-.553.046-.188.07-.392.145-.582.094-.186.152-.39.28-.563.145-.164.235-.352.437-.48.176-.15.355-.27.52-.315.1-.035.19-.07.278-.104l.28-.027c.18-.03.353.016.507.03.156.006.287.092.404.133.118.043.198.104.27.15.15.092.227.152.227.152z"/><path fill="#FFF" d="M39.875 43.888l.252-.17a.719.719 0 00.244-.227c.085-.09.17-.19.237-.333.084-.13.152-.276.197-.45.066-.162.088-.35.12-.536.05-.187.026-.392.044-.588.02-.2-.027-.407-.037-.61-.01-.207-.075-.408-.106-.61-.03-.162-.123-.394-.18-.577-.06-.202-.14-.362-.215-.52-.077-.157-.136-.32-.237-.44-.092-.126-.168-.254-.236-.364-.078-.103-.162-.18-.225-.25l-.2-.23s.097.053.263.152c.172.097.396.265.62.522.128.115.223.277.335.443.11.164.236.344.3.532.073.2.176.353.233.61.043.22.117.438.14.67.003.228.05.456.02.687-.02.225-.025.447-.096.658a1.99 1.99 0 01-.215.59 1.664 1.664 0 01-.3.473c-.096.146-.23.248-.356.322-.117.088-.215.146-.31.164-.186.05-.29.084-.29.084z"/><path fill="#414141" d="M39.533 37.978s-.09-.024-.24-.078c-.074-.025-.166-.063-.27-.07-.107-.007-.214-.048-.34-.036-.126.002-.258-.006-.39.047-.056.022-.154.03-.173.06l-.22.115c-.182.064-.215.2-.336.28-.098.104-.176.26-.268.386-.062.152-.135.3-.188.453-.043.16-.084.318-.123.474-.04.314-.103.617-.084.884-.016.266.008.488.018.647.004.162.008.256.008.256s-.04-.084-.1-.23c-.052-.152-.168-.365-.2-.646a3.861 3.861 0 01-.07-.968c.028-.18.06-.365.1-.55.056-.185.138-.366.212-.55.117-.166.215-.338.36-.486.16-.13.34-.305.49-.342l.233-.09c.13-.05.19-.03.287-.045.177-.027.334.008.48.035.146.01.267.096.372.14.11.047.183.108.247.157.128.094.196.158.196.158zM57.35 16.51c.74-.663.443-2.212-.664-3.464-1.104-1.25-2.604-1.728-3.342-1.065L51.5 13.707c-.742.662-.445 2.213.66 3.464 1.107 1.25 2.604 1.728 3.346 1.065l1.844-1.725z"/><path fill="#B3B3B3" d="M56.566 14.53l1.754-1.68s.488-.195-.146-.97c-.633-.777-1.363 0-1.363 0l-1.558 1.378s-.355.478.242 1.076c.695.694 1.072.197 1.072.197z"/><path fill="#414141" d="M17.07 8.91s1.292 1.387 1.414 2.02c.123.635 2.89-1.437 2.89-1.437l2.89-1.923-7.193 1.34z"/><path fill="none" stroke="#414141" stroke-width="1.479" stroke-linecap="round" stroke-miterlimit="10" d="M29.1 12.627l-1.614 2.705m4.658-.52l-2.69 2.417m4.669.927l-2.978 1.297m3.878 2.604l-3.066.268m2.861 6.701l-2.674-1.48m1.336 4.519l-2.335-2.605m-.338 4.852c.033-.084-1.158-3-1.158-3m-1.844 4.148l-.206-3.303M21.787 13.48l.584 1.772m2.481-.31l.15-3.025m7.142 13.109l3.035.498m-10.036 7.373l-.352 2.04"/><path fill="#FFF" d="M49.783 25.888l2.444 10.715-.48.098"/></svg>