<svg width="72" height="48" viewBox="0 0 72 48" fill="none" xmlns="http://www.w3.org/2000/svg">
<g clip-path="url(#clip0_1062_49144)">
<path d="M71.447 9.73486L70.0023 8.70194L69.2765 6.49237L67.4396 6.33535L66.9819 9.52578L66.4001 10.4477L66.0406 11.0622L63.8898 11.6503L62.105 12.0754L60.6667 13.9385L61.0721 14.8014L58.0583 16.7106L57.1364 17.8806L56.2736 18.5213L53.9396 19.9074L52.6517 19.515L53.6455 17.168L52.1745 15.1218L51.7431 13.4091L50.6448 12.8206L48.762 14.54L48.3763 16.011L48.9451 17.8675L48.3829 19.9791L47.5264 20.1164L47.0492 18.8611L46.8072 17.5604L47.2713 14.8865L46.8989 14.4093L47.4807 12.971L50.9979 12.4675L49.7296 11.2125L46.9706 11.9774L45.6176 11.0489L43.3554 12.1341L41.3355 11.9314L42.0284 9.72184L40.5967 8.9243L39.3284 8.9963L37.694 8.20514L35.3733 8.19877L27.6394 7.80637L18.0881 6.50538L14.1918 5.70784L13.1001 5.45944L6.83724 3.77271L6.39278 5.17172L4.24829 4.43954L4.19595 7.9044L4.9478 8.24446L3.81684 9.00267L1.63995 13.1607L1.60063 14.6577L0.554688 17.096L0.620041 19.8287L2.73823 28.3535L5.18983 29.7265L6.32715 31.2432L6.54952 32.7012L9.99472 33.152L9.779 33.4791L14.8652 36.4665L17.7026 36.9113L19.0099 36.3161L21.4812 36.6432L23.4684 38.7351L24.0112 40.5198L25.979 41.8665L26.7765 40.6245L28.6854 40.6899L31.3724 44.6189L31.9542 46.652L34.7129 47.2142L34.3601 45.6714L35.1967 43.9063L37.3672 42.6707L40.0409 40.5329L42.3421 41.2324L42.9632 40.6965L44.4669 41.8208L46.1404 41.2717L46.3824 39.8793L48.0168 39.4149L49.4549 39.1275L51.488 39.2189L53.2468 40.2127L54.5411 39.1928L56.9011 40.997L56.875 42.8604L58.3394 45.0569L61.1308 46.665L61.2878 43.6056L60.1632 41.1737L58.091 37.6238L58.6075 35.2572L60.693 32.8973L61.3205 31.5636L64.5433 27.5103L63.8635 26.412L63.8831 26.4053L63.9485 26.3923L64.0662 26.3663L64.0988 26.3597L62.9939 25.3661L63.0789 24.2351L62.704 23.8602L63.8438 23.954L64.1772 23.7904L64.3866 22.9798L64.4259 22.9734L64.4389 22.9668L63.432 20.8486L63.8635 20.3845L65.1384 20.5742L64.8767 18.4363L65.2038 18.3383L67.2956 17.2464L67.8711 16.3902L67.9364 16.4292L68.0998 16.6712L68.6816 15.9717L67.8448 14.3307L67.8318 13.9712L68.9367 12.3172L71.447 9.73486ZM9.94238 39.9447L9.15149 40.2257L7.223 41.141L6.23576 42.6184L6.49081 44.5992L5.66032 46.1422L7.87016 48.2274L13.5119 47.5216L13.3028 41.3631L9.94238 39.9447Z" fill="#929292"/>
</g>
<defs>
<clipPath id="clip0_1062_49144">
<rect width="72" height="48" fill="white"/>
</clipPath>
</defs>
</svg>
