<svg xmlns="http://www.w3.org/2000/svg" width="72" height="45" viewBox="0 0 72 45"><path fill="#414141" d="M19.287 22.658c.29-10.522 5.2-18.922 10.965-18.762.217.004.427.047.638.076l.004-.104H18.478c-5.765-.16-10.674 8.24-10.964 18.76-.29 10.524 4.146 19.184 9.912 19.342l11.162-.047c-5.46-.734-9.58-9.122-9.3-19.265z"/><path fill="#414141" d="M40.164 23.234c.29-10.52-4.146-19.178-9.912-19.338s-10.674 8.24-10.965 18.762c-.29 10.52 4.147 19.18 9.914 19.34 5.765.16 10.673-8.242 10.964-18.764zm-9.682 14.702c-4.326-.12-7.646-6.998-7.417-15.36.23-8.363 3.927-15.047 8.254-14.928 4.326.12 7.646 6.998 7.418 15.362-.232 8.363-3.926 15.045-8.256 14.926z"/><path fill="#FFF" d="M21.78 35.83s-.228-.418-.624-1.15l-.686-1.334c-.245-.52-.428-1.164-.66-1.852-.21-.693-.527-1.445-.63-2.264-.148-.814-.314-1.678-.456-2.572-.095-.898-.127-1.838-.165-2.787-.01-.485-.054-.933-.03-1.458l.073-1.416c.033-.932.23-1.926.35-2.87.15-.95.405-1.853.618-2.733.286-.865.515-1.71.86-2.473.326-.768.623-1.494 1.005-2.117.344-.64.678-1.21 1.044-1.677.347-.476.627-.9.935-1.192.578-.615.912-.947.912-.947l-.658 1.13c-.232.335-.413.812-.67 1.315-.27.5-.49 1.104-.745 1.752-.277.637-.467 1.373-.717 2.125-.26.75-.387 1.59-.623 2.42-.164.85-.32 1.734-.46 2.626-.095.9-.26 1.77-.282 2.735l-.102 1.416c-.024.415.007.907.007 1.354.032.908-.025 1.81.025 2.676.098.86.162 1.7.23 2.494.033.81.234 1.52.34 2.21.144.68.203 1.323.354 1.882.162.557.303 1.04.418 1.44.216.807.337 1.268.337 1.268zm-6.134-14.96l.02-.644c.032-.41.03-.996.108-1.695.114-.692.17-1.524.372-2.384.1-.433.2-.877.306-1.33.116-.448.273-.896.41-1.348.135-.45.3-.895.485-1.32.18-.43.344-.856.546-1.25l.605-1.125c.184-.36.428-.664.615-.963.2-.29.367-.568.56-.783.19-.217.354-.405.487-.563l.43-.48-.354.54c-.113.17-.252.376-.41.61-.162.232-.293.528-.472.825-.164.307-.38.617-.535.986-.168.36-.345.742-.525 1.136-.188.392-.32.82-.498 1.242-.178.42-.332.854-.46 1.3-.14.443-.3.878-.42 1.318l-.34 1.3c-.23.84-.366 1.638-.523 2.32-.237 1.383-.408 2.308-.408 2.308z"/><path fill="#B3B3B3" d="M30.617 16.497c.516.964 1.055.866 1.2-.22l.62-4.69c.145-1.084-.563-1.622-1.566-1.19l-1.036.443a1.798 1.798 0 00-.89 2.536l1.673 3.12z"/><ellipse transform="rotate(-178.38 31.72 23.246)" fill="#B3B3B3" cx="31.72" cy="23.246" rx="2.801" ry="5.416"/><path fill="#414141" d="M43.496 24.377c-4.61-8.915-4.39-18.196.496-20.733.182-.096.377-.158.566-.23l-.045-.09-10.36 5.75c-4.886 2.537-5.105 11.82-.496 20.733 4.61 8.914 12.307 14.084 17.19 11.547l9.292-5.207c-4.894 1.916-12.2-3.176-16.644-11.77z"/><path fill="#414141" d="M61.184 15.19C56.572 6.278 48.874 1.11 43.992 3.645c-4.885 2.537-5.105 11.818-.496 20.733 4.61 8.914 12.31 14.086 17.19 11.55s5.107-11.822.498-20.736zm-1.3 16.753c-3.665 1.902-9.608-2.3-13.272-9.383-3.666-7.086-3.663-14.375.002-16.278 3.666-1.904 9.61 2.297 13.273 9.383 3.666 7.086 3.664 14.374-.002 16.278z"/><path fill="#FFF" d="M51.65 34.213s-.38-.244-1.05-.67l-1.19-.795c-.446-.324-.895-.775-1.405-1.24-.493-.48-1.104-.96-1.567-1.598-.5-.61-1.035-1.25-1.566-1.938-.494-.703-.953-1.473-1.424-2.246-.23-.4-.473-.756-.697-1.205l-.59-1.214c-.403-.793-.698-1.713-1.034-2.558-.313-.86-.516-1.73-.744-2.565-.16-.854-.36-1.668-.424-2.46-.082-.792-.168-1.536-.137-2.233-.007-.69.01-1.324.1-1.88.07-.56.108-1.044.23-1.43.198-.782.323-1.214.323-1.214l-.03 1.245c-.036.393.032.87.05 1.412.008.54.1 1.146.19 1.807.06.658.238 1.36.38 2.104.13.744.412 1.505.596 2.306.255.785.534 1.6.827 2.405.338.797.602 1.602 1.027 2.415l.565 1.228c.17.357.423.752.628 1.125.444.742.813 1.52 1.256 2.223.48.674.918 1.344 1.345 1.977.398.658.895 1.158 1.302 1.684.432.502.78 1.014 1.162 1.406.39.39.73.73 1.014 1.008l.862.903zM46.674 6.282l.686-.328c.232-.056.525-.147.865-.2.34-.02.73-.077 1.148-.004.428.02.865.157 1.338.27.452.172.942.328 1.4.594.478.226.92.543 1.388.84.44.33.898.654 1.31 1.03.845.737 1.58 1.58 2.25 2.38.65.816 1.18 1.637 1.618 2.343.428.716.744 1.33.95 1.77l.32.69-.407-.643c-.24-.418-.642-.98-1.1-1.664-.233-.34-.51-.69-.788-1.07-.283-.375-.617-.743-.93-1.148-.673-.77-1.412-1.58-2.244-2.28-.396-.376-.832-.696-1.25-1.028-.445-.294-.87-.61-1.322-.834-.44-.258-.89-.44-1.314-.632-.44-.136-.854-.294-1.256-.337-.396-.09-.766-.07-1.096-.09-.326.02-.607.077-.846.105l-.72.237z"/><path fill="#B3B3B3" d="M56.516 17.88c1.312 2.53 1.312 5.137 0 5.815-1.313.684-3.436-.82-4.744-3.354-1.31-2.53-1.31-5.136 0-5.815 1.31-.68 3.433.822 4.744 3.354zm-7.289-4.588c.787.504 1.15.205.806-.667L48.538 8.86c-.346-.873-1.098-.977-1.668-.234l-.59.768a1.54 1.54 0 00.395 2.268l2.552 1.63zm-1.697 7.615c-.472-.81-.103-1.34.82-1.18l.544.097c.922.16 1.63 1.057 1.57 1.992l-.13 2.018c-.06.936-.49 1.037-.965.23l-1.84-3.157zm11.136 4.043c-.225-.144-.39-.042-.367.224l.403 4.723c.023.268.25.42.506.344 0 0 2.927-.882 2.604-3.286l-3.148-2.003zm-2.123-8.513c-.016-.2.436-1.723.436-1.723.266-.9.872-.974 1.35-.167l.346.584c.478.81.104 1.428-.834 1.376l-1.3-.07zM25.42 21.525c-.02-1.092.652-1.42 1.498-.732l.5.407c.844.687 1.05 2 .46 2.917l-1.27 1.97c-.59.917-1.09.776-1.108-.313l-.08-4.25zm6.705 9.285c-.13-.233-.32-.228-.432.017l-1.947 4.318a.379.379 0 00.273.545s2.98.664 3.875-1.592l-1.77-3.287z"/></svg>