<svg width="27" height="24" viewBox="0 0 27 24" fill="none" xmlns="http://www.w3.org/2000/svg">
<path d="M1.3802 12.6002C1.66648 10.0083 2.80785 7.5855 4.62413 5.71436L6.62442 7.714L7.5506 6.78847L5.58631 4.82483C7.52346 3.22069 9.9247 2.2813 12.4361 2.14512V5.40018H13.7452V2.14512C16.2567 2.28084 18.6581 3.22028 20.595 4.82483L18.7099 6.70927L19.6361 7.6348L21.5572 5.7137C23.3736 7.58501 24.515 10.008 24.8011 12.6002H22.0475V13.9093H24.8725C24.8754 16.6394 23.9249 19.2849 22.1849 21.3888L19.9464 19.1502L19.0202 20.0757L21.2967 22.3516L21.2882 22.3594L22.1987 23.3C23.4601 22.0818 24.463 20.6217 25.1473 19.0071C25.8317 17.3924 26.1834 15.6564 26.1816 13.9027C26.1816 6.67654 20.3201 0.818359 13.0907 0.818359C5.86122 0.818359 -0.00023467 6.67589 -0.00023467 13.9027C-0.00438894 17.3519 1.35834 20.6623 3.78958 23.1089L4.71904 22.188L4.7066 22.1749L6.67417 20.208L5.74864 19.2824L3.83802 21.1924C2.19748 19.1195 1.30614 16.5528 1.30886 13.9093H3.96173V12.6002H1.3802Z" fill="#AEAEAE"/>
<path d="M14.1597 20.781C13.9251 20.8875 13.6595 20.9038 13.4136 20.8268L4.95291 17.2706C3.70076 16.8831 4.01233 15.595 5.30636 15.7979L14.4595 16.3222C14.7135 16.3621 14.9445 16.4937 15.1088 16.692L16.2347 18.2446C16.4075 18.9188 16.3335 19.2375 15.8544 19.8823L14.1597 20.781Z" fill="#AEAEAE"/>
</svg>
