<svg width="75" height="75" viewBox="0 0 75 75" fill="none" xmlns="http://www.w3.org/2000/svg">
<g clip-path="url(#clip0_879_41534)">
<path d="M37.5 19.0625H38.125V7.5L51.875 21.25L38.125 35V23.75H37.5C26.875 23.75 18.125 32.5 18.125 43.4375C18.125 54.375 26.875 62.8125 37.5 62.8125C48.125 62.8125 56.5625 54.375 56.875 44.0625H61.5625C61.25 57.1875 50.3125 67.5 37.5 67.5C24.0625 67.5 13.125 56.5625 13.125 43.125C13.125 29.6875 24.0625 19.0625 37.5 19.0625Z" fill="white"/>
<path d="M39.0625 48.125C38.75 48.4375 38.75 48.4375 38.4375 48.75C38.125 49.0625 37.8125 49.0625 37.5 49.0625C36.875 49.0625 36.5625 48.75 36.25 48.75C35.9375 48.75 35.625 48.125 35.625 47.5H33.125C33.125 48.125 33.4375 48.75 33.4375 49.0625C33.4375 49.375 34.0625 50 34.375 50.3125C34.6875 50.625 35.3125 50.9375 35.9375 50.9375C36.5625 51.25 37.1875 51.25 37.5 51.25C38.125 51.25 39.0625 51.25 39.375 50.9375C40 50.625 40.3125 50.3125 40.625 50C40.9375 49.6875 41.25 49.0625 41.5625 48.75C41.875 48.125 41.875 47.5 41.875 47.1875C41.875 46.5625 41.875 45.9375 41.5625 45.3125C41.25 44.6875 41.25 44.375 40.9375 44.0625C40.625 43.75 40.3125 43.4375 39.6875 43.125C39.0625 42.8125 38.75 42.8125 37.8125 42.8125C37.5 42.8125 37.5 42.8125 37.1875 42.8125C36.875 42.8125 36.875 42.8125 36.5625 42.8125C36.25 42.8125 36.25 42.8125 36.25 43.125C36.25 43.4375 35.9375 43.125 35.9375 43.4375L36.25 40.625H41.5625V37.5H34.0625L33.4375 44.375L35.625 45L35.9375 44.6875L36.25 44.375C36.25 44.375 36.5625 44.375 36.5625 44.0625C36.5625 43.75 36.875 44.0625 37.1875 44.0625C37.5 44.0625 37.8125 44.0625 38.125 44.375C38.4375 44.6875 38.75 44.6875 38.75 44.6875C38.75 44.6875 39.0625 45 39.0625 45.3125C39.0625 45.625 39.0625 45.9375 39.0625 46.25C39.0625 46.5625 39.0625 46.875 39.0625 47.1875C39.0625 47.5 39.0625 47.8125 39.0625 48.125Z" fill="white"/>
</g>
<defs>
<clipPath id="clip0_879_41534">
<rect width="75" height="75" fill="white"/>
</clipPath>
</defs>
</svg>
