<svg width="75" height="75" viewBox="0 0 75 75" fill="none" xmlns="http://www.w3.org/2000/svg">
<path d="M37.5 18.75H36.875V7.1875L23.125 20.9375L36.875 34.6875V23.4375H37.5C48.125 23.4375 56.875 32.1875 56.875 43.125C56.875 54.0625 48.125 62.5 37.5 62.5C26.875 62.5 18.4375 54.0625 18.125 43.75H13.4375C13.75 56.875 24.6875 67.1875 37.5 67.1875C50.9375 67.1875 61.875 56.25 61.875 42.8125C61.875 29.375 50.9375 18.75 37.5 18.75Z" fill="white"/>
<path d="M39.0625 48.125C39.0625 48.4375 38.75 48.4375 38.4375 48.75C38.125 48.75 37.8125 49.0625 37.5 49.0625C36.875 49.0625 36.5625 48.75 36.25 48.75C35.9375 48.4375 35.625 48.125 35.625 47.5H33.125C33.125 48.125 33.125 48.75 33.4375 49.0625C33.75 49.375 34.0625 50 34.375 50.3125C34.6875 50.625 35.3125 50.9375 35.9375 50.9375C36.5625 51.25 37.1875 51.25 37.5 51.25C38.125 51.25 39.0625 51.25 39.375 50.9375C40 50.625 40.3125 50.3125 40.625 50C40.9375 49.6875 41.25 49.0625 41.5625 48.75C41.875 48.125 41.875 47.5 41.875 47.1875C41.875 46.5625 41.875 45.9375 41.5625 45.3125C41.25 44.6875 41.25 44.375 40.9375 44.0625C40.625 43.75 40.3125 43.4375 39.6875 43.125C39.0625 42.8125 38.75 42.8125 38.125 42.8125C37.8125 42.8125 37.8125 42.8125 37.5 42.8125C37.1875 42.8125 37.1875 42.8125 36.875 42.8125C36.875 42.8125 36.5625 42.8125 36.5625 43.125C36.5625 43.4375 36.25 43.125 36.25 43.4375L36.5625 40.625H41.875V37.5H34.375L33.75 44.375L35.9375 45L36.25 44.6875L36.5625 44.375C36.5625 44.375 36.875 44.375 36.875 44.0625C36.875 43.75 37.1875 44.0625 37.5 44.0625C37.8125 44.0625 38.125 44.0625 38.4375 44.375C38.75 44.6875 39.0625 44.6875 39.0625 44.6875C39.375 45 39.375 45 39.375 45.3125C39.375 45.625 39.375 45.9375 39.375 46.25C39.375 46.5625 39.375 46.875 39.375 47.1875C39.0625 47.8125 39.0625 47.8125 39.0625 48.125Z" fill="white"/>
</svg>
