<svg width="107" height="110" viewBox="0 0 107 110" fill="none" xmlns="http://www.w3.org/2000/svg">
<g clip-path="url(#clip0_879_41501)">
<path d="M102.374 46.9965L62.7595 24.1253L23.1588 1.26767C20.2185 -0.417999 16.8465 -0.417999 13.9061 1.26767C10.9657 2.96682 9.29321 5.87966 9.29321 9.26448V35.3721C8.90205 41.2922 4.49149 44.1915 0.013488 46.9426H18.2627C19.0045 46.9426 19.598 46.8886 20.3398 46.8077C24.7099 46.2953 26.315 45.7558 28.9991 44.6231C34.8394 42.1687 37.0514 39.8493 41.7587 36.815C46.8437 33.5381 52.0096 34.3068 57.7554 38.2445C62.9618 41.8181 67.8444 47.0909 68.8695 48.8305C69.5304 49.9633 68.6537 50.4218 67.9524 50.5566C67.7096 50.6106 67.5072 50.6241 67.2645 50.5566C67.251 50.5566 58.5108 48.3046 55.5569 47.4011C52.603 46.4975 51.8342 47.0774 51.8342 47.0774C51.8342 47.0774 48.5027 48.4799 46.4391 53.928C44.3889 59.376 45.0903 64.3521 45.6163 66.1052C46.1423 67.8583 47.7878 68.2089 47.7878 68.2089C47.7878 68.2089 58.9694 71.1622 61.114 71.8635C63.2585 72.5647 62.9348 73.1176 61.9097 73.9402C60.8847 74.7628 57.0811 76.2192 50.6878 77.3385C44.308 78.4443 40.3425 76.7182 37.6314 75.518C34.9203 74.3178 31.6158 71.1757 29.9163 69.7058C25.0202 65.4849 17.8985 63.4486 11.5187 63.3272H0C4.68032 65.7951 8.88857 68.6405 9.29321 74.6145V100.722C9.29321 104.12 10.9792 107.033 13.9061 108.719C16.8465 110.418 20.205 110.418 23.1453 108.719L62.7595 85.8478L102.374 62.9766C105.314 61.2775 107 58.3646 107 54.9798C107 51.595 105.314 48.6687 102.374 46.983V46.9965Z" fill="white"/>
</g>
<defs>
<clipPath id="clip0_879_41501">
<rect width="107" height="110" fill="white"/>
</clipPath>
</defs>
</svg>
