<svg width="15" height="15" viewBox="0 0 15 15" fill="none" xmlns="http://www.w3.org/2000/svg">
<path d="M8.05084 0H6.57718C6.03459 0 5.59473 0.404611 5.59473 0.903724V1.54537C5.58691 1.84062 5.38465 2.10181 5.08386 2.20509C4.5876 2.39295 4.12154 2.64227 3.69862 2.94614C3.45032 3.13168 3.10454 3.16027 2.82424 3.01844L2.21513 2.71117C1.98865 2.59048 1.71918 2.55792 1.4665 2.62069C1.21382 2.68346 0.998815 2.83639 0.869181 3.04555L0.132348 4.22039C-0.114775 4.64606 0.0452595 5.17523 0.495852 5.42234L1.10497 5.74769C1.37622 5.90137 1.51978 6.19048 1.46847 6.4797C1.39563 6.96844 1.39563 7.46404 1.46847 7.95277C1.51978 8.242 1.37622 8.5311 1.10497 8.68479L0.495852 9.03724C0.268475 9.15649 0.102226 9.35427 0.0339839 9.5867C-0.0342586 9.81914 0.00114739 10.067 0.132348 10.2753L0.869181 11.4502C1.15255 11.8729 1.75361 12.0061 2.21513 11.7484L2.82424 11.4231C3.10454 11.2812 3.45032 11.3098 3.69862 11.4954C4.12154 11.7992 4.5876 12.0486 5.08386 12.2364C5.38465 12.3397 5.58691 12.6009 5.59473 12.8961V13.5559C5.59473 14.055 6.03459 14.4596 6.57718 14.4596H8.05084C8.59343 14.4596 9.03329 14.055 9.03329 13.5559V12.9142C9.04111 12.619 9.24337 12.3578 9.54416 12.2545C10.0404 12.0666 10.5065 11.8173 10.9294 11.5134C11.1777 11.3279 11.5235 11.2993 11.8038 11.4411L12.4129 11.7665C12.6394 11.8872 12.9088 11.9197 13.1615 11.857C13.4142 11.7942 13.6292 11.6413 13.7588 11.4321L14.4957 10.2573C14.7557 9.82737 14.5941 9.28511 14.1322 9.03724L13.5231 8.7119C13.2518 8.55821 13.1082 8.26911 13.1595 7.97988C13.2324 7.49115 13.2324 6.99555 13.1595 6.50681C13.1082 6.21759 13.2518 5.92848 13.5231 5.7748L14.1322 5.44946C14.3595 5.33021 14.5258 5.13243 14.594 4.9C14.6623 4.66756 14.6269 4.41968 14.4957 4.21135L13.7588 3.03651C13.6276 2.82889 13.4118 2.67788 13.1593 2.61683C12.9067 2.55579 12.6382 2.58974 12.4129 2.71117L11.8038 3.03651C11.5235 3.17835 11.1777 3.14976 10.9294 2.96422C10.5065 2.66035 10.0404 2.41102 9.54416 2.22316C9.24337 2.11988 9.04111 1.85869 9.03329 1.56344V0.903724C9.03329 0.664042 8.92978 0.434176 8.74554 0.264695C8.56129 0.0952135 8.3114 0 8.05084 0ZM9.77012 7.22979C9.77012 8.47758 8.67048 9.4891 7.31401 9.4891C5.95754 9.4891 4.8579 8.47758 4.8579 7.22979C4.8579 5.98201 5.95754 4.97048 7.31401 4.97048C8.67048 4.97048 9.77012 5.98201 9.77012 7.22979Z" fill="white"/>
</svg>
