<svg width="174" height="28" viewBox="0 0 174 28" fill="none" xmlns="http://www.w3.org/2000/svg">
<g clip-path="url(#clip0_879_41526)">
<path d="M94.5898 0.459961L92.7598 7.08996H100.53V26.77H107.97V7.08996H115.74V0.459961H94.5898Z" fill="#FF0000"/>
<path d="M172.75 9.35C172.26 8 171.58 6.76 170.69 5.62C169.8 4.48 168.76 3.5 167.57 2.66C166.38 1.82 165.07 1.17 163.64 0.71C162.22 0.24 160.73 0 159.16 0C157.6 0 156.11 0.24 154.69 0.7C153.27 1.17 151.96 1.82 150.76 2.65C149.57 3.49 148.53 4.48 147.64 5.61C146.76 6.75 146.07 7.98 145.58 9.34C145.09 10.69 144.84 12.1 144.83 13.59C144.83 15.08 145.09 16.49 145.58 17.85C146.07 19.2 146.75 20.45 147.64 21.58C148.53 22.72 149.57 23.71 150.76 24.55C151.95 25.39 153.26 26.04 154.69 26.51C156.11 26.98 157.6 27.21 159.16 27.22C160.72 27.22 162.22 26.98 163.64 26.51C165.06 26.04 166.37 25.39 167.57 24.55C168.76 23.71 169.8 22.71 170.69 21.58C171.58 20.44 172.26 19.2 172.75 17.85C173.23 16.5 173.48 15.08 173.49 13.59C173.49 12.1 173.23 10.69 172.75 9.34V9.35ZM165.29 16.26C164.94 17.09 164.46 17.82 163.85 18.46C163.23 19.09 162.53 19.59 161.72 19.95C160.92 20.31 160.07 20.49 159.16 20.5C158.25 20.5 157.4 20.31 156.6 19.95C155.8 19.59 155.09 19.09 154.48 18.46C153.86 17.82 153.38 17.09 153.03 16.26C152.68 15.43 152.5 14.54 152.49 13.6C152.49 12.66 152.68 11.79 153.03 10.96C153.38 10.14 153.86 9.41 154.48 8.78C155.09 8.15 155.8 7.65 156.6 7.29C157.4 6.93 158.25 6.75 159.16 6.74C160.07 6.74 160.92 6.93 161.72 7.29C162.52 7.65 163.23 8.15 163.85 8.78C164.46 9.41 164.95 10.14 165.29 10.96C165.64 11.78 165.82 12.66 165.83 13.6C165.83 14.54 165.65 15.43 165.29 16.26Z" fill="#FF0000"/>
<path d="M140.89 5.62C140 4.48 138.96 3.5 137.77 2.66C136.58 1.82 135.27 1.17 133.84 0.71C132.43 0.24 130.94 0 129.37 0C127.81 0 126.32 0.24 124.9 0.7C123.48 1.17 122.17 1.82 120.97 2.65C119.78 3.49 118.74 4.48 117.85 5.61C116.97 6.75 116.28 7.98 115.79 9.34C115.64 9.75 115.51 10.17 115.41 10.6C115.17 11.56 115.05 12.56 115.05 13.59C115.05 14.62 115.18 15.62 115.41 16.58C115.52 17.01 115.64 17.43 115.79 17.85C116.28 19.2 116.96 20.45 117.85 21.58C118.74 22.72 119.78 23.71 120.97 24.55C122.16 25.39 123.47 26.04 124.9 26.51C126.32 26.98 127.81 27.21 129.37 27.22C130.93 27.22 132.43 26.98 133.84 26.51C135.26 26.04 136.57 25.39 137.77 24.55C138.96 23.71 140 22.71 140.89 21.58C141.78 20.44 142.46 19.2 142.95 17.85C143.43 16.5 143.68 15.08 143.69 13.59C143.69 12.1 143.43 10.69 142.95 9.34C142.46 7.99 141.78 6.75 140.89 5.61V5.62ZM135.46 16.26C135.12 17.09 134.63 17.82 134.02 18.46C133.4 19.09 132.7 19.59 131.89 19.95C131.09 20.31 130.24 20.49 129.33 20.5C128.42 20.5 127.57 20.31 126.77 19.95C125.97 19.59 125.26 19.09 124.65 18.46C124.03 17.82 123.55 17.09 123.2 16.26C122.85 15.43 122.67 14.54 122.66 13.6C122.66 12.66 122.85 11.79 123.2 10.96C123.55 10.14 124.03 9.41 124.65 8.78C125.26 8.15 125.97 7.65 126.77 7.29C127.57 6.93 128.42 6.75 129.33 6.74C130.24 6.74 131.09 6.93 131.89 7.29C132.69 7.65 133.4 8.15 134.02 8.78C134.63 9.41 135.12 10.14 135.46 10.96C135.81 11.78 135.99 12.66 136 13.6C136 14.54 135.81 15.43 135.46 16.26Z" fill="#FF0000"/>
<path d="M17.04 0.459961V10.03H7.43V0.459961H0V26.77H7.43V16.66H17.04V26.77H24.47V0.459961H17.04Z" fill="white"/>
<path d="M40.0995 27.23C41.6595 27.23 43.1595 26.99 44.5695 26.52C45.9895 26.05 47.2995 25.4 48.4995 24.56C49.6895 23.72 50.7295 22.72 51.6195 21.59C52.5095 20.45 53.1895 19.21 53.6795 17.86C54.1595 16.51 54.4095 15.09 54.4195 13.6C54.4195 12.11 54.1595 10.7 53.6795 9.35C53.1895 8 52.5095 6.76 51.6195 5.62C50.7295 4.48 49.6895 3.5 48.4995 2.66C47.3095 1.82 45.9995 1.17 44.5695 0.71C43.1495 0.25 41.6595 0.01 40.0995 0.01V6.74C41.0095 6.74 41.8595 6.93 42.6595 7.29C43.4595 7.65 44.1695 8.15 44.7895 8.78C45.3995 9.41 45.8895 10.14 46.2295 10.96C46.5795 11.78 46.7595 12.66 46.7695 13.6C46.7695 14.54 46.5795 15.43 46.2295 16.26C45.8895 17.09 45.3995 17.82 44.7895 18.46C44.1695 19.09 43.4695 19.59 42.6595 19.95C41.8595 20.31 41.0095 20.49 40.0995 20.5V27.24V27.23ZM40.0995 0C38.5395 0 37.0495 0.24 35.6295 0.7C34.2095 1.17 32.8995 1.82 31.6995 2.65C30.5095 3.49 29.4695 4.48 28.5795 5.61C27.6995 6.75 27.0095 7.98 26.5195 9.34C26.0295 10.69 25.7795 12.1 25.7695 13.59C25.7695 15.08 26.0295 16.49 26.5195 17.85C26.9995 19.2 27.6895 20.45 28.5795 21.58C29.4695 22.72 30.5095 23.71 31.6995 24.55C32.8895 25.39 34.1995 26.04 35.6295 26.51C37.0495 26.98 38.5395 27.21 40.0995 27.22V20.48C39.1895 20.48 38.3395 20.29 37.5395 19.93C36.7395 19.57 36.0295 19.07 35.4195 18.44C34.7995 17.8 34.3195 17.07 33.9695 16.24C33.6195 15.41 33.4395 14.52 33.4295 13.58C33.4295 12.64 33.6195 11.77 33.9695 10.94C34.3195 10.12 34.7995 9.39 35.4195 8.76C36.0295 8.13 36.7395 7.63 37.5395 7.27C38.3395 6.91 39.1895 6.73 40.0995 6.72V0Z" fill="white"/>
<path d="M60.1804 26.77H67.6804L73.2003 11.57L78.6804 26.77H86.1804L93.4604 0.459961H85.4503L82.2403 15.67L77.1804 0.459961H69.1804L64.0804 15.67L60.8703 0.459961H52.8604L60.1804 26.77Z" fill="white"/>
</g>
<defs>
<clipPath id="clip0_879_41526">
<rect width="173.49" height="27.23" fill="white"/>
</clipPath>
</defs>
</svg>
